/* XPM */
static char *boat_4p_w_V_xpm[] = {
/* columns rows colors chars-per-pixel */
"66 264 2 1 ",
"  c #fffffa",
". c #ffffff",
/* pixels */
"                                                                  ",
"                                                                  ",
"                                                                  ",
"                                                                  ",
"                               ...                                ",
"                              .....                               ",
"                             .......                              ",
"                            .........                             ",
"                           ...........                            ",
"                          .............                           ",
"                         ..............                           ",
"                         ...............                          ",
"                        .................                         ",
"                       ...................                        ",
"                      ....................                        ",
"                      .....................                       ",
"                     .......................                      ",
"                     .......................                      ",
"                    .........................                     ",
"                   ...........................                    ",
"                   ...........................                    ",
"                  .............................                   ",
"                  ..............................                  ",
"                 ...............................                  ",
"                 ................................                 ",
"                .................................                 ",
"                .................................                 ",
"               ...................................                ",
"               ...................................                ",
"              .....................................               ",
"              .....................................               ",
"              .....................................               ",
"             .......................................              ",
"             .......................................              ",
"             ........................................             ",
"            .........................................             ",
"            .........................................             ",
"            ..........................................            ",
"           ...........................................            ",
"           ...........................................            ",
"           ...........................................            ",
"          .............................................           ",
"          .............................................           ",
"          .............................................           ",
"          .............................................           ",
"         ..............................................           ",
"         ...............................................          ",
"         ...............................................          ",
"         ...............................................          ",
"         ...............................................          ",
"         ...............................................          ",
"         ...............................................          ",
"         ...............................................          ",
"         ...............................................          ",
"         ...............................................          ",
"         ...............................................          ",
"         ...............................................          ",
"         ...............................................          ",
"         ...............................................          ",
"         ...............................................          ",
"         ...............................................          ",
"         ...............................................          ",
"         ...............................................          ",
"         ...............................................          ",
"         ...............................................          ",
"         ...............................................          ",
"         ...............................................          ",
"         ...............................................          ",
"         ...............................................          ",
"         ................................................         ",
"         ................................................         ",
"        .................................................         ",
"        .................................................         ",
"        .................................................         ",
"        .................................................         ",
"        .................................................         ",
"        .................................................         ",
"        .................................................         ",
"         ................................................         ",
"         ................................................         ",
"         ...............................................          ",
"         ...............................................          ",
"         ...............................................          ",
"         ...............................................          ",
"         ...............................................          ",
"         ...............................................          ",
"         ...............................................          ",
"         ...............................................          ",
"         ...............................................          ",
"         ...............................................          ",
"         ...............................................          ",
"         ...............................................          ",
"         ...............................................          ",
"         ...............................................          ",
"         ...............................................          ",
"         ...............................................          ",
"         ...............................................          ",
"         ...............................................          ",
"         ...............................................          ",
"         ...............................................          ",
"         ...............................................          ",
"         ...............................................          ",
"         ...............................................          ",
"         ...............................................          ",
"         ...............................................          ",
"         ...............................................          ",
"         ...............................................          ",
"         ...............................................          ",
"         ...............................................          ",
"         ...............................................          ",
"         ...............................................          ",
"         ...............................................          ",
"         ...............................................          ",
"         ...............................................          ",
"         ...............................................          ",
"         ...............................................          ",
"         ...............................................          ",
"         ...............................................          ",
"         ...............................................          ",
"         ...............................................          ",
"         ...............................................          ",
"         ...............................................          ",
"         ...............................................          ",
"        ................................................          ",
"       ..................................................         ",
"      ....................................................        ",
"     ......................................................       ",
"     ......................................................       ",
"     .......................................................      ",
"     .......................................................      ",
"     .......................................................      ",
"     .......................................................      ",
"     .......................................................      ",
"     .......................................................      ",
"     .......................................................      ",
"     .......................................................      ",
"     .......................................................      ",
"     .......................................................      ",
"     .......................................................      ",
"     .......................................................      ",
"     .......................................................      ",
"     .......................................................      ",
"     .......................................................      ",
"     .......................................................      ",
"     .......................................................      ",
"     ......................................................       ",
"     ......................................................       ",
"     .....................................................        ",
"      ....................................................        ",
"       ..................................................         ",
"        ................................................          ",
"         ...............................................          ",
"         ...............................................          ",
"         ...............................................          ",
"         ...............................................          ",
"         ...............................................          ",
"         ...............................................          ",
"         ...............................................          ",
"         ...............................................          ",
"         ...............................................          ",
"         ...............................................          ",
"         ...............................................          ",
"         ...............................................          ",
"         ...............................................          ",
"         ...............................................          ",
"         ...............................................          ",
"         ...............................................          ",
"         ...............................................          ",
"         ...............................................          ",
"         ...............................................          ",
"         ...............................................          ",
"         ...............................................          ",
"         ...............................................          ",
"         ...............................................          ",
"         ...............................................          ",
"         ...............................................          ",
"         ...............................................          ",
"         ...............................................          ",
"         ...............................................          ",
"         ...............................................          ",
"         ...............................................          ",
"         ...............................................          ",
"         ...............................................          ",
"         ...............................................          ",
"         ...............................................          ",
"         ...............................................          ",
"         ...............................................          ",
"         ...............................................          ",
"         ...............................................          ",
"         ...............................................          ",
"         ...............................................          ",
"         ...............................................          ",
"         ...............................................          ",
"         ...............................................          ",
"         ...............................................          ",
"         ...............................................          ",
"         ...............................................          ",
"         ...............................................          ",
"         ...............................................          ",
"         ...............................................          ",
"         ...............................................          ",
"         ................................................         ",
"         ................................................         ",
"        .................................................         ",
"        .................................................         ",
"        .................................................         ",
"        .................................................         ",
"        .................................................         ",
"        .................................................         ",
"         ................................................         ",
"         ................................................         ",
"         ...............................................          ",
"         ...............................................          ",
"         ...............................................          ",
"         ...............................................          ",
"         ...............................................          ",
"         ...............................................          ",
"         ...............................................          ",
"         ...............................................          ",
"         ...............................................          ",
"         ...............................................          ",
"         ...............................................          ",
"         ...............................................          ",
"         ...............................................          ",
"         ...............................................          ",
"         ...............................................          ",
"         ...............................................          ",
"         ...............................................          ",
"         ...............................................          ",
"         ...............................................          ",
"         ...............................................          ",
"         ...............................................          ",
"         ...............................................          ",
"         ...............................................          ",
"         ...............................................          ",
"         ...............................................          ",
"         ...............................................          ",
"         ...............................................          ",
"         ...............................................          ",
"          ..............................................          ",
"          ..............................................          ",
"          ..............................................          ",
"         ...............................................          ",
"         ..............................................           ",
"         ..............................................           ",
"          .............................................           ",
"          .............................................           ",
"           ...........................................            ",
"            .........................................             ",
"            ........................................              ",
"             ......................................               ",
"              ....................................                ",
"               ..................................                 ",
"                ................................                  ",
"                  .............................                   ",
"                    .........................                     ",
"                        .................                         ",
"                                                                  ",
"                                                                  ",
"                                                                  ",
"                                                                  ",
"                                                                  ",
"                                                                  ",
"                                                                  "
};

