/* XPM */
static char *boat_2p_w_V_xpm[] = {
/* columns rows colors chars-per-pixel */
"66 132 2 1 ",
"  c #fffffa",
". c #ffffff",
/* pixels */
"                                                                  ",
"                                                                  ",
"                             ...                                  ",
"                            .....                                 ",
"                           .......                                ",
"                          .........                               ",
"                         ...........                              ",
"                         ............                             ",
"                        ..............                            ",
"                       ................                           ",
"                      .................                           ",
"                     ...................                          ",
"                     ....................                         ",
"                    .....................                         ",
"                   .......................                        ",
"                   ........................                       ",
"                  ..........................                      ",
"                  ..........................                      ",
"                 ............................                     ",
"                ..............................                    ",
"                ..............................                    ",
"               ................................                   ",
"               ................................                   ",
"              ..................................                  ",
"              ..................................                  ",
"             ....................................                 ",
"             ....................................                 ",
"             ....................................                 ",
"            ......................................                ",
"            ......................................                ",
"           ........................................               ",
"           .........................................              ",
"           .........................................              ",
"          ..........................................              ",
"          ...........................................             ",
"          ...........................................             ",
"         ............................................             ",
"         ............................................             ",
"         ............................................             ",
"         .............................................            ",
"        ..............................................            ",
"        ..............................................            ",
"        ..............................................            ",
"        ..............................................            ",
"        ..............................................            ",
"       ...............................................            ",
"       ...............................................            ",
"       ...............................................            ",
"       ...............................................            ",
"       ...............................................            ",
"       ...............................................            ",
"       ...............................................            ",
"       ...............................................            ",
"       ...............................................            ",
"       ...............................................            ",
"       ...............................................            ",
"       ...............................................            ",
"       ...............................................            ",
"       ...............................................            ",
"       ...............................................            ",
"       ...............................................            ",
"       ...............................................            ",
"       ...............................................            ",
"       ...............................................            ",
"       ...............................................            ",
"       ...............................................            ",
"       ................................................           ",
"       ................................................           ",
"       ................................................           ",
"       .................................................          ",
"      ..................................................          ",
"      ..................................................          ",
"      ..................................................          ",
"      ..................................................          ",
"      ..................................................          ",
"      ..................................................          ",
"      ..................................................          ",
"      ..................................................          ",
"       .................................................          ",
"       ................................................           ",
"       ................................................           ",
"       ................................................           ",
"       ...............................................            ",
"       ...............................................            ",
"       ...............................................            ",
"       ...............................................            ",
"       ...............................................            ",
"       ...............................................            ",
"       ...............................................            ",
"       ...............................................            ",
"       ...............................................            ",
"       ...............................................            ",
"       ...............................................            ",
"       ...............................................            ",
"       ...............................................            ",
"       ...............................................            ",
"       ...............................................            ",
"       ...............................................            ",
"       ...............................................            ",
"       ...............................................            ",
"       ...............................................            ",
"       ...............................................            ",
"       ...............................................            ",
"       ...............................................            ",
"       ...............................................            ",
"       ...............................................            ",
"       ...............................................            ",
"       ...............................................            ",
"       ...............................................            ",
"       ...............................................            ",
"       ...............................................            ",
"       ...............................................            ",
"       ...............................................            ",
"       ...............................................            ",
"       ...............................................            ",
"        ..............................................            ",
"        ..............................................            ",
"        .............................................             ",
"         ............................................             ",
"         ...........................................              ",
"          ..........................................              ",
"           ........................................               ",
"            ......................................                ",
"             ....................................                 ",
"              ..................................                  ",
"               ................................                   ",
"                 ............................                     ",
"                   ........................                       ",
"                       ................                           ",
"                                                                  ",
"                                                                  ",
"                                                                  "
};

