/* XPM */
static char *boat_4p_w_xpm[] = {
/* columns rows colors chars-per-pixel */
"264 66 2 1 ",
"  c #fffffa",
". c #ffffff",
/* pixels */
"                                                                                                                                                                                                                                                                        ",
"                                                                                                                                                                                                                                                                        ",
"                                                                                                                                                                                                                                                                        ",
"                                                                                                                                                                                                                                                                        ",
"                                                                                                                                                                                                                                                                        ",
"                                                                                                                    ......................                                                                                                                              ",
"                                                                                                                   ........................                                                                                                                             ",
"                                                                                                                  ..........................                                                                                                                            ",
"                                                       ......                                                    ............................                                             .......                                                                       ",
"                   ...   ..................................................................................................................................................................................................                                             ",
"                 ..............................................................................................................................................................................................................                                         ",
"                ..................................................................................................................................................................................................................                                      ",
"              .......................................................................................................................................................................................................................                                   ",
"             ...........................................................................................................................................................................................................................                                ",
"            ...............................................................................................................................................................................................................................                             ",
"           ..................................................................................................................................................................................................................................                           ",
"          .....................................................................................................................................................................................................................................                         ",
"          .......................................................................................................................................................................................................................................                       ",
"         ..........................................................................................................................................................................................................................................                     ",
"         ............................................................................................................................................................................................................................................                   ",
"        ..............................................................................................................................................................................................................................................                  ",
"        ................................................................................................................................................................................................................................................                ",
"        ..................................................................................................................................................................................................................................................              ",
"        ...................................................................................................................................................................................................................................................             ",
"       .....................................................................................................................................................................................................................................................            ",
"       .......................................................................................................................................................................................................................................................          ",
"       ........................................................................................................................................................................................................................................................         ",
"       .........................................................................................................................................................................................................................................................        ",
"       ..........................................................................................................................................................................................................................................................       ",
"       ...........................................................................................................................................................................................................................................................      ",
"       ............................................................................................................................................................................................................................................................     ",
"       .............................................................................................................................................................................................................................................................    ",
"       .............................................................................................................................................................................................................................................................    ",
"       .............................................................................................................................................................................................................................................................    ",
"       ............................................................................................................................................................................................................................................................     ",
"       ...........................................................................................................................................................................................................................................................      ",
"       ..........................................................................................................................................................................................................................................................       ",
"       .........................................................................................................................................................................................................................................................        ",
"       ........................................................................................................................................................................................................................................................         ",
"       ......................................................................................................................................................................................................................................................           ",
"       .....................................................................................................................................................................................................................................................            ",
"        ...................................................................................................................................................................................................................................................             ",
"        .................................................................................................................................................................................................................................................               ",
"        ................................................................................................................................................................................................................................................                ",
"        ..............................................................................................................................................................................................................................................                  ",
"         ............................................................................................................................................................................................................................................                   ",
"         ..........................................................................................................................................................................................................................................                     ",
"          ........................................................................................................................................................................................................................................                      ",
"           .....................................................................................................................................................................................................................................                        ",
"            .................................................................................................................................................................................................................................                           ",
"             ..............................................................................................................................................................................................................................                             ",
"              ..........................................................................................................................................................................................................................                                ",
"               .......................................................................................................................................................................................................................                                  ",
"                ...................................................................................................................................................................................................................                                     ",
"                 ..............................................................................................................................................................................................................                                         ",
"                     .....................................................................................................................................................................................................                                              ",
"                                                     ..........                                                   ..........................                                            ...........                                                                     ",
"                                                                                                                   ........................                                                                                                                             ",
"                                                                                                                     .....................                                                                                                                              ",
"                                                                                                                       .................                                                                                                                                ",
"                                                                                                                                                                                                                                                                        ",
"                                                                                                                                                                                                                                                                        ",
"                                                                                                                                                                                                                                                                        ",
"                                                                                                                                                                                                                                                                        ",
"                                                                                                                                                                                                                                                                        ",
"                                                                                                                                                                                                                                                                        "
};

