/* XPM */
static char *boat_2p_w_xpm[] = {
/* columns rows colors chars-per-pixel */
"132 66 2 1 ",
"  c #fffffa",
". c #ffffff",
/* pixels */
"                                                                                                                                    ",
"                                                                                                                                    ",
"                                                                                                                                    ",
"                                                                                                                                    ",
"                                                                                                                                    ",
"                                                                                                                                    ",
"                                                      ........                                                                      ",
"                 ......................................................................                                             ",
"              ..............................................................................                                        ",
"            ....................................................................................                                    ",
"           ........................................................................................                                 ",
"          ............................................................................................                              ",
"         ...............................................................................................                            ",
"        ...................................................................................................                         ",
"       ......................................................................................................                       ",
"      .........................................................................................................                     ",
"      ...........................................................................................................                   ",
"     .............................................................................................................                  ",
"     ...............................................................................................................                ",
"    ..................................................................................................................              ",
"    ...................................................................................................................             ",
"    .....................................................................................................................           ",
"    ......................................................................................................................          ",
"   ........................................................................................................................         ",
"   .........................................................................................................................        ",
"   ...........................................................................................................................      ",
"   ............................................................................................................................     ",
"   .............................................................................................................................    ",
"   ..............................................................................................................................   ",
"   ...............................................................................................................................  ",
"   ...............................................................................................................................  ",
"   ...............................................................................................................................  ",
"   ..............................................................................................................................   ",
"   .............................................................................................................................    ",
"   ............................................................................................................................     ",
"   ...........................................................................................................................      ",
"   ..........................................................................................................................       ",
"   .........................................................................................................................        ",
"   ........................................................................................................................         ",
"    .....................................................................................................................           ",
"    ....................................................................................................................            ",
"    ..................................................................................................................              ",
"    .................................................................................................................               ",
"     ...............................................................................................................                ",
"     .............................................................................................................                  ",
"      ...........................................................................................................                   ",
"      .........................................................................................................                     ",
"       ......................................................................................................                       ",
"        ...................................................................................................                         ",
"         ...............................................................................................                            ",
"          ............................................................................................                              ",
"           ..........................................................................................                               ",
"             .....................................................................................                                  ",
"               ..............................................................................                                       ",
"                                                  ................                                                                  ",
"                                                     ..........                                                                     ",
"                                                                                                                                    ",
"                                                                                                                                    ",
"                                                                                                                                    ",
"                                                                                                                                    ",
"                                                                                                                                    ",
"                                                                                                                                    ",
"                                                                                                                                    ",
"                                                                                                                                    ",
"                                                                                                                                    ",
"                                                                                                                                    "
};

