/* XPM */
static char *crosshair_xpm[] = {
/* columns rows colors chars-per-pixel */
"66 66 53 1 ",
"  c #fffffa",
". c #EC1B23",
"X c #EC1C23",
"o c #EB1D25",
"O c #EC1C24",
"+ c #EC1D25",
"@ c #EC2129",
"# c #ED242B",
"$ c #EC242C",
"% c #ED252D",
"& c #ED272F",
"* c #EC282F",
"= c #EC2830",
"- c #ED2831",
"; c #ED2931",
": c #ED2A32",
"> c #ED2B32",
", c #ED2A33",
"< c #EC2B33",
"1 c #ED2B33",
"2 c #ED2D34",
"3 c #ED2E36",
"4 c #EC3037",
"5 c #ED3037",
"6 c #ED3138",
"7 c #EC3139",
"8 c #EE3038",
"9 c #EC3239",
"0 c #ED3239",
"q c #EE3239",
"w c #ED323A",
"e c #EC333A",
"r c #ED333A",
"t c #EE333A",
"y c #ED343C",
"u c #ED353D",
"i c #EF353C",
"p c #ED363D",
"a c #ED373D",
"s c #EE363D",
"d c #ED363E",
"f c #EE363E",
"g c #EF373F",
"h c #ED383E",
"j c #ED393F",
"k c #EE383E",
"l c #ED3840",
"z c #ED3940",
"x c #ED3E45",
"c c #EF3E44",
"v c #EB4147",
"b c #ED4249",
"n c #ED4850",
/* pixels */
"OOOOOOOOOOOOOOOOOOOOOOO2                  OOOOOOOOOOOOOOOOOOOOOOOO",
"OOOOOOOOOOOOOOOOOOOOOOO2                  OOOOOOOOOOOOOOOOOOOOOOOO",
"OOOOOOOOOOOOOOOOOOOOOOO2                  OOOOOOOOOOOOOOOOOOOOOOOO",
"OOOOOOOOOOOOOOOOOOOOOOO2                  OOOOOOOOOOOOOOOOOOOOOOOO",
"OOOOOOOOOOOOOOOOOOOOOOO2                  OOOOOOOOOOOOOOOOOOOOOOOO",
"OOOOO1eeeeeeeeeeeeeeeeev                  eeeeeeeeeeeeeeeeee$OOOOO",
"OOOOOu                                                      2OOOOO",
"OOOOOu                                                      2OOOOO",
"OOOOOu                                                      2OOOOO",
"OOOOOu                                                      2OOOOO",
"OOOOOu                                                      2OOOOO",
"OOOOOu                                                      2OOOOO",
"OOOOOu                                                      2OOOOO",
"OOOOOu                                                      2OOOOO",
"OOOOOu                                                      2OOOOO",
"OOOOOu                                                      2OOOOO",
"OOOOOu                                                      2OOOOO",
"OOOOOu                                                      2OOOOO",
"OOOOOu                                                      2OOOOO",
"OOOOOu                                                      2OOOOO",
"OOOOOu                                                      2OOOOO",
"OOOOOu                                                      2OOOOO",
"OOOOOu                                                      2OOOOO",
"OOOOOu                                                      2OOOOO",
"11111c                                                      u11111",
"                              11111c                              ",
"                              OOOOOe                              ",
"                              OOOOOe                              ",
"                              OOOOOe                              ",
"                              OOOOOe                              ",
"                              OOOOOe                              ",
"                        1ooooOOOOOOOOooool                        ",
"                        $OOOOOOOOOOOOOOOOj                        ",
"                        *OOOOOOOOOOOOOOOOj                        ",
"                        1OOOOOOOOOOOOOOOOu                        ",
"                        1OOOOOOOOOOOOOOOOu                        ",
"                        le5551XOOOO@eeuuub                        ",
"                              OOOOOe                              ",
"                              OOOOOe                              ",
"                              OOOOOe                              ",
"                              OOOOOe                              ",
"                              OOOOOe                              ",
"                              juuuun                              ",
"OOOOO$                                                      eOOOOO",
"OOOOO$                                                      eOOOOO",
"OOOOO$                                                      eOOOOO",
"OOOOO$                                                      eOOOOO",
"OOOOO$                                                      eOOOOO",
"OOOOO$                                                      eOOOOO",
"OOOOO$                                                      eOOOOO",
"OOOOO$                                                      eOOOOO",
"OOOOO1                                                      eOOOOO",
"OOOOOe                                                      eOOOOO",
"OOOOOe                                                      eOOOOO",
"OOOOO$                                                      eOOOOO",
"OOOOO$                                                      eOOOOO",
"OOOOO$                                                      eOOOOO",
"OOOOO$                                                      eOOOOO",
"OOOOO$                                                      eOOOOO",
"OOOOO$                                                      eOOOOO",
"OOOOO#eeeeeeeeeueeeeeee                   uuuuuuuuuuuuuuuuuu1OOOOO",
"OOOOOOOOOOOOOOOOOOOOOOO.                  OOOOOOOOOOOOOOOOOOOOOOOO",
"OOOOOOOOOOOOOOOOOOOOOOO.                  OOOOOOOOOOOOOOOOOOOOOOOO",
"OOOOOOOOOOOOOOOOOOOOOOO.                  OOOOOOOOOOOOOOOOOOOOOOOO",
"OOOOOOOOOOOOOOOOOOOOOOO.                  OOOOOOOOOOOOOOOOOOOOOOOO",
"OOOOOOOOOOOOOOOOOOOOOOO.                  OOOOOOOOOOOOOOOOOOOOOOOO"
};

