/* XPM */
static char * cursor_xpm[] = {
"25 36 40 1",
" 	c #fffffa",
".	c #000000",
"+	c #020202",
"@	c #B0B0B0",
"#	c #787878",
"$	c #BBBBBB",
"%	c #F7F7F7",
"&	c #FFFFFF",
"*	c #F8F8F8",
"=	c #FEFEFE",
"-	c #F1F1F1",
";	c #898989",
">	c #7D7D7D",
",	c #CFCFCF",
"'	c #C8C8C8",
")	c #D0D0D0",
"!	c #050505",
"~	c #6B6B6B",
"{	c #FCFCFC",
"]	c #4E4E4E",
"^	c #DEDEDE",
"/	c #B2B2B2",
"(	c #030303",
"_	c #9A9A9A",
":	c #EFEFEF",
"<	c #010101",
"[	c #090909",
"}	c #929292",
"|	c #040404",
"1	c #BABABA",
"2	c #DADADA",
"3	c #5A5A5A",
"4	c #656565",
"5	c #D4D4D4",
"6	c #C6C6C6",
"7	c #888888",
"8	c #FAFAFA",
"9	c #B6B6B6",
"0	c #B1B1B1",
"a	c #535353",
" .                       ",
" ..                      ",
" ...                     ",
" .+..                    ",
" .@#..                   ",
" .$%#..                  ",
" .$&%#..                 ",
" .$&&*#..                ",
" .$=&=%#..               ",
" .$&&&&*#..              ",
" .$&&&&&*#..             ",
" .$=&&=&&*#..            ",
" .$&&&&&&&*#..           ",
" .$&&&&&&&&*#..          ",
" .$=&&=&&=&&%#..         ",
" .$==&=&&&&&&*#..        ",
" .$=====&=&&==%#..       ",
" .$&&&&&&&&&&&&%#..      ",
" .$&&&&&&&&&&&&&*#..     ",
" .$&&&&&&&&&&&&&&*#..    ",
" .$&&&&&&&&&&&&&&&*#..   ",
" .$=&=&&====&&===&&%#..  ",
" .$&&&&&&&&-;;;;;;;;#... ",
" .$=&&=&&&&&>............",
" .$=&&=&,'&&).           ",
" .$&&&&,!~&&{].          ",
" .$&&=,+..^&&/.          ",
" .$&=,(. ._&=:<.         ",
" .$=,!.  .[-&&}.         ",
" .$,|.    .1&&2..        ",
" .#(.     .3=&&4.        ",
" ...      ..5&&6.        ",
" ..        .7&89..       ",
" .         ..0a..        ",
"            ...          ",
"            .            "};
