/* XPM */
static char * hand_cursor_xpm[] = {
"26 33 81 1",
" 	c #fffffa",
".	c #000000",
"+	c #020202",
"@	c #CECECE",
"#	c #EBEBEB",
"$	c #707070",
"%	c #484848",
"&	c #FEFEFE",
"*	c #FFFFFF",
"=	c #C1C1C1",
"-	c #4E4E4E",
";	c #C4C4C4",
">	c #010101",
",	c #797979",
"'	c #919191",
")	c #0F0F0F",
"!	c #4B4B4B",
"~	c #FBFBFB",
"{	c #9D9D9D",
"]	c #2F2F2F",
"^	c #303030",
"/	c #727272",
"(	c #B7B7B7",
"_	c #555555",
":	c #F3F3F3",
"<	c #F5F5F5",
"[	c #636363",
"}	c #7D7D7D",
"|	c #A3A3A3",
"1	c #3D3D3D",
"2	c #D7D7D7",
"3	c #D0D0D0",
"4	c #242424",
"5	c #969696",
"6	c #737373",
"7	c #999999",
"8	c #777777",
"9	c #7F7F7F",
"0	c #A4A4A4",
"a	c #9A9A9A",
"b	c #F2F2F2",
"c	c #E1E1E1",
"d	c #EEEEEE",
"e	c #E6E6E6",
"f	c #E9E9E9",
"g	c #ECECEC",
"h	c #454545",
"i	c #808080",
"j	c #040404",
"k	c #F6F6F6",
"l	c #414141",
"m	c #D2D2D2",
"n	c #F7F7F7",
"o	c #B6B6B6",
"p	c #3B3B3B",
"q	c #515151",
"r	c #2D2D2D",
"s	c #DADADA",
"t	c #E7E7E7",
"u	c #2E2E2E",
"v	c #232323",
"w	c #767676",
"x	c #2C2C2C",
"y	c #656565",
"z	c #252525",
"A	c #F8F8F8",
"B	c #282828",
"C	c #CACACA",
"D	c #2B2B2B",
"E	c #5A5A5A",
"F	c #262626",
"G	c #D6D6D6",
"H	c #FAFAFA",
"I	c #898989",
"J	c #171717",
"K	c #AAAAAA",
"L	c #313131",
"M	c #D3D3D3",
"N	c #C2C2C2",
"O	c #8B8B8B",
"P	c #1F1F1F",
"                          ",
"         ....             ",
"         +@#$.            ",
"         %&*=.            ",
"         -&*;.            ",
"         -&*;.            ",
"         -&*;.            ",
"         -&*;...          ",
"         -&*;>,')         ",
"         -&*;!~*{.]^.     ",
"         -&*;/**(_:<[.... ",
"         -&*;/**(}**|1234 ",
"         -&*;/**(}**|5**6.",
"         -&*;/**(}**|7**8.",
"         -&*;/**(}**|7**8.",
"         -&*;6**(9**0a**8.",
"   .     -&*bc**de**fg**8.",
" .hi1.   -&*************8.",
" jc*k(l..-&*************8.",
" >m***nopq&*************8.",
" .rs****kt**************8.",
"  .us*******************8.",
"   .vs******************8.",
"    .]s*****************w.",
"     .xs****************y ",
"      .zs**************AB ",
"       .]s*************C. ",
"        .Ds***********nE. ",
"         .FG*********HI.  ",
"          .JK:******t8.   ",
"            .L'=mMNOP.    ",
"              ......      ",
"                          "};
