/* XPM */
static char * explosion_xpm[] = {
/* columns rows colors chars-per-pixel */
"66 66 253 2 ",
"   c #fffffa",
".  c #2B0505",
"X  c #2A0C0C",
"o  c #270808",
"O  c #380808",
"+  c #331110",
"@  c #480B0B",
"#  c #570E0F",
"$  c #491718",
"%  c #591616",
"&  c #500F10",
"*  c #681A19",
"=  c #7A1C1B",
"-  c #761B19",
";  c #75221B",
":  c #6E260D",
">  c #4E1F21",
",  c #4C2424",
"<  c #4A2527",
"1  c #562727",
"2  c #682A2A",
"3  c #742422",
"4  c #7C2525",
"5  c #7A2A2A",
"6  c #793033",
"7  c #671E20",
"8  c #891716",
"9  c #9A1C1B",
"0  c #AB1E1D",
"q  c #A31D1D",
"w  c #B41C1C",
"e  c #BB1A1A",
"r  c #BD1917",
"t  c #86241C",
"y  c #982B1B",
"u  c #AA231E",
"i  c #B5241D",
"p  c #A91E21",
"a  c #B51E20",
"s  c #852423",
"d  c #8C2A25",
"f  c #852B2B",
"g  c #8C2B2B",
"h  c #872727",
"j  c #932524",
"k  c #9C2423",
"l  c #942926",
"z  c #9C2B25",
"x  c #9B272A",
"c  c #932B2A",
"v  c #9B2A2A",
"b  c #962728",
"n  c #84302E",
"m  c #8D302D",
"M  c #98302C",
"N  c #8A2E31",
"B  c #862E30",
"V  c #843233",
"C  c #8B3232",
"Z  c #82353A",
"A  c #9A3334",
"S  c #972F30",
"D  c #A32423",
"F  c #AB2323",
"G  c #A42B26",
"H  c #AA2C26",
"J  c #A32A2A",
"K  c #AC2A2A",
"L  c #AA2729",
"P  c #B42C25",
"I  c #BB2B26",
"U  c #B32B2A",
"Y  c #BB2A29",
"T  c #B92523",
"R  c #A3332C",
"E  c #A93427",
"W  c #BD3324",
"Q  c #B83529",
"!  c #A73434",
"~  c #8C1E20",
"^  c #C31614",
"/  c #C41617",
"(  c #C42C26",
")  c #C42B2A",
"_  c #CC2A29",
"`  c #C82822",
"'  c #D42B2A",
"]  c #DC2A2A",
"[  c #D62A27",
"{  c #C33425",
"}  c #C33529",
"|  c #C43B2A",
" . c #CC3B2B",
".. c #CA3627",
"X. c #D53B2A",
"o. c #DC3D2A",
"O. c #D73628",
"+. c #D03F33",
"@. c #E22B2A",
"#. c #EB2B2A",
"$. c #E13E2A",
"%. c #E13928",
"&. c #F32A29",
"*. c #C42D1E",
"=. c #B7452C",
"-. c #B34733",
";. c #9A4522",
":. c #DD4D1F",
">. c #DE531D",
",. c #E4541C",
"<. c #E45D1D",
"1. c #E95C16",
"2. c #E14E1C",
"3. c #D56E1D",
"4. c #EE7A0B",
"5. c #F17C0B",
"6. c #F27A06",
"7. c #E7661C",
"8. c #EA651D",
"9. c #EC6C1C",
"0. c #EB6A14",
"q. c #F06D1C",
"w. c #EC731B",
"e. c #ED7B1C",
"r. c #EE7A13",
"t. c #F27C1C",
"y. c #F17617",
"u. c #C94528",
"i. c #D34325",
"p. c #DC4425",
"a. c #DD4B25",
"s. c #D4422A",
"d. c #DD4229",
"f. c #DB4C2A",
"g. c #D34A27",
"h. c #DA5629",
"j. c #C95436",
"k. c #D25132",
"l. c #E14326",
"z. c #E24C24",
"x. c #E2442A",
"c. c #E34B2A",
"v. c #E84C2A",
"b. c #E55325",
"n. c #E45B23",
"m. c #E5532A",
"M. c #E55B2B",
"N. c #E95C2A",
"B. c #E95927",
"V. c #E64A35",
"C. c #DC6726",
"Z. c #DD6635",
"A. c #D87230",
"S. c #EB6424",
"D. c #EC6C24",
"F. c #E5632C",
"G. c #EB642B",
"H. c #ED6B2B",
"J. c #E56826",
"K. c #EB7323",
"L. c #EC742B",
"P. c #E77928",
"I. c #F27726",
"U. c #E56A33",
"Y. c #E67837",
"T. c #F57A32",
"R. c #F16E2C",
"E. c #DB6A48",
"W. c #E57742",
"Q. c #D75241",
"!. c #F28305",
"~. c #F48B04",
"^. c #F3830C",
"/. c #F38B0C",
"(. c #F49306",
"). c #F59B06",
"_. c #F4930A",
"`. c #F39C0A",
"'. c #F89707",
"]. c #EE8717",
"[. c #F18414",
"{. c #F48C12",
"}. c #F1851A",
"|. c #F49315",
" X c #F49C14",
".X c #F5991A",
"XX c #EC9210",
"oX c #F4A30B",
"OX c #F4AB0A",
"+X c #F6A60B",
"@X c #F7B40B",
"#X c #F3A213",
"$X c #F4A41B",
"%X c #F3AA1C",
"&X c #F6A81A",
"*X c #F5B617",
"=X c #EEA51B",
"-X c #EB8727",
";X c #F6852B",
":X c #ED9726",
">X c #F49A27",
",X c #E88738",
"<X c #EC953A",
"1X c #F48A33",
"2X c #F4A725",
"3X c #F5B829",
"4X c #F3A836",
"5X c #F6B838",
"6X c #EEA429",
"7X c #F6C715",
"8X c #F7C00C",
"9X c #F5C52A",
"0X c #F7C637",
"qX c #F8D22F",
"wX c #E78746",
"eX c #ED9948",
"rX c #F29E46",
"tX c #EEA444",
"yX c #F2A848",
"uX c #F7BA47",
"iX c #F7BB57",
"pX c #F5AF50",
"aX c #F9C444",
"sX c #F9C54C",
"dX c #FACB4B",
"fX c #F8C845",
"gX c #FBD24C",
"hX c #FAD245",
"jX c #FBCC59",
"kX c #FCD354",
"lX c #FAD35D",
"zX c #F7D65F",
"xX c #FBD563",
"cX c #FBD66B",
"vX c #FAD96C",
"bX c #F8D867",
"nX c #FADA73",
"mX c #FADC7C",
"MX c #F8D874",
"NX c #FECE63",
"BX c #FAE275",
"VX c #FADD83",
"CX c #F8DE89",
"ZX c #FBDF92",
"AX c #FCE18B",
"SX c #FAE183",
"DX c #FCE394",
"FX c #FDE49C",
"GX c #FDE5A3",
"HX c #FDE7AD",
"JX c #FDE8AB",
"KX c #FDE6B2",
"LX c #FDE8B3",
/* pixels */
"                                                                                                                                    ",
"                                                                                          <                                         ",
"                                                                                          ,                                         ",
"                                                  <                                                                                 ",
"                                                  <         N c g m V                                                               ",
"                                        X X             C b x x v v g C                                                             ",
"                          X o . o O   + . . $     6 2 N v J L L J E L v V                                                           ",
"                          . . . @ % 4 * # @ % s b g f h J K U Y U =.U K c C                   X . +                                 ",
"                          X O % = j D 0 9 8 8 9 D x j j U Y ) ) ) j.Y P J c g g g C n 6       X o +                                 ",
"                          $ * j 0 e r ^ e i F D G z G K Y _ ' [ _ E.} Y K v c g g g h h f V 6                                       ",
"                          m D e ^ ^ e a F L J G G G H Y _ [ O.O.X.wX..Y P z c c g g g g g g f C     A C                             ",
"                        m D e / / r i P H J J J K K Q ..p.b.b.b.>.eXX.) U J v l l c c g g g g c J K K J c C                         ",
"                        D r ^ / w P | g.u.Q K K U { i.n.K.I.I.I.-XuXn.i.I J J v v v z z l c c J U Y Y U H J C                       ",
"                      j w / ^ e D Q h.H.U.u.U U } f.S.I.9.8.7.7.K.sX;X8.g.Q K K U Q } } Q H G Y _ _ _ ) I K S                       ",
"                    C D / ^ e F v Q F.;XT.k.W { p.m.b.a.a.b.m.b.C.iX3.S.N.g.{ ..s.d.d.d.d.s...{ O.@.] _ I U v                       ",
"                    c w / e F J J u h.L.F.| ) X.p.p.p.c.m.m.N.B.J.jXP.n.B.v.x.x.c.x.x.x.$.$.d.f.V.&.#.] ( Y L l f                   ",
"          < <     C D r / u J J K H P W W ( _ o.d.x.c.b.n.N.G.S.L.jX,XF.M.m.b.n.<.<.,.z.p.f.Z.W.x.#.#.] ( T T w 0 k g               ",
"              < 1 3 9 e e G R H K U Y Y ( _ O.o.l.z.n.8.9.w.K.K.P.NX<XK.8.0.0.r.4.4.4.0.9.,XeXh.$.%.] O.s. .I i e w k g             ",
"      o o X       3 8 9 D J H Q j.|  .s.p.d.o.p.2.8.y.^././.{.}.-XxXtXt.y.6.6.^.{..X>X>X4XyXP.:.$.O.` M.H.N.g.P w e w k m           ",
"    o o . o X     g q q j l G } g.Z.Y.J.b.x.x.,.0.5./.(.).).oXoX%XxXuX[.6.6.6.!.!./.2X5XaX4Xr.1.p.X.*.L.;XR.h.Q G w / w k B         ",
"    o . o o X     j u F x G { s.>.K.P.,XY.h.h.7.5./.(.).oXOXOXOX3XvXsXXX!.!.~.~.XX6X5XaX4X2X.X4.,.o.` F.T.R.f.Q J L e / w b         ",
"          , 2 f g z D D J W p.7.w.w.n.F.Y.eX<X}./.(.).oXOX@X@X*X9XnXkX$X_.(._. X5XsXsX2XXX{..X{.0.l.[ X.f.g...U K J F e e D V       ",
"          V g c l G L L Q i.8.r.e.<.z.z.F.,XtX5X3X%X#XOX@X@X8X7X0XmXxX5X#X#X2X5XlXlX5X X!.!.{.|.4.,.O.O.X...) U U J D w r u g       ",
"        n g l v J K K U  .n.t.[.7.z.c.m.b.J.-XuXdXfX5X3X*X7X7X7XhXVXvXdX3X5XsXcXvXaX%X_.~.!.!.{.4.8.o.$.$.O.} I P E E P e 0 c       ",
"      f g l v J K U U { a.t.[.w.>.c.v.m.B.S.e.:XuXlXlXdX0XqXqXqXkXCXnXkXgXlXnXmXxX3XoX(.~.!.!.!.6.0.p.d.p.f.k.j.j.=.E H w 0 c       ",
"    V g c v J K U Y ) X.8.}.[.7.a.v.m.M.N.S.y.^.2XsXcXvXxXkXgXhXlXDXnXlXlXmXCXnXgX3XoX).(.~.!.6.5.w.C.U.Y.Y.Y.Z.j.=.H D u p c       ",
"    f d l J K U Y ) _ p.w.}.t.:.x.v.n.S.H.D.y.^._.3XlXnXmXnXbXkXxXGXSXMXmXDXVXlXgX0X*X&X$X X.X>X>X4XeXeXeXW.Z.f.| U L k 9 9 3 2     ",
"    g c v J U Y ) _ [ a.e.}.w.p.v.b.w.].].}.t.[./.%XfXbXVXDXCXnXmXJXFXDXGXDXvXkXkXgXdXaXaXsXsXdXsXuXrXY.h.p.o.X.} J j t = * % $     ",
"  V g l v K U Y _ [ ] z.t.}.7.d.z.0.{.+X@X*X|.}.|.2XfXkXvXFXJXGXGXJXHXHXHXAXvXxXbXcXvXvXvXcXjXuX4XP.h.a.d.X. .} P j = * * % 1       ",
"  Z g l v K Y ) _ ] @.l.e.}.<.d.z.y.'.@X7X7X2X>X4XaXkXlXcXZXLXKXKXHXLXLXKXGXDXAXAXVXmXnXlXfX4X}.w.S.N.c.s.{ W W | Q J = & O +       ",
"    g c v K Y ) _ ] @.x.w.}.S.a.M.}.#X3X9XqXhXjXlXlXbXMXVXFXLXKXKXHXKXKXKXKXJXFXAXnXlXdX5X X~.5.q.G.N.m.x.d.d.o.$.O.H * O . . X     ",
"    N c v K U ) _ ' O.a.3.:X-X,XeXuXsXkXlXxXvXnXVXAXDXFXGXJXLXLXKXKXKXKXKXHXDXnXlXkXhX3X#X'._.!.r.S.N.b.z.d.$.x.x.O.P - # @ @       ",
"    Z g v G U Q +.Q.E.W.wXtXtXeXeXyXyXpXiXjXjXxXxXcXnXmXSXDXJXLXJXJXKXKXKXJXCXbXkXhX9X*XOXoX(.~.5.9.N.b.c.d.$.d.d.o.O.) K v g 6     ",
"      N x G K U I ( ....d.h.L.g.a.b.M.N.F.K.}.|. X%X3XdXzXmXGXLXLXHXHXKXKXKXGXAXnXxXhX9X*XOX).(.^.4.<.b.c.d.o.o.d.o.[ _ Y K s @ +   ",
"        C c J K U U K F u i g.f.d.v.m.B.N.9.^.(.).oX3XlXmXDXGXKXKXKXKXHXHXJXDXmXnXvXxXkXhX3X=XXX|.6.8.B.b.x.x.o.$.%.] _ Y K s % $   ",
"          6 4 = - - t j H } d.d.x.v.b.b.B.9.^._.#X3XjXmXAXVXCXGXHXHXKXFXDXDXnXlXlXlXkXkXgXdXaX0X5X{.w.J.M.c.l.l.$.@.] _ Y U z f 6   ",
"    , $ $ > 1 3 4 s t k K I X.d.d.x.c.m.m.9.[.2XuXlXnXMXcXlXvXDXGXFXHXCXMXVXnXlXkXgXhX0X3X3X2X2X3X|.1XT.F.N.z.x.O.] [ _ Y K v g Z   ",
"  $ > ,       2 3 s l J K P ( X.o.x.x.c.b.J.>XsXlXlXjXdXfXkXvXDXVXMXFXCXxXbXvXxXkX0X3X*XOXoX X2X.X4.;XL.F.G.n.z.O.' ) Y U G x N     ",
"        , ,   2 6 g v J H U Y X.o.x.d.a.U.tXiXdXaX3X%X%X3XdXcXAXbXlXVXCXlXaXsXlXkX0X*XOXoX`.$X2X/.5.I.K.F.S.D.z.X.( Y U J v g 6     ",
"                C c l v J K U  .+.g.h.Y.eXrX<X6X2X$X`.`.&XfXvXmXkXkXcXSXlX4X6X5XdXfX%X`.'.#X&X|.5.r.I.D.G.9.w.z.X.{ K J v g V       ",
"                C g l v J K K z t t A.wX,XY.K.]..X&X#X`.#XaXvXxX0X0XjXBXlX<X-X:X5XaX3X X X X|.^.5.t.L.S.G.J.C.g. .Q z b N           ",
"                  g l v v J J - O O ;.h.M.N.S.w.[..X$X#X2XsXbXuX&X%XaXbXxX<XP.e.-X4X5X$X{.[.4.y.w.I.H.S.n.C.;.; t s d N             ",
"                  V g l v R ! ; O @ y g.m.m.N.S.q.r.{. X2XdXjX2X'._.>XjXlX6X:X-Xe.-X4X4Xr.0.8.S.S.G.G.B.8.P.: O O % 4 V             ",
"                    B c M ! -.g = t E | f.m.N.N.G.D.w.[.:XdXuX{.^.y.K.pXjX3X*X&Xe.J.Y.<XP.b.b.B.B.m.m.n.q.K.y % @ * 4 C             ",
"                      S R R G G z d = H s.v.v.m.M.N.S.D.<XiX1Xq.8.n.m.,XsX9X*X*X[.n.M.Y.Y.h.c.c.v.c.b.S.D.b.u.v 4 4 f               ",
"                      A U I ) j @ O @ H s.x.v.v.m.m.N.U.<XyXF.B.m.c.v.C.uX2X#X|.9.b.v.b.Z.U.c.b.B.M.n.S.h. .| R g g g               ",
"                      ! ) ' ' - . . * } x.x.x.c.c.v.m.U.eX,Xn.b.c.l.x.h.yX-XK.8.b.x.x.d.M.Y.J.H.;XT.G.g.Q G j h g g g               ",
"                    A U _ ] @.8 @ # d | o.$.$.d.x.x.a.A.rXP.H.H.m.z.x.p.wXZ.f.l.x.d.a.,.S.L.Y.;X;XT.F.u.G d ; ; 4 f V               ",
"                    ! Y _ ] #.' 9 L z E | X.o.o.d.d.f.Y.rXI.;X;XT.D.n.>.Y.C.:.:.,.<.9.I.D.n.F.1X;XR.F.=.l g g 4 * 7 2               ",
"                    A U ) ' ] @.[ _ J j z U Q .. . .k.Y.1X;X1X>X;XK.D.I.-X-Xe.e.t.}.e.7.:.i.u.Z.H.F.k.R c g g g f 2 > <             ",
"                    S K I ( ) ` ` ` k j l v J G K U j.Y.K.L.P.;XI.R.a.>.S.I.K.3.C.8.,.p.| P z G =.Q G c g g g g h                   ",
"                      c H T I I T a 9 j j l v v J J =.Y.F.G.C.I.R.F.W } u.g.u.; y | | Q J l c c c c g g g g g g n                   ",
"                        C c S A v 8 9 u k b x v v R =.k.m.h.g.F.F.k.J v G G b & # s v l c g g g g g g g g g g f                     ",
"                                6 - q e w 0 k l c A -.E | u.=.h.g.E l l c c h & O % h g g g g g g g g g g g f % +                   ",
"                                1 3 j p e e w 0 D R ! z G G z E G l d g g g g % O & 4 g g g g g g g g d g 5 % O .                   ",
"                                    5 j D w e e e T T F D 8 s s c g g g g d g 4 & @ ; g g g g g g g d h 3 & O o o                   ",
"                              ,     @ * h b D 0 i i u D j = 5 3     V N 4 4 g g 3 3 4 g g g g g g g g n $ O o o                     ",
"                              ,     . O     g c c c c g 4 * 6 2         & % s g h h g g g g g g B                                   ",
"                                    X                     1             X $   n n g g N N n                                         ",
"                                                          <   1                                                                     ",
"                                                          ,   <                                                                     ",
"                                                          ,   <                                                                     ",
"                                                        < ,                                                                         ",
"                                                        <                                                                           ",
"                                                                                                                                    ",
"                                                                                                                                    "
};

