/* XPM */
static char *miss_xpm[] = {
/* columns rows colors chars-per-pixel */
"66 66 10 1 ",
"  c #fffffa",
". c #FBFBFC",
"X c #FBFCFC",
"o c #FBFCFC",
"O c #FCFCFD",
"+ c #FCFDFD",
"@ c #FDFDFD",
"# c #FDFDFE",
"$ c #FEFEFE",
"% c #ffffff",
/* pixels */
"                                                                  ",
"                                                                  ",
"                                                                  ",
"                                                                  ",
"                                                                  ",
"                                                                  ",
"                                                                  ",
"                                                                  ",
"                                                                  ",
"                                                                  ",
"                                                                  ",
"              %%%                                 %%              ",
"             %%%%                                %%%%             ",
"            %%%%%%%                             %%%%%%            ",
"           %%%%%%%%                            %%%%%%%%           ",
"           %%%%%%%%%%                         %%%%%%%%%           ",
"           %%%%%%%%%%                        %%%%%%%%%            ",
"             %%%%%%%%%%                     %%%%%%%%%             ",
"             X%%%%%%%%%                    %%%%%%%%%              ",
"               %%%%%%%%%%                 %%%%%%%%%               ",
"               X%%%%%%%%%                %%%%%%%%%                ",
"                 %%%%%%%%%%             %%%%%%%%%                 ",
"                 X%%%%%%%%%            %%%%%%%%%                  ",
"                   %%%%%%%%%%         %%%%%%%%%                   ",
"                   X%%%%%%%%%        %%%%%%%%%                    ",
"                     %%%%%%%%%%     %%%%%%%%%                     ",
"                     %%%%%%%%%%    %%%%%%%%%                      ",
"                       %%%%%%%%%%%%%%%%%%%%                       ",
"                       .%%%%%%%%%%%%%%%%%%                        ",
"                         %%%%%%%%%%%%%%%%                         ",
"                         X%%%%%%%%%%%%%%                          ",
"                           %%%%%%%%%%%%                           ",
"                           %%%%%%%%%%%%                           ",
"                           %%%%%%%%%%%%                           ",
"                           %%%%%%%%%%%%                           ",
"                          %%%%%%%%%%%%%%%                         ",
"                         %%%%%%%%%%%%%%%%                         ",
"                        %%%%%%%%%%%%%%%%%%%                       ",
"                       %%%%%%%%%%%%%%%%%%%%                       ",
"                      %%%%%%%%%    %%%%%%%%%%                     ",
"                     %%%%%%%%%     X%%%%%%%%%                     ",
"                    %%%%%%%%%        %%%%%%%%%%                   ",
"                   %%%%%%%%%         %%%%%%%%%%                   ",
"                  %%%%%%%%%            %%%%%%%%%%                 ",
"                 %%%%%%%%%             X%%%%%%%%%                 ",
"                %%%%%%%%%                %%%%%%%%%%               ",
"               %%%%%%%%%                 X%%%%%%%%%               ",
"              %%%%%%%%%                    %%%%%%%%%%             ",
"             %%%%%%%%%                     %%%%%%%%%%             ",
"            %%%%%%%%%                        %%%%%%%%%            ",
"           %%%%%%%%%                         %%%%%%%%%%           ",
"           %%%%%%%%                            %%%%%%%%           ",
"            %%%%%%                             %%%%%%%            ",
"             %%%%                                %%%%             ",
"              %%                                 X%%              ",
"                                                                  ",
"                                                                  ",
"                                                                  ",
"                                                                  ",
"                                                                  ",
"                                                                  ",
"                                                                  ",
"                                                                  ",
"                                                                  ",
"                                                                  ",
"                                                                  "
};

