/* XPM */
static char * myTurn_xpm[] = {
"205 56 3 1",
" 	c #fffffa",
".	c #FEFEFE",
"+	c #FFFFFF",
"                                                                                                                                                                                                             ",
"                                                                                                                                                                                                             ",
"                                                                                                                                                                                                             ",
"                                                                                                                                                                                                             ",
"                                                                                                                                                                                                             ",
"                                                                                                                                                                                                             ",
"                                                                                                                                                                                                             ",
"                                                                                                                                                                                                             ",
"                                                                                                                                                                                                             ",
"                                                                                                                                                                                                             ",
"                                                                                                                                                                                                             ",
"                                                                                                                                                                                                             ",
"                                                                                                                                                                                                             ",
"                                                                                                                                                                                                             ",
"                                                                                                                                                                                                             ",
".++++++++.          .++++++++                                                                                .++++++++++++++++++++++++                                                                       ",
" .++++++++.         ++++++++.                                                                                .++++++++++++++++++++++++                                                                       ",
"  +++++++++        .+++++++.                                                                                 .++++++++++++++++++++++++                                                                       ",
"  .++++++++.       ++++++++.                                                                                 .++++++++++++++++++++++++                                                                       ",
"   .++++++++      .+++++++.                                                                                  .++++++++++++++++++++++++                                                                       ",
"   .++++++++.    .++++++++           ...+.                                                    ..             .++++++++++++++++++++++++                                          ..                ....       ",
"    .+++++++++   .+++++++.       ..+++++++++.         ++++++++.     .++++++++    ++++++++  ..+++             .........++++++++........  ++++++++.     .++++++++    ++++++++  ..+++   ++++++++  ++++++++..    ",
"     +++++++++  .+++++++.      ..+++++++++++++.       ++++++++.     .++++++++    ++++++++..+++++                     .++++++++          ++++++++.     .++++++++    ++++++++..+++++   ++++++++..++++++++++.   ",
"     .++++++++. ++++++++.     .++++++++++++++++.      ++++++++.     .++++++++    +++++++++++++++                     .++++++++          ++++++++.     .++++++++    +++++++++++++++   +++++++++++++++++++++.  ",
"      +++++++++.+++++++.     .++++++++++++++++++.     ++++++++.     .++++++++    +++++++++++++++                     .++++++++          ++++++++.     .++++++++    +++++++++++++++   ++++++++++++++++++++++  ",
"      +++++++++++++++++     .++++++++++++++++++++.    ++++++++.     .++++++++    +++++++++++++++                     .++++++++          ++++++++.     .++++++++    +++++++++++++++   ++++++++++++++++++++++. ",
"       .++++++++++++++.     .+++++++++++++++++++++.   ++++++++.     .++++++++    +++++++++++++++                     .++++++++          ++++++++.     .++++++++    +++++++++++++++   +++++++++++++++++++++++ ",
"        +++++++++++++.     .+++++++++.   .++++++++.   ++++++++.     .++++++++    ++++++++++++...                     .++++++++          ++++++++.     .++++++++    ++++++++++++...   ++++++++++.+..+++++++++ ",
"        .++++++++++++.     .++++++++.     .++++++++   ++++++++.     .++++++++    ++++++++++.                         .++++++++          ++++++++.     .++++++++    ++++++++++.       +++++++++.    .++++++++ ",
"         +++++++++++.      ++++++++.      .++++++++   ++++++++.     .++++++++    +++++++++.                          .++++++++          ++++++++.     .++++++++    +++++++++.        +++++++++     .++++++++ ",
"         .++++++++++       ++++++++.       ++++++++.  ++++++++.     .++++++++    ++++++++.                           .++++++++          ++++++++.     .++++++++    ++++++++.         ++++++++.      +++++++++",
"          .+++++++++       ++++++++.       ++++++++.  ++++++++.     .++++++++    ++++++++.                           .++++++++          ++++++++.     .++++++++    ++++++++.         ++++++++.      +++++++++",
"          +++++++++        ++++++++.       ++++++++.  ++++++++.     .++++++++    ++++++++.                           .++++++++          ++++++++.     .++++++++    ++++++++.         ++++++++.      +++++++++",
"          +++++++++        .++++++++      .++++++++   ++++++++.     .++++++++    ++++++++.                           .++++++++          ++++++++.     .++++++++    ++++++++.         ++++++++.      +++++++++",
"          +++++++++        .++++++++.     +++++++++   .++++++++.   .+++++++++    ++++++++.                           .++++++++          .++++++++.   .+++++++++    ++++++++.         ++++++++.      +++++++++",
"          +++++++++         +++++++++....+++++++++.   .++++++++++++++++++++++    ++++++++.                           .++++++++          .++++++++++++++++++++++    ++++++++.         ++++++++.      +++++++++",
"          +++++++++         .+++++++++++++++++++++    .++++++++++++++++++++++    ++++++++.                           .++++++++          .++++++++++++++++++++++    ++++++++.         ++++++++.      +++++++++",
"          +++++++++          .+++++++++++++++++++.     ++++++++++++++++++++++    ++++++++.                           .++++++++           ++++++++++++++++++++++    ++++++++.         ++++++++.      +++++++++",
"          +++++++++           ++++++++++++++++++.      .+++++++++++++++++++++    ++++++++.                           .++++++++           .+++++++++++++++++++++    ++++++++.         ++++++++.      +++++++++",
"          +++++++++            .+++++++++++++++.        .++++++++++++++++++++    ++++++++.                           .++++++++            .++++++++++++++++++++    ++++++++.         ++++++++.      +++++++++",
"          +++++++++             +++++++++++++.           .+++++++++. ++++++++    ++++++++.                           .++++++++             .+++++++++. ++++++++    ++++++++.         ++++++++.      +++++++++",
"          +++++++++               ..++++++..               .+++++.+  ++++++++    ++++++++.                           .++++++++               .+++++.+  ++++++++    ++++++++.         ++++++++.      +++++++++",
"                                                                                                                                                                                                             ",
"                                                                                                                                                                                                             ",
"                                                                                                                                                                                                             ",
"                                                                                                                                                                                                             ",
"                                                                                                                                                                                                             ",
"                                                                                                                                                                                                             ",
"                                                                                                                                                                                                             ",
"                                                                                                                                                                                                             ",
"                                                                                                                                                                                                             ",
"                                                                                                                                                                                                             ",
"                                                                                                                                                                                                             ",
"                                                                                                                                                                                                             ",
"                                                                                                                                                                                                             ",
"                                                                                                                                                                                                             "};
