/* XPM */
static char * player2_xpm[] = {
"141 56 16 1",
" 	c #fffffa",
".	c #C9DAF8",
"+	c #C8D9F8",
"@	c #C9D9F8",
"#	c #C7D9F7",
"$	c #C8DAF8",
"%	c #C7DAF7",
"&	c #C8D9F7",
"*	c #C9DAF7",
"=	c #C8DAF7",
"-	c #C9D9F7",
";	c #C7D8F7",
">	c #C8D8F7",
",	c #C8D9F6",
"'	c #C7D9F6",
")	c #C9D9F6",
"                                                                                                                                             ",
"                                                                                                                                             ",
"                                                                                                                                             ",
"                                                                                                                                             ",
"                                                                                                                                             ",
"                                                                                                                                             ",
"                                                                                                                                             ",
"                                                                                                                                             ",
"                                                                                                                                             ",
"                                                                                                                                             ",
"                                                                                                                                             ",
"                                                                                                                                             ",
"                                                                                                                                             ",
"                                                                                                                                             ",
"                                                                                                                                             ",
"                        .......                                                                                                   +@+        ",
"............#$          .......                                                                                               %&.......**    ",
"...............=&       .......                                                                                             .............-   ",
".................=      .......                                                                                            =...............  ",
"..................=     .......                                                                                           &................& ",
"...................*    .......                                                                                           ..................+",
"......=++#=........&    .......      -$.......-+      .......       *......;     =.......*         ......+  &..@           >.....@=+@.......-",
"......-     &.......    .......    &.............@    &......+      +.....&     &..........#       ......&@....@             >.-     &.......",
"......-     =.......    .......    &..............&    .......      ......&   &..............      ............@                     &......-",
"......-      .......*   .......    -...............    &......*    -......   &...............&     ............@                     .......&",
"......-      .......    .......     ,..............&   +.......    &.....&   &......&+&&......-    ............@                    '....... ",
"......-     #.......    .......     ;.+     &.......    .......    ......=  &......&    &......    ............@                   %.......& ",
"......&>>-=&.......-    .......              .......    @......*  -.....&   &......      ......@   ........+                      +.......&  ",
"...................)    .......        -&&&&$.......     ......*  ......-   .......@@@@@&......+   .......&                      ,........   ",
"..................-     .......     %...............-    #...... -......    ...................=   .......                      -........    ",
".................&      .......    &................-    ;......+*.....&    ...................=   .......                     ........*     ",
"................+       .......   &.......---.......-     &............$    .......=&&&&&&&&&&&>   .......                    =.......&      ",
".............,&         .......   .......    &......-     -...........-     ,......*               .......                   &.......,       ",
"......=                 .......   ......&    .......-      ...........&     +.......+    -.+       .......                  &................",
"......-                 .......   .......>  &.......-      -..........       &..............+      .......                 &.................",
"......-                 .......   =.................-       .........-        ...............+     .......                 ..................",
"......-                 .......    ..........&......-       &........          ...............     .......                 ..................",
"......-                 .......    =........@&......-       +.......*           +...........&      .......                 ..................",
"......-                 .......      &....&%  ......-        .......&             +=......&        .......                 ..................",
"                                                        +    .......                                                                         ",
"                                                        -..........,                                                                         ",
"                                                       +...........                                                                          ",
"                                                       =..........@                                                                          ",
"                                                      ...........&                                                                           ",
"                                                       +.......-                                                                             ",
"                                                         -&&-.                                                                               ",
"                                                                                                                                             ",
"                                                                                                                                             ",
"                                                                                                                                             ",
"                                                                                                                                             ",
"                                                                                                                                             ",
"                                                                                                                                             ",
"                                                                                                                                             ",
"                                                                                                                                             ",
"                                                                                                                                             ",
"                                                                                                                                             "};
