/* XPM */
static char *small_miss_xpm[] = {
/* columns rows colors chars-per-pixel */
"33 33 5 1 ",
"  c #fffffa",
". c #FDFDFE",
"X c #FDFEFE",
"o c #FEFEFE",
"O c #ffffff",
/* pixels */
"                                 ",
"                                 ",
"                                 ",
"                                 ",
"                                 ",
"                                 ",
"      OOOO              OOO      ",
"      OOOO             OOOO      ",
"      OOOOOO         OOOOOO      ",
"      OOOOOOO       OOOOOO       ",
"        OOOOO       OOOOO        ",
"        OOOOOOO    OOOOOO        ",
"         OOOOOOO  OOOOOO         ",
"           OOOOOOOOOOO           ",
"           OOOOOOOOOO            ",
"            OOOOOOOO             ",
"             OOOOOOO             ",
"             OOOOOOOO            ",
"            OOOOOOOOOO           ",
"           OOOOOOOOOOO           ",
"         OOOOOO  OOOOOOO         ",
"        OOOOOO    OOOOOOO        ",
"        OOOOO       OOOOO        ",
"       OOOOOO       OOOOOOO      ",
"      OOOOOO         OOOOOO      ",
"      OOOO             OOOO      ",
"      OOO              OOOO      ",
"                                 ",
"                                 ",
"                                 ",
"                                 ",
"                                 ",
"                                 "
};

