/* XPM */
static char *small_explosion_xpm[] = {
/* columns rows colors chars-per-pixel */
"33 33 212 2 ",
"   c #fffffa",
".  c #270A09",
"X  c #2B0B0B",
"o  c #2A0607",
"O  c #390B0B",
"+  c #3D100F",
"@  c #341113",
"#  c #420B0C",
"$  c #450B0B",
"%  c #451111",
"&  c #5D1513",
"*  c #531213",
"=  c #681E0F",
"-  c #651A19",
";  c #701B1C",
":  c #4A1E21",
">  c #511F21",
",  c #5A2827",
"<  c #4B282B",
"1  c #622424",
"2  c #722222",
"3  c #7D2423",
"4  c #762B2B",
"5  c #7D2A28",
"6  c #841D1B",
"7  c #9C1D1C",
"8  c #AD1E1E",
"9  c #A61B1A",
"0  c #B41C1A",
"q  c #B91C1C",
"w  c #83211C",
"e  c #90211E",
"r  c #A6201F",
"t  c #B5211E",
"y  c #AD1F23",
"u  c #812624",
"i  c #842B2B",
"p  c #8C2C2B",
"a  c #882825",
"s  c #942424",
"d  c #9B2624",
"f  c #942A25",
"g  c #9B2B26",
"h  c #942A2A",
"j  c #9C2B2A",
"k  c #85302F",
"l  c #9E322D",
"z  c #94332C",
"x  c #882F34",
"c  c #9E2E30",
"v  c #853132",
"b  c #8D3131",
"n  c #963232",
"m  c #AB2423",
"M  c #A32C24",
"N  c #A92C25",
"B  c #A42A2A",
"V  c #AC2B29",
"C  c #A22627",
"Z  c #B22723",
"A  c #BB2C26",
"S  c #B32A29",
"D  c #BC2A29",
"F  c #B92824",
"G  c #AC3127",
"H  c #AA3429",
"J  c #B33526",
"K  c #BA3327",
"L  c #B1342A",
"P  c #B7352A",
"I  c #A52F33",
"U  c #AF3134",
"Y  c #C31715",
"T  c #C01718",
"R  c #C32A2A",
"E  c #CB2A2A",
"W  c #C12724",
"Q  c #D22A29",
"!  c #DD2B2A",
"~  c #DE272C",
"^  c #C33325",
"/  c #C53429",
"(  c #CB3428",
")  c #C53B2B",
"_  c #D63E26",
"`  c #D33C29",
"'  c #DD3C2A",
"]  c #D73627",
"[  c #C93A31",
"{  c #E3382A",
"}  c #AE481D",
"|  c #BB511F",
" . c #BD4C32",
".. c #B6482C",
"X. c #E44E1D",
"o. c #E85E1D",
"O. c #EE760E",
"+. c #F17A0C",
"@. c #F47E05",
"#. c #E6631D",
"$. c #E96419",
"%. c #EB6C1E",
"&. c #E96917",
"*. c #EC721D",
"=. c #ED7C1B",
"-. c #ED7717",
";. c #F37917",
":. c #CE4424",
">. c #CC4B2C",
",. c #C74D26",
"<. c #DC4927",
"1. c #DC422A",
"2. c #D74929",
"3. c #DF5524",
"4. c #DC562A",
"5. c #DD5A2F",
"6. c #D95728",
"7. c #D64F35",
"8. c #DB5F34",
"9. c #CD4936",
"0. c #E04526",
"q. c #E24B26",
"w. c #E14429",
"e. c #E34C29",
"r. c #E65B24",
"t. c #E95E22",
"y. c #E5532A",
"u. c #E35B2B",
"i. c #E75926",
"p. c #DD612F",
"a. c #D76234",
"s. c #C66635",
"d. c #E56423",
"f. c #EA6424",
"g. c #E56D23",
"h. c #ED6C23",
"j. c #E4622C",
"k. c #E9632A",
"l. c #E46B2B",
"z. c #EC6D2A",
"x. c #E97722",
"c. c #EE742C",
"v. c #E87828",
"b. c #F17C2B",
"n. c #F17526",
"m. c #E26A33",
"M. c #E26A38",
"N. c #E67939",
"B. c #E57736",
"V. c #F3840E",
"C. c #F38B0B",
"Z. c #F38705",
"A. c #F59E0B",
"S. c #F49608",
"D. c #EF8419",
"F. c #F48A13",
"G. c #F08714",
"H. c #F39514",
"J. c #F49C1B",
"K. c #F2961B",
"L. c #F4AA0A",
"P. c #F5B70D",
"I. c #F3A314",
"U. c #F4A41B",
"Y. c #F5AC16",
"T. c #F5B71A",
"R. c #EC8325",
"E. c #F8872D",
"W. c #F29828",
"Q. c #EB893B",
"!. c #F08932",
"~. c #ED9338",
"^. c #F19A36",
"/. c #F5AC24",
"(. c #F3A729",
"). c #F4B32B",
"_. c #F4AC3C",
"`. c #F4A837",
"'. c #F6B232",
"]. c #F7BC32",
"[. c #F5B33D",
"{. c #F6BA3A",
"}. c #F5C612",
"|. c #F6C32C",
" X c #FAD339",
".X c #EC9343",
"XX c #F09442",
"oX c #F2A445",
"OX c #F6BC43",
"+X c #F7B948",
"@X c #F7C443",
"#X c #FACC46",
"$X c #F9CB49",
"%X c #F9C54D",
"&X c #FBD14B",
"*X c #F9CC56",
"=X c #FBD353",
"-X c #FAD35C",
";X c #F7D059",
":X c #FAD462",
">X c #FAD86C",
",X c #FAD866",
"<X c #FBDA74",
"1X c #FADC7C",
"2X c #FBDC82",
"3X c #FBDF8B",
"4X c #FAE087",
"5X c #FBE296",
"6X c #FBE4A2",
"7X c #FDE6AC",
"8X c #FEE8AF",
"9X c #FDE6B1",
/* pixels */
"                                                                  ",
"                                                                  ",
"                              h h x                               ",
"              o # - # - p i B S L B b           X                 ",
"              - 7 0 9 7 C d D E 9.A B p p i v   @                 ",
"            h 0 Y t V B B K _ 0.M.( V h h p p p I c b             ",
"            0 Y Z 4.>.S / r.h.*.^.d.K B V G B B R R V             ",
"          d T m G z.5./ <.q.y.y..Xg.y.` 1.w.1.` { ! D j           ",
"        4 8 t B V A ^ ] 0.i.f.h.oXB.t.$.&.$.j.M.{ ! ( t 8 h       ",
"  . o   5 7 d L >.4.0.0.&.V.S.H.+XW.+.@.F.(.[.#.' 2.z.) t 0 p     ",
"  . @ 1 f m N 2.%.l.N.x.C.A.L.P.$X'.Z.C.(.{.J.F.X._ j.) B q 8     ",
"    k h B V :.-.#.q.l._.{.T.P.}.-X*X/.@X;XU.Z.C.&.' ] A V m 0     ",
"  p h B S ^ %.-.q.y.k.D.OX-X#X X<X,X:X1X@XA.Z.Z.O.4.8.8. .N 8 p   ",
"  p j S R _ =.#.e.%.x.;.J.:X2X>X4X4X5X,X#X].'.'._..XM.2.P s 6 1   ",
"  h B D Q { =.y.o.A.T.W.(.&X2X7X7X9X6X1X<X<X-X[.R.y.` ^ J w *     ",
"  p B D Q ' =.l.!.].&X:X<X2X5X9X9X9X9X5X>X$XU.C.%.y.w.' ' e # O   ",
"  x j S [ 7.m.N.N.Q.XX_.OX;X1X7X8X9X9X3X-X|.L.S.+.r.w.' ' E V 2   ",
"    b s s d F 2.w.y.f.C.I.*X4X6X9X7X6X<X:X=X#X).H.f.y.w.{ Q S 3   ",
"  : > 1 3 d S ` w.e.t.(.*X:X;X1X3X5X>X,X&X|.Y./.K.b.k.q.] E S h   ",
"        p j V / 1.5..X[.).I.].<X-X1X%XOX$XY.A.U.+.n.k.t.( V j v   ",
"        p h B f & s.m.*.K.I.'.-X).-X+XR.`.(.H.V.;.z.d.} M h       ",
"          p I z - J y.i.%.G.[.'.C.`.OXJ.x.~.%.t.i.r.g.= * i       ",
"          n V M - w 1.y.i.k.oXz.r.j.{.Y.%.u.M.e.y.r.3.J a i       ",
"          U Q y O M 1.w.e.u.Q.k.q.<.Q.r.q.q.l.c.E.4.M u i v       ",
"          V Q ~ F g P ` ` p.!.E.b.d.v.#.%.*.3.p.c.>.p i 2 ,       ",
"          j F R W s h B V a.z.c.z.:.4.| ,.:.G g H h p p i         ",
"            n c a 9 r d l ..2.6.>.j g ; & h p p p p p 3           ",
"                  s 0 0 Z N d f h p p 3 $ u p p p a 2 O X         ",
"                  % i d M d 3 4   v - p 3 p p p p   + X           ",
"                            ,                                     ",
"                                                                  ",
"                            <                                     ",
"                                                                  "
};

