/* XPM */
static char *small_boat_2p_b_V_xpm[] = {
/* columns rows colors chars-per-pixel */
"33 66 212 2 ",
"   c #fffffa",
".  c #5F452F",
"X  c #4C4737",
"o  c #44453E",
"O  c #4C443B",
"+  c #5C4633",
"@  c #5F4B34",
"#  c #52453B",
"$  c #5B4B3C",
"%  c #52463A",
"&  c #644627",
"*  c #6D472D",
"=  c #6A492A",
"-  c #724A2A",
";  c #784F25",
":  c #634631",
">  c #6D4A32",
",  c #624C3C",
"<  c #664837",
"1  c #764D31",
"2  c #7F5E3E",
"3  c #3C4B4E",
"4  c #3C4948",
"5  c #3D524E",
"6  c #3D4D52",
"7  c #3B4F54",
"8  c #3D5255",
"9  c #3F535A",
"0  c #424542",
"q  c #4C4A42",
"w  c #434749",
"e  c #414A4D",
"r  c #494B4A",
"t  c #544D44",
"y  c #594A44",
"u  c #4C534E",
"i  c #45504C",
"p  c #535147",
"a  c #555149",
"s  c #585149",
"d  c #424E54",
"f  c #444E5D",
"g  c #425256",
"h  c #4B5455",
"j  c #43545A",
"k  c #4B555C",
"l  c #45595D",
"z  c #495A5D",
"x  c #435854",
"c  c #515A5C",
"v  c #525855",
"b  c #624540",
"n  c #4D645F",
"m  c #696252",
"M  c #756E5F",
"N  c #77754B",
"B  c #475C62",
"V  c #4C5D62",
"C  c #485966",
"Z  c #525E62",
"A  c #585E63",
"S  c #4D6264",
"D  c #4E636A",
"F  c #526365",
"G  c #546966",
"H  c #53656B",
"J  c #5A646D",
"K  c #556A6D",
"L  c #596A6D",
"P  c #586166",
"I  c #4B6A73",
"U  c #546671",
"Y  c #596771",
"T  c #556B72",
"R  c #5B6D74",
"E  c #5A6E7A",
"W  c #536B79",
"Q  c #5C7275",
"!  c #55727C",
"~  c #5D757A",
"^  c #577076",
"/  c #676C69",
"(  c #646B60",
")  c #626E77",
"_  c #617274",
"`  c #61747A",
"'  c #627A7E",
"]  c #697A7F",
"[  c #91541E",
"{  c #AD591D",
"}  c #B25C1F",
"|  c #BB5417",
" . c #B6641D",
".. c #B8641D",
"X. c #BA6316",
"o. c #824D2B",
"O. c #874C22",
"+. c #8A5122",
"@. c #8E542A",
"#. c #82512D",
"$. c #9D5B25",
"%. c #975E2B",
"&. c #9B5C29",
"*. c #985628",
"=. c #8F5F3E",
"-. c #A25622",
";. c #AB5B22",
":. c #A05E26",
">. c #B45D22",
",. c #996A3D",
"<. c #A96326",
"1. c #B36421",
"2. c #BC6424",
"3. c #B96821",
"4. c #DB6D0E",
"5. c #C3641C",
"6. c #C9671B",
"7. c #C46E1F",
"8. c #CC6B1B",
"9. c #C96914",
"0. c #DE6C19",
"q. c #D66A18",
"w. c #C9731F",
"e. c #DA7518",
"r. c #E7790E",
"t. c #E56F12",
"y. c #E47114",
"u. c #E57D14",
"i. c #EA7C14",
"p. c #E57D1B",
"a. c #E77719",
"s. c #F27116",
"d. c #F4650B",
"f. c #C26521",
"g. c #CC7021",
"h. c #D67923",
"j. c #D87522",
"k. c #80794A",
"l. c #81785E",
"z. c #6D827B",
"x. c #B5913F",
"c. c #DF841D",
"v. c #E5801C",
"b. c #E48211",
"n. c #DE8424",
"m. c #DD8B29",
"M. c #DF9229",
"N. c #CB8F3A",
"B. c #DE8E31",
"V. c #D98934",
"C. c #CC943F",
"Z. c #D69635",
"A. c #DD953C",
"S. c #D19C3B",
"D. c #DD9A3E",
"F. c #E28426",
"G. c #E38A25",
"H. c #E4862A",
"J. c #E48A2D",
"K. c #EA8A23",
"L. c #EB962E",
"P. c #E8982F",
"I. c #E38A32",
"U. c #EB9634",
"Y. c #EA9933",
"T. c #E1943C",
"R. c #E49A3A",
"E. c #E29233",
"W. c #F19433",
"Q. c #DCA237",
"!. c #928449",
"~. c #A48A46",
"^. c #BC8041",
"/. c #A89755",
"(. c #B6B67F",
"). c #B9B57E",
"_. c #B8AC66",
"`. c #C08A4E",
"'. c #C69845",
"]. c #D69B4D",
"[. c #DB9B42",
"{. c #C18952",
"}. c #C49752",
"|. c #DAA34B",
" X c #D1A04C",
".X c #CCA65B",
"XX c #C7AA59",
"oX c #D4A458",
"OX c #DEB054",
"+X c #CAB259",
"@X c #E5AE4A",
"#X c #E8AC4C",
"$X c #E8AE51",
"%X c #C6AB66",
"&X c #CBB375",
"*X c #647B82",
"=X c #697E84",
"-X c #6A8186",
";X c #6B8489",
":X c #6F8A8E",
">X c #67818A",
",X c #718285",
"<X c #71898E",
"1X c #718488",
"2X c #6F8B92",
"3X c #718B92",
"4X c #9DA784",
"5X c #AEB98A",
"6X c #B5B682",
"7X c #B8B680",
"8X c #B8B982",
"9X c #A4AB8C",
/* pixels */
"                                                                  ",
"                                                                  ",
"                            _.XX                                  ",
"                          %XE.r.D.                                ",
"                          T.s.d.a.].                              ",
"                        Q.r.q.| 0.v.+X                            ",
"                      oXi.q.+.& $.y.J.&X                          ",
"                    &XK.0.@.O 0 + ;.y.R.                          ",
"                    [.y.;.# 3 3 0 = 5.i. X                        ",
"                  XXc.5.: 4 8 z 3 o ; q.G./.                      ",
"                  Z.e.o.0 5 F K B 3 X -.a.C.                      ",
"                .Xv.{ % 3 V J Y U B 4 < f.G.~.                    ",
"                A.8.- 0 x J Y Y Y J i O @.h.C.                    ",
"              %Xn.-.% e G U D K L H z w + 3.J.~.                  ",
"              ].g.- w V ~ *XB G _ Q j C o [ e.'.                  ",
"              I.;.X 9 U *X3XS G ] 3XV C 3 & 9.B.k.                ",
"            |.j.O.4 B Y ` =XV J ' >XF Y h O $.F.~.                ",
"            T.f.. 5 H T R ` B Y ~ *XV Y Z 3 1 h.N.                ",
"            V.$.o l K Y ) ,XV R ` =XB Y H g + 3.B.N               ",
"          XXh.#.w S K R ` ,XB R ` -XB T K V O $.F.!.              ",
"          |.7.= g U Q Q R =X7 j J =Xz ~ R F r o.e.x.              ",
"          R.1.+ z R R l V =Xl H Q -X7 B ` L g > w.Z.              ",
"          J.<.% F _ l l Y -X' =X=X=XD g V _ z : 7.Y.              ",
"          H.$.# R F g K ' <X<X<X3X;X~ H g L H + ..U.              ",
"        6XH.$.t _ j V ~ <X3X3X3X2X3X;XR l B R <  .U.              ",
"        7XH.&.a R g H =X<X3X2X2X2X2X2X~ S j R ,  .U.              ",
"        7XH.&.s R g H -X3X3X2X2X2X2X2X' D j R ,  .U.              ",
"        7XH.&.a Q g H =X<X3X2X2X2X2X:X~ S j R ,  .U.              ",
"        ).H.&.a ` j V Q :X3X3X3X3X3X-XR l B R ,  .U.              ",
"        ).H.&.a Q F j K ' ;X<X<X<X;X~ F g R R ,  .U.              ",
"        7XH.&.a L ` l j K Q ' =X' R H g S ~ J ,  .U.              ",
"        6XJ.%.a K R ` l g B F H S l g Z Q T J ,  .L.              ",
"        5XV.%.t Y Y R ~ H l j j j B Y ` T T Y , <.R.              ",
"        9X{.=.a Y K K T ~ ~ ~ ~ Q ~ E R T T J s ,.}.              ",
"        z.l.m h Y K K Y T Y T R K L Y K K K H h M l._             ",
"        ! K V j H H H H H H H F H P H G S n S l R Y T             ",
"        ! W V 6 l j j g g g g g j h j j x g g j E W I             ",
"        ! T V B R R R R R R R R R Q ^ ! E R L z Q T I             ",
"        ! K B B ` ` ~ ` ` ` ` ` ~ ~ ~ ~ ~ ~ Q z Q K I             ",
"        ~ ( c j T K K K H H H H H H H J Y Y H z / / K             ",
"        4X^.2 u K H B d g g 8 g g 8 g g H K J s ,.`.              ",
"        7XH.&.p K V 6 g z z z V z l j 3 l K J ,  .U.              ",
"        (.H.$.p K z 6 V H Q F F L R S d d J J ,  .U.              ",
"        7XH.$.p K z 6 V _ 1XH F ] =XS g g J J ,  .U.              ",
"        7XH.$.p K z 6 F H H S S H K D g d K J ,  .U.              ",
"        7XH.&.p K z 6 H B 9 j j j j H g d K K ,  .U.              ",
"        (.H.&.p K z 6 H j Q ' *X' B S g d K J ,  .U.              ",
"        8XH.&.p K z 6 H l ;X:X3X3XH S g g J J ,  .U.              ",
"        8XH.$.p K z 6 H l ;X3X3X3XH S j g J J ,  .U.              ",
"        ).H.&.p K z 6 H B -X3X3X3XH S j f J H ,  .U.              ",
"        ).H.&.p K z d H l ;X3X3X3XD F j f J G , ..U.              ",
"        7XH.$.p K k d H l ;X2X3X3XH A j 9 K K , ..Y.              ",
"        6XH.&.t Y k d H l ;X:X3X2XF A x 8 H J ,  .P.              ",
"        6XH.&.a L k 6 H j ' -X-X-XV A g 8 H U y  .L.              ",
"        ).H.&.a L l 6 H z l V B B l P g 8 K T $  .W.              ",
"        ).F.:.t K z 3 l H V Z V S D V 3 g J D @ X.W.              ",
"          G.1.+ F G 8 3 6 d d d 6 8 7 3 Z Y c = 9.U.              ",
"          E.6.* h P G B B V V V B B n S J F q O.e.R.              ",
"          |.e.*.# u S J K Y Y K K K G G B d : >.p.S.              ",
"          %XF.q.*.@ r h c S S S F Z v u q > } y.B.                ",
"            .XF.0. .+.* $ # q t t y b - [ 5.t.K.'.                ",
"              oXI.u.4.6.} { { ;.;.>.2.6.4.b.M.'.                  ",
"                  oXA.m.n.u.r.r.r.u.p.J.A.S.                      ",
"                        +XOX$X#X@X@X'.                            ",
"                                                                  ",
"                                                                  "
};

