/* XPM */
static char *small_boat_3p_b_V_xpm[] = {
/* columns rows colors chars-per-pixel */
"33 99 218 2 ",
"   c #fffffa",
".  c #4B443A",
"X  c #42483E",
"o  c #5A4937",
"O  c #584638",
"+  c #574737",
"@  c #5B452D",
"#  c #6C4C2D",
"$  c #6E462F",
"%  c #724C2C",
"&  c #794E2A",
"*  c #674D36",
"=  c #6A4E35",
"-  c #674D39",
";  c #6A4D3A",
":  c #674735",
">  c #744B32",
",  c #7A4A32",
"<  c #675037",
"1  c #6D5339",
"2  c #65563E",
"3  c #725136",
"4  c #725138",
"5  c #7D5127",
"6  c #3F4646",
"7  c #3D4B4D",
"8  c #3E4949",
"9  c #3D4E52",
"0  c #364C53",
"q  c #3E5254",
"w  c #3E5359",
"e  c #4E4C42",
"r  c #424C4C",
"t  c #444745",
"y  c #534944",
"u  c #45534C",
"i  c #4B524D",
"p  c #5D5342",
"a  c #5B594C",
"s  c #424C53",
"d  c #4D4F53",
"f  c #445356",
"g  c #4A5454",
"h  c #4A5955",
"j  c #43555B",
"k  c #4C565A",
"l  c #46595D",
"z  c #4A5A5D",
"x  c #465A56",
"c  c #595651",
"v  c #535959",
"b  c #6A5543",
"n  c #4A645E",
"m  c #55625E",
"M  c #72634A",
"N  c #67675A",
"B  c #766858",
"V  c #465A62",
"C  c #4B5C63",
"Z  c #495963",
"A  c #545F62",
"S  c #525B65",
"D  c #4D6165",
"F  c #4F6369",
"G  c #4F6C6E",
"H  c #4C6A65",
"J  c #536265",
"K  c #596467",
"L  c #556B67",
"P  c #5B6964",
"I  c #52656A",
"U  c #5B666B",
"Y  c #556A6D",
"T  c #5A6A6D",
"R  c #57706E",
"E  c #4F6D73",
"W  c #4D6771",
"Q  c #546772",
"!  c #5A6673",
"~  c #556B71",
"^  c #5A6D73",
"/  c #536C7B",
"(  c #5A6D7A",
")  c #557174",
"_  c #5C7175",
"`  c #567179",
"'  c #5D7279",
"]  c #5C787A",
"[  c #6C6C64",
"{  c #616A6B",
"}  c #606966",
"|  c #6F7369",
" . c #6B7369",
".. c #757764",
"X. c #626E72",
"o. c #637375",
"O. c #62747B",
"+. c #64797E",
"@. c #6B7A7F",
"#. c #6A7074",
"$. c #A8581C",
"%. c #BD6A1F",
"&. c #844E2D",
"*. c #87532B",
"=. c #965424",
"-. c #9B5A25",
";. c #965528",
":. c #9A5F37",
">. c #AC5C25",
",. c #A45A26",
"<. c #946B38",
"1. c #A8672A",
"2. c #BE6B23",
"3. c #BE6928",
"4. c #B2702E",
"5. c #A26E3D",
"6. c #B76C31",
"7. c #B76F38",
"8. c #B2733B",
"9. c #C76916",
"0. c #CB6A16",
"q. c #C56719",
"w. c #C5691C",
"e. c #C9691A",
"r. c #CA6318",
"t. c #DA6B15",
"y. c #D36C1B",
"u. c #DC6C18",
"i. c #D16C14",
"p. c #DE7215",
"a. c #D5761E",
"s. c #EA690A",
"d. c #EF770F",
"f. c #E57415",
"g. c #EB7D1D",
"h. c #E77814",
"j. c #ED7110",
"k. c #C46522",
"l. c #C26921",
"z. c #CC6C20",
"x. c #CA7023",
"c. c #DD7C23",
"v. c #D27A25",
"b. c #D76D21",
"n. c #E17A23",
"m. c #9A6D41",
"M. c #99744B",
"N. c #8A7658",
"B. c #987E57",
"V. c #A0754A",
"C. c #817867",
"Z. c #63807E",
"A. c #78827E",
"S. c #7C8364",
"D. c #DF821C",
"F. c #E6811C",
"G. c #DD912D",
"H. c #CC893C",
"J. c #CC8734",
"K. c #D48634",
"L. c #DB8D34",
"P. c #D18638",
"I. c #DC8E3A",
"U. c #DB8730",
"Y. c #CB9739",
"T. c #D6923A",
"R. c #DD943B",
"E. c #DB9538",
"W. c #DA8029",
"Q. c #E58421",
"!. c #E48A28",
"~. c #E49334",
"^. c #EA9132",
"/. c #E49B3D",
"(. c #E8943A",
"). c #E0A03C",
"_. c #9D8757",
"`. c #B58948",
"'. c #A7934D",
"]. c #BB9A4B",
"[. c #AA8754",
"{. c #A78656",
"}. c #A4854D",
"|. c #898473",
" X c #9A8368",
".X c #A99165",
"XX c #BAB273",
"oX c #C58845",
"OX c #C79743",
"+X c #DC9A42",
"@X c #D2954B",
"#X c #D59B48",
"$X c #D29F54",
"%X c #CDA448",
"&X c #D4A34C",
"*X c #DBA348",
"=X c #CBA654",
"-X c #D6A757",
";X c #E1A044",
":X c #C5AD62",
">X c #4E7B84",
",X c #527788",
"<X c #5B7883",
"1X c #667B81",
"2X c #697C83",
"3X c #677A85",
"4X c #707D82",
"5X c #6B8187",
"6X c #63848D",
"7X c #6D838A",
"8X c #6D8B8C",
"9X c #71868D",
"0X c #718A8F",
"qX c #708083",
"wX c #6F8691",
"eX c #6E8B92",
"rX c #718A91",
"tX c #718692",
/* pixels */
"                                                                  ",
"                              XXXX                                ",
"                            :XR.E.                                ",
"                            R.d.d.R.                              ",
"                          *Xd.s.s.d.#X                            ",
"                        &XF.t.$.$.t.F.$X                          ",
"                      =X!.u.-.@ o -.t.!.-X                        ",
"                      E.p.>.o 6 t o $.f./.                        ",
"                    =Xn.k.$ t r 9 6 # k.g.%X                      ",
"                    E.y.&.. 8 z C s t *.y.G.].                    ",
"                  $Xc.,.+ 8 l Y Y k r O >.h.Y.                    ",
"                  E.k.# X f Q E ~ U g t # 0.!.'.                  ",
"                =Xv.;.. r J Q ~ Y Y J s . =.n.OX                  ",
"                T.3.: t C Y Y Y Y L Y Z 8 # k.L._.                ",
"              &Xc.;.. f I Y Y Y Y L E W f . -.c.].                ",
"              +Xz.> t n Y T Y Q ~ Y ~ Y z X # x.T.                ",
"              U.>.O u H ~ ~ Y Y ! T T T I q c V.J.'.              ",
"            -Xv.*.t C Y ( ~ L Y ! ! Y Y ~ Q 3X|.1.`.              ",
"            +X2.# s F ~ ! ~ R R ^ ! Y Y ' +.@.N ,.`.              ",
"            L.1.O x Y ~ ^ ( ^ ~ ^ ^ _ ] 5Xo.h y :.{.S.            ",
"          -XW.;.e D Y _ Y S Z l j C ' 7X+.n h s B |.A.            ",
"          ;Xa.& r I _ I j l C F F Y 3X( C T P S #.C...            ",
"          /.0.% g ^ I j C ~ O.+.+.Z.' V w L +.4XB <.}.            ",
"          /.0.% v ^ j C ^ 2X9X0X8X8X+.~ D G 7XU : %.H.            ",
"          ~.0.> K I j Y 1XrXrXrXeXeX0X@.o.1X` Z : q.K.            ",
"          ~.e.3 U C V ^ 7XrXrXeXeXeXrX9X@.I V ! ; k.K.            ",
"          ~.e.4 U C C ' 9XrXrXeXeXeXrXtX' z z T - 3.P.            ",
"          ~.e.3 T C C _ 7XrXrXeXeXrXeXeX` l z } # w.K.            ",
"          ~.e.3 T D j ~ 5X0XrXeXrX0XrX6X~ w J P = w.K.            ",
"          ~.e.3 U ^ j D ' 7X0XrXrX0X5X_ D f ^ K - k.K.            ",
"          ^.e.4 I _ C j I ' 1X5X7X3X_ I f A _ J ; k.P.            ",
"          ^.e.1 J ^ ^ C j C Y ~ ~ Q D f C ' ) J - l.J.            ",
"          ~.w.1 I ~ ^ _ F l j l j j x D ' ` Y m = w.J.            ",
"          @X4.2 I ~ ~ ~ _ ^ Y I I U T _ ( ~ Y v - 6.oX            ",
"           XN.a I Y ~ ~ ~ ^ _ _ ^ ^ ^ ~ ~ ~ Y J c N.B.|           ",
"          X.} x J Y Y Y Y Y Y Y Y ~ Y Y Y I L D V o.{ T           ",
"        ,X~ I j j C C C C C C C C V V V z z z j Z ( ~ ~           ",
"        ,X~ U j C C C C C C C C C C C C C z z x z ^ ~ E           ",
"        ,X~ K Z ^ +.+.+.+.+.+.+.+.+.+.+.+.+.+.^ z T ~ /           ",
"          Y K z Y ^ ^ ^ ^ ^ ^ ^ ^ ^ ^ ^ ^ ^ ^ I C { T ~           ",
"          | N g I Y ~ Y Y ~ Y Y Y Y T ~ T T T F k B B P           ",
"          _.M i D Y ~ ~ ~ Y Y ~ Y Y ^ Q Q Y T J p 5.`.            ",
"          '.N.o.J F Y Y ^ ^ _ _ _ _ ` / Q Y Y J = 3.H.            ",
"          ]._.A._ Y C Y ^ Y C C C n U ^ _ ~ ~ J = w.K.            ",
"          H.7.B _ 5X+.^ l j V C C x g z T ) E F * w.K.            ",
"          5.:.p I +.+.+.O.Y ^ O.' ) I x f T ) J = w.K.            ",
"          |.M i C ^ C I 1X2X7X9X8X6X<X~ j x _ J = w.K.            ",
"          .XN.| Y C q I +.0XrXrXrXeX8X1XI q Y U = l.K.            ",
"          @X8.C.qXO.D Y 7XrXeXeXeX8X0X7X^ j D U = 2.K.            ",
"          ~.l.b o.1X1X1X8XrXeXeXeX8X0XwX( V C { = w.K.            ",
"          ^.e.3 T F I +.9XrXeXeXeX8X0XtX( V C } = %.K.            ",
"          ^.9.3 T C j ^ 5XrXeXeXeX8X0X7X^ j D U = l.P.            ",
"          ^.0.3 T Y j I +.8XrXrXrXeXwXO.I q Y U = l.K.            ",
"          ^.e.3 I _ C l Y +.5X8X8X6X<XT x x _ K = w.K.            ",
"          ~.w.4 K _ ^ j j I ^ ' _ ~ J k g T _ J - w.K.            ",
"          ~.e.4 K ~ ^ ~ V w l C C f f k ^ _ ~ D * w.K.            ",
"          (.0.3 J ~ ~ ^ _ Y C V V C Q ' ` E G J = l.P.            ",
"          @X3.1 K Y Y ~ ^ _ _ ' ' ' ( / E Y L J - 6.oX            ",
"          .XM.a I Y Y Y Y ~ ~ Y Y Y ~ ~ ~ T T J c M.{.            ",
"           .[ z I ~ ~ ~ ~ ~ Y Y Y Y T T T T T F z  .| _           ",
"        >XY Y j D I I I I I I I I I I I I I I C z ^ ~ /           ",
"        >X~ I j j j j j j j j j j j j j j j j f j ^ ~ /           ",
"        >X~ I x I ~ ~ ~ ~ ~ ~ ~ ~ T ~ ~ T T T J C ^ ~ ~           ",
"          ( T z ^ O.O.O.O.O.O.O.O.O.O.O.O.o.o.~ C ^ T ~           ",
"          [ N h Y ~ ~ Y J J J J J J F F I ~ ~ J z [ N T           ",
"          [.<.p I ~ C j q j j j j f f w V I ~ J p m.B.            ",
"          R.w.3 J Y j 9 j C C C C z z w 0 Z Q A # 2.oX            ",
"          ^.0.4 J J 9 j C Y Y J J I I C 7 j Q J # e.K.            ",
"          ^.e.4 J J 9 j J 2XO.C I 3X` J r f Q J * 2.K.            ",
"          ^.e.4 J J 9 l D 1X_ C J 1X^ D r f Y J - l.K.            ",
"          ~.e.3 J J 9 z I I J Y I I I I 9 f Y J = l.K.            ",
"          ~.e.3 J J 9 z Y Y Y Y ~ Y Y Y 9 f Y J = l.K.            ",
"          ~.e.3 J D 9 C Y Y ~ Y Y ~ ~ Y 9 f Y J = l.K.            ",
"          ^.e.3 J D 9 l Y Y ~ Y ~ ~ Y Y 9 f Y J = l.K.            ",
"          ^.e.4 J J 9 z Y Y ~ Y ~ ~ Y Y 9 f Y J = l.K.            ",
"          ^.e.3 J J 9 z Y ~ ~ ~ ~ ~ Y Y 9 f Y J = l.K.            ",
"          ~.e.3 J J 9 C Y I I I J J Y Y 9 f Y J = l.K.            ",
"          ~.9.3 J J 9 C I j C C C C C Y 9 f Y J = l.K.            ",
"          ^.e.3 J J 9 z C C +.1X1X' V J 9 f Y J = l.K.            ",
"          ~.e.3 J J 9 z C ^ rXrXrX7XD F 9 f Y J = l.K.            ",
"          ~.e.3 K J 9 z C ^ rXrXeX7XC F 9 f Y J = l.K.            ",
"          ~.e.3 K J 9 z C ^ rXeXeX7XD F 9 f Y J = l.K.            ",
"          ~.e.3 K J 9 z C ^ rXeXeX7XD F 9 f Y J = l.K.            ",
"          ~.e.3 J J q l C ^ rXrXrX7XC J 9 f Y J = l.K.            ",
"          ~.e.3 J J 9 l C ^ rXrXrX7XD J 9 f Y J * l.K.            ",
"          ~.e.4 J J 9 z D I 5X7X7X+.C F 9 f Y J < l.K.            ",
"          ~.e.3 J J 9 l J j C C C C l J 9 f Y J < l.K.            ",
"          ~.e.3 J I 9 q D C C C C C J C 7 j Y J * l.K.            ",
"          (.9.= A Y z 7 s j w f f j j 9 s A T A = w.K.            ",
"          (.0.# x Y I z x j l j x j j C J L Y v = w.K.            ",
"          (.t.&.i I Y L P Y ~ ~ Y Y Y Y L L H u &.b.I.            ",
"          *Xf.>.: g J U U ~ ~ ~ L L Y ~ ~ I f + >.f.T.            ",
"          :X!.y.;.o d S J D I I I I I D z d O =.u.Q.Y.            ",
"            &XD.0.$.> y u u i g k k i e o % ,.t.g.T.              ",
"              #XQ.f.r.,.*.5 & & , & &.=.$.q.p.g.I.                ",
"                -XR.F.h.p.i.0.0.e.0.y.u.f.Q.L.@X                  ",
"                    %X).R.I.I.R.T.T.L.~.+XOX                      ",
"                                                                  ",
"                                                                  "
};

