/* XPM */
static char *small_boat_2p_b_xpm[] = {
/* columns rows colors chars-per-pixel */
"66 33 212 2 ",
"   c #fffffa",
".  c #5F452F",
"X  c #4C4737",
"o  c #44453E",
"O  c #4C443B",
"+  c #5C4633",
"@  c #5F4B34",
"#  c #52453B",
"$  c #5B4B3C",
"%  c #52463A",
"&  c #644627",
"*  c #6D472D",
"=  c #6A492A",
"-  c #724A2A",
";  c #784F25",
":  c #634631",
">  c #6D4A32",
",  c #624C3C",
"<  c #664837",
"1  c #764D31",
"2  c #7F5E3E",
"3  c #3C4B4E",
"4  c #3C4948",
"5  c #3D524E",
"6  c #3D4D52",
"7  c #3B4F54",
"8  c #3D5255",
"9  c #3F535A",
"0  c #424542",
"q  c #4C4A42",
"w  c #434749",
"e  c #414A4D",
"r  c #494B4A",
"t  c #544D44",
"y  c #594A44",
"u  c #4C534E",
"i  c #45504C",
"p  c #535147",
"a  c #555149",
"s  c #585149",
"d  c #424E54",
"f  c #444E5D",
"g  c #425256",
"h  c #4B5455",
"j  c #43545A",
"k  c #4B555C",
"l  c #45595D",
"z  c #495A5D",
"x  c #435854",
"c  c #515A5C",
"v  c #525855",
"b  c #624540",
"n  c #4D645F",
"m  c #696252",
"M  c #756E5F",
"N  c #77754B",
"B  c #475C62",
"V  c #4C5D62",
"C  c #485966",
"Z  c #525E62",
"A  c #585E63",
"S  c #4D6264",
"D  c #4E636A",
"F  c #526365",
"G  c #546966",
"H  c #53656B",
"J  c #5A646D",
"K  c #556A6D",
"L  c #596A6D",
"P  c #586166",
"I  c #4B6A73",
"U  c #546671",
"Y  c #596771",
"T  c #556B72",
"R  c #5B6D74",
"E  c #5A6E7A",
"W  c #536B79",
"Q  c #5C7275",
"!  c #55727C",
"~  c #5D757A",
"^  c #577076",
"/  c #676C69",
"(  c #646B60",
")  c #626E77",
"_  c #617274",
"`  c #61747A",
"'  c #627A7E",
"]  c #697A7F",
"[  c #91541E",
"{  c #AD591D",
"}  c #B25C1F",
"|  c #BB5417",
" . c #B6641D",
".. c #B8641D",
"X. c #BA6316",
"o. c #824D2B",
"O. c #874C22",
"+. c #8A5122",
"@. c #8E542A",
"#. c #82512D",
"$. c #9D5B25",
"%. c #975E2B",
"&. c #9B5C29",
"*. c #985628",
"=. c #8F5F3E",
"-. c #A25622",
";. c #AB5B22",
":. c #A05E26",
">. c #B45D22",
",. c #996A3D",
"<. c #A96326",
"1. c #B36421",
"2. c #BC6424",
"3. c #B96821",
"4. c #DB6D0E",
"5. c #C3641C",
"6. c #C9671B",
"7. c #C46E1F",
"8. c #CC6B1B",
"9. c #C96914",
"0. c #DE6C19",
"q. c #D66A18",
"w. c #C9731F",
"e. c #DA7518",
"r. c #E7790E",
"t. c #E56F12",
"y. c #E47114",
"u. c #E57D14",
"i. c #EA7C14",
"p. c #E57D1B",
"a. c #E77719",
"s. c #F27116",
"d. c #F4650B",
"f. c #C26521",
"g. c #CC7021",
"h. c #D67923",
"j. c #D87522",
"k. c #80794A",
"l. c #82785E",
"z. c #6D827B",
"x. c #B5913F",
"c. c #DF841D",
"v. c #E5801C",
"b. c #E48211",
"n. c #DE8424",
"m. c #DD8B29",
"M. c #DF9229",
"N. c #CB8F3A",
"B. c #DE8E31",
"V. c #D98934",
"C. c #CC943F",
"Z. c #D69635",
"A. c #DD953C",
"S. c #D19C3B",
"D. c #DD9A3E",
"F. c #E28426",
"G. c #E38A25",
"H. c #E4862A",
"J. c #E38A2C",
"K. c #E98B29",
"L. c #EA972E",
"P. c #E38A32",
"I. c #EB9634",
"U. c #EA9933",
"Y. c #E1943C",
"T. c #E49A3A",
"R. c #E29233",
"E. c #F19433",
"W. c #DCA237",
"Q. c #928449",
"!. c #A48A46",
"~. c #BC8141",
"^. c #A89755",
"/. c #B6B67F",
"(. c #B9B57E",
"). c #B8AC66",
"_. c #C08A4E",
"`. c #C69845",
"'. c #D69B4D",
"]. c #DB9B42",
"[. c #C18952",
"{. c #C49752",
"}. c #DAA34B",
"|. c #D1A04C",
" X c #CDA65B",
".X c #C7AA59",
"XX c #D4A458",
"oX c #DEB154",
"OX c #CAB259",
"+X c #E5AE4A",
"@X c #E8AC4C",
"#X c #E8AE51",
"$X c #C6AB66",
"%X c #CBB375",
"&X c #647B82",
"*X c #6A7E84",
"=X c #6A8186",
"-X c #6B8489",
";X c #6F8A8E",
":X c #67818A",
">X c #718285",
",X c #71898E",
"<X c #718488",
"1X c #6F8B92",
"2X c #718B92",
"3X c #9DA784",
"4X c #AEB98A",
"5X c #B5B681",
"6X c #B4B685",
"7X c #B8B680",
"8X c #B8B982",
"9X c #A4AB8C",
/* pixels */
"                                                                                                                                    ",
"                                                                                                                                    ",
"                                                                                                                                    ",
"                                                                                                                                    ",
"                    (.(.6X6X6X(.(.8X8X/.6X7X7X/.6X3X~ ! ! ! ! z.9X4X6X6X(.(.7X7X6X6X                                                ",
"            $X}.R.G.F.H.H.H.H.H.H.H.H.H.H.H.H.H.H.~.( K T W K l.[.V.J.H.H.H.H.H.H.H.H.K.T.}..X                                      ",
"           XF.e.6.1.:.&.&.&.&.&.&.&.&.&.&.&.&.&.&.2 c V V V V m =.%.%.&.&.&.&.&.&.$.$.<.1.7.h.V.Y.}.                                ",
"        XXF.q.*.* + t a a t p p p p p p p p p p p u j B B 6 j h a t a a a a a s a t # % + = #.&.f.j.P.'.$X                          ",
"        P.0.*.# h F G L L Y K K K K K K K K K K K K T ` R l F T T Y K L Q ` Q R R _ R F z g w o . O.;.g.n.A. X                      ",
"      XXu. .@ u P G z l k k k z z z z z z z z z V H T ` R j F T K T R ` F j g g g j F _ E U S l 5 4 X - -.8.v.Z..X                  ",
"      A.4.+.r S G 8 3 6 6 d d d 6 6 6 6 6 6 6 6 6 B T ` R j F T K R ` l j V F H H V g l R Q K G F B 9 w % - { e.c.].%X              ",
"      m.6.* h L V 7 l F H H H H H F F H H F V V g 6 H ` R g H T T ~ l j K Q *X=X&X~ K l l Q R T U T U V e 0 % o.5.y.K.XX            ",
"    OXn.} $ c L V 6 F z j l l l B l l j B F _ H z 8 F ` R g F T Q F g K ' ;X,X2X2X,X' T V R ` ) R ` &X~ G x 3 0 : ;.0.i.W.          ",
"    oXu.{ # S T V d V l ' -X-X-X=X-X-XQ 9 H <XQ z 8 F ` R g F T ~ l B Q -X2X2X2X2X2X,X=X*X*X>X>X` =X2X&XU L V 5 4 # @.q.r.Y.$X      ",
"    #Xr.{ q D T V d Z V =X;X1X2X2X2X1X&Xj S F F z 8 F ` R g F T ~ j F ' ,X2X1X1X1X2X,X' l 7 V V B V S B D T J F 8 3 O +.q.s.R.).    ",
"    @Xr.;.t S K V d V V =X2X2X2X2X2X2X&Xl S F F V g F ` R g F R ~ j H &X,X2X1X1X1X2X,X&XF j R R T L G G K Y Y K z e 0 & | d.r..X    ",
"    +Xr.;.t F K V 6 V V =X2X2X2X2X2X2X' j F ] L z g F ~ R j H K Q j S ' ,X2X1X1X1X1X2X*XQ L ` ` ~ ' ] _ L Y U V 3 0 + $.0.a.D.      ",
"    +Xu.>.y Z G V 8 D l V F F D F F F B j K *XR l 8 F ~ Q h P L ~ B l R -X2X1X1X1X2X-X*X=X*X=X*X&X:X2XQ F L B 3 o = ;.y.v.'.        ",
"    `.p.2.b v G n 7 V P A A A F S S S S F G S S j g H ~ ^ j H T E U g F ~ =X;X1X1X-X~ D 7 l V z V F V l z i 4 X ; 5.y.J.OX          ",
"      J.6.- u G S 3 3 g g g j j j j g g g g g d 3 g L ~ ! j G U W ` Z g F R ~ ' ~ R F g B ~ T T Y T C C w O : -.q.i.T.%X            ",
"      A.4.[ q V L Z g 8 8 8 9 f f g d d d d g d l H Y ~ E g S G U T Q S g l S D S l g V ` R K H Z h 3 o + @.f.a.G.|.                ",
"      S.b.5.> d F Y J K G G G J L L L L K K L L K K T ~ R g n G T U T ~ R V j j j V L _ L F V g 3 O & [ 3.j.G.C.^.                  ",
"        M.t.} : q z D U U L G G F L L L L L L L K L G Q L g S G J J L L R R R R R R H z g r O + 1 $.6.e.J.C.!.                      ",
"        `.K.y.>.O.= @ $ y , , , , , , , , , , , , s z z z j l h s , , , , , , , , < + : > o.$.3.h.F.B.`.!.                          ",
"          `.B.p.e.9.X. . . ..... . . . . . . . . .,./ Q Q E R M ,.<. . . . . . . . ...7.w.e.F.B.N.!.k.                              ",
"              S.T.I.E.E.L.L.U.I.I.I.I.I.I.I.I.I.I._./ K T W Y l.{.T.L.I.I.I.I.I.I.I.I.U.Z.x.Q.N                                     ",
"                                                    K I I I U _                                                                     ",
"                                                                                                                                    ",
"                                                                                                                                    ",
"                                                                                                                                    ",
"                                                                                                                                    ",
"                                                                                                                                    ",
"                                                                                                                                    "
};

