/* XPM */
static char *small_boat_3p_b_xpm[] = {
/* columns rows colors chars-per-pixel */
"99 33 218 2 ",
"   c #fffffa",
".  c #4B443A",
"X  c #42483E",
"o  c #5A4937",
"O  c #584638",
"+  c #574737",
"@  c #5B452D",
"#  c #6C4C2D",
"$  c #6E462F",
"%  c #724C2C",
"&  c #794E2A",
"*  c #674D36",
"=  c #6A4E35",
"-  c #674D39",
";  c #6A4D3A",
":  c #674735",
">  c #744B32",
",  c #7A4A32",
"<  c #675037",
"1  c #6D5339",
"2  c #65563E",
"3  c #725136",
"4  c #725138",
"5  c #7D5127",
"6  c #3F4646",
"7  c #3D4B4D",
"8  c #3E4949",
"9  c #3D4E52",
"0  c #364C53",
"q  c #3E5254",
"w  c #3E5359",
"e  c #4E4C42",
"r  c #424C4C",
"t  c #444745",
"y  c #534944",
"u  c #45534C",
"i  c #4B524D",
"p  c #5D5342",
"a  c #5B594C",
"s  c #424C53",
"d  c #4D4F53",
"f  c #445356",
"g  c #4A5454",
"h  c #4A5955",
"j  c #43555B",
"k  c #4C565A",
"l  c #46595D",
"z  c #4A5A5D",
"x  c #465A56",
"c  c #595651",
"v  c #535959",
"b  c #6A5543",
"n  c #4A645E",
"m  c #55625E",
"M  c #72634A",
"N  c #67675A",
"B  c #766858",
"V  c #465A62",
"C  c #4B5C63",
"Z  c #495963",
"A  c #545F62",
"S  c #525B65",
"D  c #4D6165",
"F  c #4F6369",
"G  c #4F6C6E",
"H  c #4C6A65",
"J  c #536265",
"K  c #596467",
"L  c #556B67",
"P  c #5B6964",
"I  c #52656A",
"U  c #5B666B",
"Y  c #556A6D",
"T  c #5A6A6D",
"R  c #57706E",
"E  c #4F6D73",
"W  c #4D6771",
"Q  c #546772",
"!  c #5A6673",
"~  c #556B71",
"^  c #5A6D73",
"/  c #536C7B",
"(  c #5A6D7A",
")  c #557174",
"_  c #5C7175",
"`  c #567179",
"'  c #5D7279",
"]  c #5C787A",
"[  c #616A6B",
"{  c #696B65",
"}  c #6F7369",
"|  c #6B7369",
" . c #757764",
".. c #626E72",
"X. c #637375",
"o. c #62757B",
"O. c #64797E",
"+. c #6B7A7F",
"@. c #6A7074",
"#. c #A8581C",
"$. c #BD6A1F",
"%. c #844E2D",
"&. c #87532B",
"*. c #965424",
"=. c #9B5A25",
"-. c #965528",
";. c #9A5F37",
":. c #AC5C25",
">. c #A45A26",
",. c #946B38",
"<. c #A8672A",
"1. c #BE6B23",
"2. c #BE6928",
"3. c #B2702E",
"4. c #A26E3D",
"5. c #B76C31",
"6. c #B76F38",
"7. c #B2733B",
"8. c #C76916",
"9. c #CB6A16",
"0. c #C56719",
"q. c #C5691C",
"w. c #C9691A",
"e. c #CA6318",
"r. c #DA6B15",
"t. c #D36C1B",
"y. c #DC6C18",
"u. c #D16C14",
"i. c #DE7215",
"p. c #D5761E",
"a. c #EA690A",
"s. c #EF770F",
"d. c #E57415",
"f. c #EB7D1D",
"g. c #E77814",
"h. c #ED7110",
"j. c #C46522",
"k. c #C26921",
"l. c #CC6C20",
"z. c #CA7023",
"x. c #DD7C23",
"c. c #D27A25",
"v. c #D76D21",
"b. c #E17A23",
"n. c #9A6D41",
"m. c #99744B",
"M. c #8A7658",
"N. c #987E57",
"B. c #A0754A",
"V. c #817867",
"C. c #63807E",
"Z. c #78827E",
"A. c #7C8364",
"S. c #DF821C",
"D. c #E6811C",
"F. c #DD912D",
"G. c #CC8A3C",
"H. c #CC8734",
"J. c #D48634",
"K. c #DB8D34",
"L. c #D18638",
"P. c #DD8E3A",
"I. c #D98833",
"U. c #CB9739",
"Y. c #D6923A",
"T. c #DD943B",
"R. c #DB9538",
"E. c #DA8029",
"W. c #E58421",
"Q. c #E48A28",
"!. c #E49334",
"~. c #EA9132",
"^. c #E49B3D",
"/. c #E8943A",
"(. c #E0A03C",
"). c #9D8757",
"_. c #B58948",
"`. c #A7934D",
"'. c #B99D4D",
"]. c #AA8754",
"[. c #A78656",
"{. c #A5854D",
"}. c #898473",
"|. c #9A8368",
" X c #A99165",
".X c #BAB273",
"XX c #C58945",
"oX c #C59644",
"OX c #DC9A42",
"+X c #D3954B",
"@X c #D49A45",
"#X c #D29F54",
"$X c #CDA448",
"%X c #D4A34C",
"&X c #DBA34C",
"*X c #D8A046",
"=X c #CBA654",
"-X c #D6A757",
";X c #E1A044",
":X c #C5AD62",
">X c #4E7B84",
",X c #527788",
"<X c #5B7883",
"1X c #667B81",
"2X c #697C83",
"3X c #697D88",
"4X c #707D82",
"5X c #6B8187",
"6X c #63848D",
"7X c #6D838A",
"8X c #6D8B8C",
"9X c #71868D",
"0X c #718A8F",
"qX c #708083",
"wX c #6F8691",
"eX c #6E8B92",
"rX c #718A91",
"tX c #718692",
/* pixels */
"                                                                                                                                                                                                      ",
"                                                                                                                                                                                                      ",
"                                                                                                                                                                                                      ",
"                                                                                                                                                                                                      ",
"                                                                        >X>X>X                                          ,X,X,X                                                                        ",
"            :X&X/././.!.!.!.!.!.!.!.!.!.!.!.!.!.!.!.!.!.!.!.!.!.T.].{ ( Q ~ Y |  X+X/.!.!.!.~.~.~.!.+X X}.4.G.'.`.).} Y ~ Q Q ..|.+X!.!.~.!.!.!.!.!.!.^.^.;X-X                                        ",
"          %XQ.d.y.9.8.w.w.w.w.w.w.w.w.w.w.8.w.w.w.w.w.w.w.w.w.9.q.,.N Y Y Y Y { m.1.9.w.q.w.9.8.w.k.7.M.M ;.6.).M.M N J J K Y [ M.3.q.w.w.w.w.w.w.w.9.9.9.p.E.K.OX&X                                  ",
"        @XS.t.:.%.# = 3 3 4 3 3 3 3 3 3 3 3 3 3 4 3 3 3 3 4 4 4 3 p h z l f l k a 1 3 4 4 3 3 3 3 b V.} i p B Z.X.i g z C j f z a 2 1 1 4 3 3 3 4 3 > % % , -.<.1.c.I.OX%X                            ",
"      -XW.9.-.: i z A J J J J J K J J J J J J J J J J J J J J J J J Y ^ I j D I I J J J J Y U U U X.qXY C Y _ _ I D I Y ^ C l I I J J J Y U U U U K K v g r e O # &.:.l.x.Y.=X                        ",
"      T.d.#.o g I Y Y I J J J J J J J J J J J J J J J J J J I I Y ! ! o.Q j I Q Y Y Q Q _ _ Y C F 1Xo.C ^ O.5XY F Y Y ^ O.C C Y Y ~ Q ^ _ ^ D C C C Y ^ ^ L D l s t O , -.2.c.R.#X                    ",
"    $XD.e., d I Y I z 9 9 9 9 q 9 9 9 9 9 9 9 9 9 9 9 9 9 9 9 9 f C ! o.Q j I Q Y Y Q _ ^ C j j I 1XD q C O.O.C Y Q ~ ^ O.C C Y Q ~ ^ ^ D j j C C V j j Y _ Y I F C u t . : -.j.x.R.=X                ",
"    (.g.>.y S U L z 7 q l z l l z z z z z C C z l z C z C l l f 9 f Y o.Q j I Q Y Q ^ ^ j l I ^ O.1XY I I O.^ Y Y Q Y ^ O.C C Y Q ^ _ C j D ~ _ ' ^ Y C j J _ Q Q I H n f t . # >.t.b.R.=X            ",
"    T.i.&.u J U P z s D J D C C C C C C C I Y Y Y Y Y Y I D D C l q I o.! l I Q Y ^ _ V l Y O.5X9X8X7XO.1Xo.l ^ ^ Q Y ^ O.C C Y ~ _ F j I ' 5X7X9X7X1X^ C j L ^ ! ( Q I I C r X + %.j.i.Q.%X          ",
"    P.u.5 u H ! Y l f C j I ^ ^ ^ ^ ^ ^ C l Y Q Y Y Y Y I 1X2XY C f I o.Q j I Q ~ _ Y w I O.7XrXrXrXrX0X2XY j Y ^ Y Q ^ O.C C Y ^ ^ l C ' 7X0XrXrXrXrX2X! l S ( Q Q ! T Y Y J x 8 . $ :.y.D.*X        ",
"    P.9.& i I Q Q l w C C 5X0XrXrXrXrXrXO.C I Q Q Q Q Y I _ o.Y C f I o.Q j I Y ~ _ C l ^ 5XrXeXeXeXeXrX7X^ V C _ Y Y ^ O.C C Y _ I j Y 1X0XrXrXrXrXrX9Xo.C V ^ R G Y Y Y Y ~ Q l 8 t o =.y.s.^.:X    ",
"    T.9.& g Y Q Q l f C C 7XrXrXeXeXrXrX1XC I Q Y Y Y Y I C C I C f I o.Q j I Y Y ' V C ' 7XrXeXeXeXeXrX9X' C C _ ~ Y ^ O.C C Y _ I l ! 5XrXeXeXeXeXrX0XO.F l ~ R Y Y Q Y Y ~ E I z r 6 @ #.a.s.T..X  ",
"    Y.w., k I L L k f C C 7XrXrXeXeXeXrX1XC I Q Q Q Y Q I I I I C f I o.Q l I Y Y ' V C _ 7XrXeXeXeXeXrX7X' C C _ Y Y ^ O.C C Y ^ I l ! 7XrXrXeXeXeXeX8XO.I j ^ ^ ! ! Q Y I Y ! Y C 9 t o #.a.s.T..X  ",
"    Y.w., k I L L j f C C O.7X7X7X7X7X7X' C I Q Q Q Q Y I 1X3XY k g J o.T j I Y L ' C x ~ 6XeX8X8X8X8XeX6X) z D ` Y L ^ O.C V Q ^ K j Q 3X0X0XrXeXeXeX8XC.I C ^ ! ! T Y Y Y Y U k s 6 o =.r.s.T.      ",
"    K.t.%.i I Y Y l f I l C C C D D D D V C Y Y Y Y ! Y I ^ ' I z f F o.Q j I T ! ( Q g J <XwX0X0X0X0X8X<XI g K ' ~ T ^ O.C V I ^ T x D _ 7XrXeXrXrX0XO.' 3X' _ Y L T Q E G J g r t # #.r.D.@X        ",
"    !.i.*.e D Q I C 9 C I F I I F F F F I I Y Y Y Y Y Y I J J C w w F o.Q j I T Q / ' k k Y o.7XwXwX7XO.Q k k ^ / / ! ^ O.C V I ~ _ H f J _ 6XeXwX9X+.! V ( 7X] Y Y Y Y W V s t O &.j.d.Q.&X          ",
"    OXd.#.o z Q L J s 7 9 9 9 9 9 9 9 9 9 9 9 9 9 9 9 9 9 r r 7 0 V I o.T j I T Q E ` ^ g k I ^ ( ( ^ Y j x T _ / / T ^ O.C z Y Q ( ' C f D ~ ` ' +.X.C w C O.5X' Q Y z f 8 . # :.t.f.^.-X            ",
"    oXW.0.% g I L L A j f f f f f f f f f f f f f f f f f f g j V I ! X.T j I T U Y E _ T x q j V V j f l T ) ~ Y Y U ^ O.z k L Q Q ` ' A f w l z Y 1XI Y L n X.O./ q X . # *.9.g.F.$X                ",
"      K.i.>.o x H L U Y Y Y Y Y Y Y Y Y Y Y Y Y Y Y Y Y Y Y Q Q Q Q ! o.T j I T U L G ~ _ _ Y D C C D Y _ ) E ~ Y U T ~ O.z k L L Y Y ) _ ^ J z z V ' 7XO.P h h +.3Xc # =.j.b.Q.U.'.                  ",
"      @Xf.y.*.o u v A J J J J J A A J J J J J J J J J J J J I J A J I Q J f C F J J J D J J K U [ [ U K J J F J J J F I ^ z j D J v m J I K P [ U ! Z U 4XS s y N }.B.z.x.K.oX`.                      ",
"        P.f.y.:.%.= = * < < * * * * * * * * * * * * * * * - * # # p k C C j z z c - * * ; * * * = = * * * * * * * p k C z z V V c ; = ; ; ; = # - ; : : B @.B ;.>.<.H.Y.oX).                          ",
"          Y.W.d.v.q.q.k.k.k.k.k.k.k.k.k.k.k.k.k.k.k.k.k.k.k.1.w.1.n.{ ^ ^ ^ ^ | m.5.k.q.q.q.k.k.$.q.1.k.q.q.q.q.1.4.B [ T ^ ' X.M.5.q.k.k.k.q.q.2.k.w.1.,.V.}.]._._.`.                                ",
"            U.Y.P.J.J.J.J.J.J.J.J.I.J.J.J.J.J.J.J.J.J.J.J.J.J.J.XXN.N T ! ! ! } [.XXL.J.J.J.J.L.J.J.J.J.J.J.J.J.G._.B T ! Q ~ [ N.XXH.H.L.J.J.H.L.J.J.G.{. .Z.A.                                      ",
"                                                                    L ~ Q / / _                                     P Q / E ~ R }                                                                     ",
"                                                                                                                                                                                                      ",
"                                                                                                                                                                                                      ",
"                                                                                                                                                                                                      ",
"                                                                                                                                                                                                      ",
"                                                                                                                                                                                                      "
};

