/* XPM */
static char *small_boat_4p_b_xpm[] = {
/* columns rows colors chars-per-pixel */
"132 33 226 2 ",
"   c #fffffa",
".  c #5F452F",
"X  c #4B453B",
"o  c #49473B",
"O  c #524434",
"+  c #584538",
"@  c #674B2E",
"#  c #6A4A2E",
"$  c #684528",
"%  c #764B28",
"&  c #644632",
"*  c #664B33",
"=  c #6A4A32",
"-  c #644C3A",
";  c #714B31",
":  c #7A5129",
">  c #3C4846",
",  c #3C4B4D",
"<  c #3A484B",
"1  c #3D514E",
"2  c #3C4C52",
"3  c #3B4C59",
"4  c #344F57",
"5  c #3D5155",
"6  c #3E5359",
"7  c #3B555B",
"8  c #2D474C",
"9  c #2C566B",
"0  c #2B5A6C",
"q  c #24556B",
"w  c #215970",
"e  c #284C62",
"r  c #22607C",
"t  c #434644",
"y  c #4E4C43",
"u  c #434B4B",
"i  c #474844",
"p  c #544C48",
"a  c #4C534C",
"s  c #5A5143",
"d  c #52524C",
"f  c #5A534C",
"g  c #535549",
"h  c #414D53",
"j  c #444F59",
"k  c #484D52",
"l  c #435356",
"z  c #4A5355",
"x  c #44555A",
"c  c #4A565B",
"v  c #46595E",
"b  c #495A5D",
"n  c #495956",
"m  c #535452",
"M  c #555A5B",
"N  c #775C45",
"B  c #5F635B",
"V  c #4C615B",
"C  c #676E5B",
"Z  c #7A6B57",
"A  c #787255",
"S  c #78654F",
"D  c #4C5562",
"F  c #455B61",
"G  c #4B5D63",
"H  c #4C5E6A",
"J  c #485765",
"K  c #515D65",
"L  c #505D68",
"P  c #476063",
"I  c #4D6165",
"U  c #4E6269",
"Y  c #4E6A68",
"T  c #526265",
"R  c #5A6564",
"E  c #596B64",
"W  c #53656B",
"Q  c #59666B",
"!  c #556A6E",
"~  c #596A6D",
"^  c #576C67",
"/  c #4E6B74",
"(  c #4B6D79",
")  c #4E6670",
"_  c #566670",
"`  c #596672",
"'  c #556B71",
"]  c #5A6C73",
"[  c #536B79",
"{  c #5A6C79",
"}  c #4C7977",
"|  c #5C7276",
" . c #5D737A",
".. c #5D787C",
"X. c #567476",
"o. c #4D7A6A",
"O. c #636D6D",
"+. c #746C64",
"@. c #6B7469",
"#. c #616D72",
"$. c #617275",
"%. c #61757B",
"&. c #64797E",
"*. c #6C7C7F",
"=. c #607872",
"-. c #757069",
";. c #BD5C0F",
":. c #A65A1E",
">. c #BC671D",
",. c #81502A",
"<. c #8B5426",
"1. c #9D5D25",
"2. c #9E5A2A",
"3. c #965526",
"4. c #815A3A",
"5. c #965D32",
"6. c #9C5C32",
"7. c #864B28",
"8. c #A15B26",
"9. c #A05B2A",
"0. c #A05723",
"q. c #B85F23",
"w. c #A45931",
"e. c #9F6225",
"r. c #896838",
"t. c #9D6D3B",
"y. c #9E7B3C",
"u. c #AB6427",
"i. c #B46224",
"p. c #BF7431",
"a. c #AA6F3C",
"s. c #D86E0F",
"d. c #C3671D",
"f. c #CF691A",
"g. c #CA6718",
"h. c #D56A17",
"j. c #CF721E",
"k. c #CF7315",
"l. c #D1721D",
"z. c #D8771A",
"x. c #E9740E",
"c. c #EB7407",
"v. c #E36D14",
"b. c #EB741B",
"n. c #E57B1C",
"m. c #E87816",
"M. c #F16E08",
"N. c #CC6C21",
"B. c #D06921",
"V. c #CC7322",
"C. c #C7732C",
"Z. c #D07221",
"A. c #DD7E25",
"S. c #DE7F29",
"D. c #E17F26",
"F. c #E07F2B",
"G. c #885C42",
"H. c #936A45",
"J. c #8F704E",
"K. c #A87549",
"L. c #8F7864",
"P. c #E4831A",
"I. c #E9881F",
"U. c #DD8125",
"Y. c #DD802A",
"T. c #D8872C",
"R. c #DC952D",
"E. c #C88539",
"W. c #DA8233",
"Q. c #D3823A",
"!. c #DF8B30",
"~. c #C89439",
"^. c #DB9635",
"/. c #D99834",
"(. c #D5953C",
"). c #DA973A",
"_. c #DA993A",
"`. c #D69838",
"'. c #E68827",
"]. c #E28D35",
"[. c #E39839",
"{. c #E3922C",
"}. c #B4824B",
"|. c #B79148",
" X c #A0825E",
".X c #A08B5C",
"XX c #BA8B54",
"oX c #B79654",
"OX c #AC894D",
"+X c #828F6B",
"@X c #92937F",
"#X c #8A8A79",
"$X c #B9AA6F",
"%X c #BEB072",
"&X c #CA9544",
"*X c #DA9641",
"=X c #D49842",
"-X c #D09F4E",
";X c #C89B51",
":X c #D29B53",
">X c #E69B42",
",X c #DAA84C",
"<X c #C8A85A",
"1X c #D6A853",
"2X c #C5AB63",
"3X c #C8AD65",
"4X c #C7B168",
"5X c #CBAE6A",
"6X c #487588",
"7X c #537183",
"8X c #657C83",
"9X c #697C83",
"0X c #687986",
"qX c #727F83",
"wX c #6B8186",
"eX c #6D848A",
"rX c #6E8A8E",
"tX c #668384",
"yX c #72858B",
"uX c #73898E",
"iX c #71908F",
"pX c #6F8C92",
"aX c #728B91",
"sX c #788E94",
"dX c #B4BC8C",
"fX c #C0BC83",
/* pixels */
"                                                                                                                                                                                                                                                                        ",
"                                                                                                                                                                                                                                                                        ",
"                                                                                                                                                                                                                                                                        ",
"                                                                                                                    w 0 9 9 9 0 0 0 0 q r                                                                                                                               ",
"                                                                                                                  e 3 D G H G G G F F F ( 6X                                                                                                                            ",
"                                                    =.o.} 7X7X                                                  A , I ' ! ] W H U ] ]  .iXY +X                                          X.} } 7X .@X                                                                    ",
"                $X:XXX#X#Xt.T.U.S.S.Y.U.D.S.W.A.U.}.C E W [ ` +.}.Y.U.Y.Y.S.S.S.S.Y.Y.Y.Y.Y.A.A.S.S.S.S.S.A.Y.E.r.y W ' ] b x H F I wX .T O K.Q.S.S.S.Y.S.S.S.S.S.S.U.U.Y.Y.S.Y.S.W.Q.H.Q E ^ ' ~  XQ.U.F.U.D.A.A.A.Y.Y.W.].>X,X<X                                      ",
"              $Xy.e.a.A @.S <.8.9.2.8.9.8.2.6.w.w.G.M K G H G B G.2.8.1.2.9.9.9.2.2.2.2.9.2.9.2.9.9.9.9.9.9.9.5.= i W ] T l %.eXyX*.T W Q p 4.6.8.8.2.2.2.9.9.9.9.9.9.8.9.8.8.8.9.2.5.N b V K L T S 5.1.1.2.2.8.8.8.8.1.9.u.>.k.Y.(.,X1X                                ",
"            <XE. XZ O i T yXm p f m f d d a a m f d l J G < l x z d d d d d d d d d d d d d d d d d d d d d d d u h W ` H G wXuXuX| l ! W , a d g d d d d d d d d d d d d d g g g a a z x P j k l z d d d m m m m m d y o X $ % 3.>.k.P.[.3X                            ",
"            ].C.L.qXn G { 0XyXT I W ~ $.| ! ! ^ E ^ ! |  .2 W ! ! ! ! ~ ! ! ! ! ! ! ^ ^ W G b b b n b b b b b b h , W ] U F wXuXrX] x ] W 2 n b v b b b G ^ ^ ^ ! ! ! ! ' ' ! ^ ^ W ) ' ` 8XG D ! ^ ^ ! ' ]  .] W ^ ~ $.^ M z h u + % 0.g.A.).<X                        ",
"          1Xm.i.s ] &.H { ' | tX6 l x l W  .] E ^ ' ' X...5 W ! ! ' ' ~ ! ] ] ' ' ] ! ! b 2 , 2 2 2 2 2 2 2 2 h 2 l T ! ! 6 U  .] x U ' W 2 , 2 2 2 2 , 2 G ! ! ! ! ! ] ' ' ' ' ! ' ' ' ' 8XG D ' ! ! ' %.W l l x l l n ~ $.! W G x u i & 3.d.z.R.<X                    ",
"          [.v.7.u W yX0X6 1 T wX%.` ! T l H %.] ' ' !  .7X2 Q ~ ! ' ' ~ ! ! ' ' ' ! ! W 2 , b G G G K K K K I P I T ` ] ] ~ G j z W [ ] Q K U U G G G v 2 2 W ' ' ] ^ ^ ! ! ' ! ! ! ! ~ ! &.G G ! ! ! %.K j G W ' ! W G 6 W ..! ^ ^ T b , o & 3.B.n.^.4X                ",
"        dXU.f.& x ' %.aX! v | 9XuXrXwX .W 6 G %.' ' '  .%.2 W ! ! ' ' ! ' ' ' ! ! ! ~ W 2 x W G G G G G G G G G G W ~ ' ' ' ] ] ] ] ' ' ! ' ' ! G T G W b 2 T ! ! ' ! ! ! ] ] ! ! ! ! ' ' 9XG b ' ] %.T l W | 9XrXrX8X] T 5 ' | ! ' ' ! T l > o = i.x.'.1X              ",
"        fXz.>.. G ! %.W uX| eXaXrXaXaXrX .T 5 $.] ' ' | %.2 W ' ] ] W W W W ! W ! W W I 2 G v x U W W W W W W W x l T v F v v T W G v v F U ' T ] uX%.T G 2 I ! W ! W ! W ! W W ! ' ! ] ' 9XG v ' ' %.5 T  .uXaXaXpXaXeX| W W 8X .] %.8X&.! G 2 t . 3.s.b.[.4X          ",
"        %Xn.i.O W ] ] 6 | eXuXaXpXpXpXaXwX] x W ] ' ' | %.2 W ] ' W v v v G 5 v x v x b 2 G x ] uXaXaXaXuXuXaXuX .l v ' 8X8X] v G W %.&. .F ! I ] yX .I G , x x v x v l v x v v U ' ! ! ' 9XG v ' | ! x ] wXaXaXpXpXpXaXwXwX9X9XeX&.wXsXwXW ! L j > X ,.f.c.{.5X        ",
"        2Xb.8.X T | ! x ' eXaXaXrXrXpXrXrX| v G %.' ' | %.2 W ' ! U G T G W l I x I v T h G x | uXaXaXaXaXaXaXaX%.5 v %.aXaXwXG G &.uXuXuXF ! W G I G ! G 2 T b T G W x W b U F I ' ] ' ' 9XG v ' %.P v ] uXaXpXpXpXpXaXeXP , v G F P F F I ! ` Q l , t % h.M.I.4X      ",
"        2Xb.9.o T | ! x ' eXaXaXrXpXpXrXuX| v G %.' ' | %.2 W ] ' T G T G W l T v T x T h G x | uXaXaXaXaXaXaXaX%.x v %.aXaXwXG G &.uXsXuXF ! ! W G U ! G 2 T b W v W v T b T v G ! ] ! ' 9XG v ' %.v b ] aXaXaXpXpXpXaXrX] x W ] ' ' ] ! ] ! ] W G 2 > $ ;.M.m.3X      ",
"        2Xb.u.X T ] ] 6 W 9XuXpXaXpXpXaXeX] x W | ] ' | %.2 W ] ' T v G v G 2 G l b l G 2 G x | aXaXaXaXaXaXaXaX%.5 F  .uXrX9XG G  .uXuXeXF ! U W %.! W G 2 b x G l G l G l G x I ' ' ' ' 9XG v ' | W x ] eXaXpXpXpXpXaXwX&.| &.9X%.%.wX%.! ! W b , i & :.v.n.:X        ",
"        4Xn.i.O T ]  .x U  .eXaXrXaXaXrX%.T 5 | ] ' ' | %.2 W ! ' W G G G G G G G G G b 2 G x I &.9X9X9X9X8X9X8XI l G G U ! I b G G W W U v ! I ] uX&.G G 2 b G G G G G G G G G W ! ' ' ' 9XG v ' ] ] 5 W %.uXaXaXaXaXeX&.%.| &.&.| 9XaX%.T W x , o ; q.x.'.1X          ",
"        fXn.d.. b !  .W 2 W  .9XuXrXeX&.! x G %.! ' ] | %.2 W ' ] ' ] ! ' ' ' ! ! ! ! T 2 b T x v G F F v v v v x I ! W W W W ^ ! W W W W ! ! W U ] T T b 2 I ! ] ! ! ' ' ' ! ' ] ! ] ! ' 9XG v ' !  .G l ! %.eXuXaXwX%.W 2 G U G G W T G n h t O <.f.v.[.2X            ",
"          '.h.; l W ] %.G 6 U ' ] | ' U l v $.] ! ] ] | %.2 W ' ] ! ' ' ' ] ! ' ! ! ~ W 2 2 T W W W W W W W W W W Q ^ ] ' ] W I T ] ' ' ' ! ! ! T T T T 2 2 W ! ' ' ! ' ' ] ' ' ] ! ' ' ' 9XG v ' ! ] $.x x T ] ] | ] I l b  .] ' ' ! G l u X = q.s.P.,X                ",
"          >Xv.2.o G Q ] &.U 6 l l x l h G ..] ~ ~ ! ! $...4 W ' ! ! ' ' ! ! ! ! ! ! ! ! x < , 2 2 2 2 2 2 h h h 2 l W ! ] G x G G l ' ' W h 2 2 , u 2 , , x ! ~ ! ! ! ! ' ' ' ' ! ! ! ' ' 9XG v ! ~ ^ ] %.H 2 x b b l 5 I  .~ ! W G l , t # :.h.n.[.<X                  ",
"          -Xn.f.% u T ' ' %.$.^ T W W %.$.] ! ' ' ' '  ...5 W ^ ^ ^ ! ! ] ' ' ' ' ! ' ] W v h h h h h h h h u u , 2 W ] W l %.yXwXI v ] R u 2 2 u u 2 h x W ~ ~ ' ' ' ' ' ' ' ' ! ] ' ' ' 9XH F ] ~ ~ ! ] $.#.T b G W |  .W K c h t O # 9.N.n.{.;X                      ",
"            [.c.d.% O x H T R E | ] ~ _ W T W W W T W ` | , T W W T Y W W W W W W W W W W W T T T T T T T T T T z h R ~ b P eXrXaX..7 ^ R u b T T T T W W W W W W W W W W W W W W W ) W W  .G v W W W Y W R W ] { ` _ G z h t + $ <.i.k.P.).;X                          ",
"            oX{.x.g.:.: = = # # # @ # = # @ * # $ - c c n x F c s = @ - * # # @ # # # # # = # # = = # # # # = - X u W ] I n wXaXaX0XW ] W u + # # # = # @ # @ @ @ @ # # # # # # # * - g b n c F n f * = = # = = = = = $ % ,.3.u.V.U.!.^.~.                              ",
"              oX).'.n.z.l.j.j.Z.j.V.V.Z.l.k.V.j.j.a.+.O.~ ] ] -.K.V.k.V.V.j.j.j.j.j.j.l.j.l.j.j.j.j.j.j.j.j.V.p.4.i / [ ] z W 0X#.W 9X0X[ y t.V.j.j.j.j.l.j.j.j.j.j.j.j.l.l.l.l.j.V.C.H.~ O.O.{ O.K.C.l.l.V.j.l.j.l.j.j.l.A.'.!.(.&X                                    ",
"                  |.&X(.).).(.*X(.(.*X*X)._.=X).).XX@.] ' / ' @.oX_.R._.).)._._.).)._.).).).).).)._._._._._._.&Xr.o U ' ] E n 6 l G W X.tXC OX(.).).).).).).).).).)._.).).).^.^._.(.&XJ.' ' ~ / E .X=X/./.(.(.^.^.^.`.~.~.~.|.                                          ",
"                                                        ( (                                                       > l T W ~ ~ ] _ ' W v ^ ..                                              ( ( (                                                                         ",
"                                                                                                                      , 2 2 3 3 h 2 4 4 8                                                                                                                               ",
"                                                                                                                                                                                                                                                                        ",
"                                                                                                                                                                                                                                                                        ",
"                                                                                                                                                                                                                                                                        ",
"                                                                                                                                                                                                                                                                        "
};

