/* XPM */
static char *small_boat_5p_b_V_xpm[] = {
/* columns rows colors chars-per-pixel */
"33 165 235 2 ",
"   c #fffffa",
".  c #533F33",
"X  c #3F4E3F",
"o  c #5E4328",
"O  c #4D4535",
"+  c #4C443C",
"@  c #47443D",
"#  c #534434",
"$  c #55433A",
"%  c #5A4736",
"&  c #6C4829",
"*  c #7A4C2B",
"=  c #644533",
"-  c #724932",
";  c #7A5539",
":  c #6E522F",
">  c #3B474D",
",  c #3C4A4D",
"<  c #3B4746",
"1  c #334D54",
"2  c #3C4D53",
"3  c #3B4A54",
"4  c #3E5155",
"5  c #3E5359",
"6  c #2C4F58",
"7  c #2A5766",
"8  c #28586A",
"9  c #2B627B",
"0  c #444544",
"q  c #414B4D",
"w  c #494947",
"e  c #524847",
"r  c #4E534D",
"t  c #49564B",
"y  c #53544E",
"u  c #56554C",
"i  c #424D53",
"p  c #434C59",
"a  c #435356",
"s  c #4C5454",
"d  c #44555A",
"f  c #4A555B",
"g  c #45595D",
"h  c #4B5A5D",
"j  c #4A5A56",
"k  c #535551",
"l  c #565955",
"z  c #535D5C",
"x  c #5B5A56",
"c  c #6A5948",
"v  c #7A5D46",
"b  c #655F53",
"n  c #5B615B",
"m  c #45605E",
"M  c #68665A",
"N  c #746C57",
"B  c #4A5663",
"V  c #455B62",
"C  c #4C5D63",
"Z  c #4C5F68",
"A  c #455661",
"S  c #515D64",
"D  c #565E68",
"F  c #4D6165",
"G  c #4E636A",
"H  c #4E6A6D",
"J  c #47606A",
"K  c #526266",
"L  c #54656B",
"P  c #59666B",
"I  c #556A6D",
"U  c #596A6D",
"Y  c #596866",
"T  c #55726B",
"R  c #4E6C72",
"E  c #4E6D7A",
"W  c #4D6570",
"Q  c #546571",
"!  c #596772",
"~  c #556B72",
"^  c #5A6C72",
"/  c #546D79",
"(  c #5C6E79",
")  c #557075",
"_  c #5D7175",
"`  c #54717A",
"'  c #5D747B",
"]  c #5E7A7C",
"[  c #5F7975",
"{  c #4D706F",
"}  c #656C69",
"|  c #737668",
" . c #616E75",
".. c #627375",
"X. c #62747A",
"o. c #64797D",
"O. c #697C7E",
"+. c #697575",
"@. c #727D7E",
"#. c #65706D",
"$. c #9C541E",
"%. c #97561F",
"&. c #8E4D1C",
"*. c #A1521C",
"=. c #AA5B1D",
"-. c #BC621E",
";. c #A9621F",
":. c #854E2A",
">. c #8D562C",
",. c #8C582C",
"<. c #8E5122",
"1. c #955624",
"2. c #9A5522",
"3. c #9A5A23",
"4. c #92552D",
"5. c #93592C",
"6. c #995828",
"7. c #8C5731",
"8. c #8A5934",
"9. c #855A38",
"0. c #AA5D21",
"q. c #A76125",
"w. c #BA6724",
"e. c #B86D35",
"r. c #B7722F",
"t. c #906336",
"y. c #C9681C",
"u. c #D76A17",
"i. c #DD731C",
"p. c #DB7718",
"a. c #CA7218",
"s. c #ED6D0E",
"d. c #EB730D",
"f. c #E6780F",
"g. c #E66F1A",
"h. c #E57214",
"j. c #E2721C",
"k. c #E47C1B",
"l. c #E87817",
"z. c #F2710E",
"x. c #C96923",
"c. c #C67227",
"v. c #DC7421",
"b. c #DA7D24",
"n. c #C57738",
"m. c #D27730",
"M. c #E27322",
"N. c #E46F20",
"B. c #976B47",
"V. c #977954",
"C. c #8C714F",
"Z. c #AC7D48",
"A. c #807F62",
"S. c #6F8373",
"D. c #BF8D3E",
"F. c #DD861F",
"G. c #E5831D",
"H. c #E9821E",
"J. c #DD8524",
"K. c #DA8728",
"L. c #D78935",
"P. c #C5933D",
"I. c #D89337",
"U. c #D28D31",
"Y. c #E28423",
"T. c #E48829",
"R. c #E2912C",
"E. c #E28A32",
"W. c #E5993A",
"Q. c #99895B",
"!. c #948351",
"~. c #AF8243",
"^. c #BC8D4B",
"/. c #BD9245",
"(. c #BB9946",
"). c #BC9349",
"_. c #B69448",
"`. c #A89559",
"'. c #B69657",
"]. c #B38F52",
"[. c #9B8863",
"{. c #84897A",
"}. c #938F74",
"|. c #8C8E6E",
" X c #A99964",
".X c #BAA773",
"XX c #B8B475",
"oX c #BEAF68",
"OX c #C28B43",
"+X c #C29344",
"@X c #CA9243",
"#X c #C39449",
"$X c #C89947",
"%X c #D79944",
"&X c #D99E53",
"*X c #E19C42",
"=X c #D6A24D",
"-X c #CCAB5E",
";X c #C8A858",
":X c #D3AA5D",
">X c #D6A555",
",X c #CCA14A",
"<X c #CDAC63",
"1X c #CCAC6B",
"2X c #C4AB65",
"3X c #D2AC63",
"4X c #D1AC6A",
"5X c #D7AA63",
"6X c #C6B164",
"7X c #C9B775",
"8X c #CCB06F",
"9X c #E6A94B",
"0X c #5B7885",
"qX c #4B6D82",
"wX c #637581",
"eX c #647B82",
"rX c #6B7D84",
"tX c #677C87",
"yX c #727E83",
"uX c #658283",
"iX c #6C8285",
"pX c #6D858A",
"aX c #6E8A8D",
"sX c #66868A",
"dX c #728387",
"fX c #72858B",
"gX c #728A8E",
"hX c #798785",
"jX c #6E8B92",
"kX c #6D8590",
"lX c #728B92",
"zX c #78929C",
"xX c #859287",
"cX c #B1BA91",
"vX c #D1BE89",
/* pixels */
"                                                                  ",
"                                                                  ",
"                                XX                                ",
"                              :XI.2X                              ",
"                            :Xk.z.Y.6X                            ",
"                          -XH.s.s.z.L..X                          ",
"                        8XR.d.-.&.y.z.%X                          ",
"                        *Xd.x.& # * u.l.-X                        ",
"                      -Xk.y.- 0 0 O :.u.J.2X                      ",
"                      R.i.>.+ > i q O 3.p.W.                      ",
"                    &Xl.0.$ q d F d < = -.f.=X                    ",
"                    T.x.& 0 d I I L i 0 :.u.R.`.                  ",
"                  >Xp.>.@ q L ~ I I F q $ 0.k.%X                  ",
"                8XE.w.% < h ! ! ~ ~ I j 0 & c.R.`.                ",
"                >Xj.4.0 a Y C C ~ H m j q + 6.k.$X                ",
"                I.y.= , F o.fXC L o.aXV d q - a.R.                ",
"              :Xp.2.w f I tXzXF K o.zXG K i $ q.Y.).              ",
"              *Xa.& q K ~ ' tXg I ( tXL Y C < * v.I.              ",
"              L.;.# a I I _ pXg I ' rXS Y I 2 % w.I.              ",
"            :Xb.>.w C I U ' lXg ^ ' dXC I I g + 3.J.^.            ",
"            9Xa.- p L Y ^ wXgXd ^ X.pXG I U L w * v.#X            ",
"            W.w.% f I ' ' U dX< d F iXC _ _ ~ s % x.%X            ",
"            T.q.# z _ ( 5 C dXd I _ rXd a ' _ h # -.I.            ",
"          vXk.2.$ Y ..5 V U iXrXtXtXrX! d 5 ' P O =.K.            ",
"          8Xj.1.w ..C d ~ O.fXlXjXlXaXo.Y 4 G ^ w *.J.D.          ",
"          <Xj.>.k ' d F ' fXgXjXjXlXjXfX..F 5 ..w 2.J.+X          ",
"          <Xj.7.l ^ a Y rXgXlXjXjXjXjXlXeXL 4 ( s 1.J.+X          ",
"          <XM.7.z I d Y iXgXlXjXlXjXjXlXeXI 2  .k 1.Y.).          ",
"          <Xi.,.l ^ a Y eXlXjXjXlXlXjXlXeXG 4 ..k 1.Y.).          ",
"          1Xi.>.k ..f C ' jXjXlXgXlXjXpX' V d +.y 2.Y.).          ",
"          1Xi.,.u ..F d ~ o.aXlXlXgXpXeXI 5 L ..k 2.Y./.          ",
"          1Xi.7.y U ' d d I _ eXtX] ) Y d V ..U k 1.Y./.          ",
"          4Xv.8.u I _ ' d a F G I L C i B wX_ Y u $.F.(.          ",
"          1Xv.9.y I ~ ^ +.L d 4 d a d P wX` I P u 2.K._.          ",
"          .Xn.v k I ~ ! ! .._ ' _ _ ' _ / E ~ I k 9.OXQ.          ",
"          S.C.b f I I ~ ! U ~ ^ ^ ~ ~ I ~ R ~ ~ g M C.|           ",
"          ` Y z f I ~ ! ! ! ~ ~ U ~ ~ U U U I ~ V K } ~           ",
"          / ~ C d F G K K F F F K F K K K S S Z A Q ( /           ",
"          ` I B 3 1 2 2 2 2 1 2 2 2 2 2 2 2 2 2 2 I / E           ",
"          ) Y C L iXiXyXdXpXpXiXdXdXiXpXpXpXiXrXK K T {           ",
"          ^ M l h ) ) ^ ^ ^ _ ^ _ ^ U _ ) ( ^  .B n M I           ",
"          }.B.c j ~ ~ I K C C C C C z C I ~ U U f v V.A.          ",
"          1Xv.8.s ~ I h 3 2 2 2 2 2 , , 4 G I I s 8.L._.          ",
"          5Xh.4.k U K q d S Y Y ~ Q K h , g I I u 2.G.P.          ",
"          4Xi.,.y U K q K ! rXdXpXpX_ Y a d ~ I u *.H.+X          ",
"          <Xi.,.u U K , L ^ pXgXlXlX] I f f ~ ~ y $.J.).          ",
"          <Xj.>.y I G , G ^ pXgXjXlX] I d f ! ~ s 1.K.).          ",
"          3Xg.4.y I F , L / pXjXjXgX] I d f ! ~ s 1.J./.          ",
"          <XN.7.u U L 2 I ( pXlXjXgXo.~ d d I ~ k 2.J./.          ",
"          <XM.7.u ! L 2 L ^ pXgXjXgXo.~ d a I I k 2.Y.).          ",
"          <Xi.,.y ~ L 2 L ^ iXpXpXiX_ ~ d d I I k 2.J./.          ",
"          <Xi.,.y ! L , C P ^ ^ _ _ I L 2 d I I y 2.J./.          ",
"          <Xi.,.y ! L a 2 d d d d d d 5 2 F ~ I y 2.J./.          ",
"          3Xj.,.y ! ! K d d a d d 4 4 d C I ~ I y 2.J.).          ",
"          <Xj.,.y I ~ I I U P P I I I ~ U I ~ I y 2.J.).          ",
"          <Xj.,.y I ~ I ~ I U I ~ U I ! I I ~ I y 2.J./.          ",
"          <Xj.,.k I ~ I I P g d d d g P I I ~ I y 2.Y.+X          ",
"          <Xj.,.y I ~ I ~ P d C L C d ~ U I ~ I y 2.Y.+X          ",
"          <Xj.,.y I ~ I ~ P d C B d d P I I ~ I y 2.Y.+X          ",
"          <Xj.4.y ~ ~ I ~ I d C S h f P I I ~ I y 2.Y.+X          ",
"          <Xj.,.k ~ ~ I I P d h d d f ~ I I ~ I y 2.Y.#X          ",
"          <Xj.,.k ~ ~ I I P d C K h f ~ I I ~ I y 2.Y.#X          ",
"          <Xj.,.k ~ ~ I ~ P d C C h f ~ I I ~ I r 2.Y.#X          ",
"          6Xi.,.y ~ ~ I I P d C C h f I I I ~ I r 2.J.#X          ",
"          <Xj.,.y ~ ~ I I P d F F C f ~ I I ~ ~ r 2.Y.+X          ",
"          <Xj.,.y I ~ I I Y d h h d f I I I I ~ k 2.K.(.          ",
"          <Xj.,.y I P K F C d K L C a C F K U I r 2.J.#X          ",
"          3Xj.,.y P f , , i , 2 2 2 , 2 3 2 C P k 2.Y.$X          ",
"          <Xj.,.y C 2 i h S C C F F S C d , i L k $.Y.#X          ",
"          <Xj.,.y g 3 f P C Z G I F V C H 5 , S k %.J.#X          ",
"          3Xv.,.y d 2 S S ' eXC K L tX^ F g > C k $.Y.@X          ",
"          5Xi.,.u d 2 S K pXlXI C U lXrXF g , h y $.G.@X          ",
"          :Xh.,.u d 2 h h ~ ' d Y F ' I C f , g y 2.Y.@X          ",
"          1Xi.7.y d , h I F C I I Y Z G ! f , g y 4.L.'.          ",
"          }.e.; s d , h I ~ ! I I I ~ ! P f , d t ; Z.Q.          ",
"        qXz % e q 2 4 F I L V C F F V I I h , 2 q % : |           ",
"      9 0XrXf S K F G I I V Q rXS.O.P G I K K G F z } hXV         ",
"      8 G O.I L ~ ~ ^ U I V X.gXaXgX..F I I ! ! ~ ) eX~ d 1       ",
"      8 F ..dXB d V L U U B X.gXaXgX_ F I ^ L A d _ eXG C 1       ",
"      8 G ~ I o.I P a L U B ~ pXpXiXL C ^ C a P ' eXg ! C 1       ",
"      8 G B C gXlXpXP g ^ L d V C g d Y ! d ! fXgXiXg S Z 1       ",
"      7 F d I aXaXgX' 4 ^ P C B B B C P U d o.gXgXpXG d L 1       ",
"      7 G B C iXgXpXI d ^ C F ' X._ C C ^ 4 ^ dXgXuXC C F 1       ",
"      7 K P a G ^ I d F I g ' lXgXgX' F ^ F g I _ F d I C 1       ",
"      7 F ^ K h d g L ^ I V ' gXlXlX' F ~ ^ L h d B Y ! C 1       ",
"      7 F ! U ! ! ! ! I I V ) pXpXpX~ F ^ I ! ! U U U U C 1       ",
"      8 g ! I ~ ~ ~ I I I F g B C C g L ~ ~ ~ I I U U P d         ",
"      8 1 d h h g V g L I L B B B C C P ~ G h h g h h d 3         ",
"        6 X + + < 3 , C L 2 d d d f i p G g , > 3 O O ,           ",
"           Xe.; s d , C F h iXpXpXpXeXB G g < f s ; ~.!.          ",
"          3Xj.,.s B , C C F lXgXjXjXaXS L g < j y 4.K./.          ",
"          4Xi.,.k h , S F F lXlXjXjXaXK D f , g u *.H.@X          ",
"          1Xi.,.k f q C C G lXjXlXlXpXK D f 3 g r $.Y.#X          ",
"          3Xh.>.y f , C Z G lXlXlXlXaXF L B 3 V r $.Y.).          ",
"          :Xh.5.y f , C Z G lXlXlXlXsXF G B 3 V y 2.J./.          ",
"          <Xi.,.k f , C Z G lXlXlXjXsXF L f , h u 2.Y.+X          ",
"          <Xi.,.k f , C Z F lXlXgXlXaXK L f , h y 1.Y.+X          ",
"          <Xj.,.k f , C C C gXgXgXlXdXC L j , h y 2.J./.          ",
"          2Xv.>.y B 2 C F i Y ^ ^ U S d L f > B k 2.K._.          ",
"          6Xi.,.y B , d I h d d d a f C L i > B k 2.J.(.          ",
"          :Xj.>.k F 2 , d h C C C C h V 4 , i L k 2.Y.+X          ",
"          3Xj.>.y I C 4 2 2 2 d 4 4 i 4 2 a S I k 2.Y.+X          ",
"          <Xi.>.y ~ I L L K d L L F f G G Y ! ~ y 2.J.).          ",
"          <Xi.>.k I I I ~ Y d d d d f ~ I I ~ I y 2.J.).          ",
"          3Xj.>.k I I I ~ I g P Y K h ~ I I ~ I y 2.Y.).          ",
"          3Xj.>.k I I I ~ I d d g d f ~ I I ~ I y 2.Y./.          ",
"          :Xj.,.y I I I ~ Y d K K h f ~ ~ I ~ U k 2.J./.          ",
"          3Xj.,.u Y ~ ~ I I a B h d d P ~ ~ Y P k 1.K._.          ",
"          3Xj.7.u Y ~ ~ I I a C C g g Y ~ R I I y 2.Y.^.          ",
"          5Xi.7.u Y ~ ~ ~ I d C B g d Y ~ / ~ I y $.H.OX          ",
"          5Xj.8.k I ~ ~ ! I d C C C d Y ! / ~ ~ u 2.J./.          ",
"          .Xn.v k I ~ ~ ! P g C S C d Y U ~ ~ ! k 9.^.[.          ",
"          0X+.x f I ~ ~ ! I F C C V F I I I I ! d M | X.          ",
"          qX~ h h I I I ! I I I I I ~ I I I Y P V G ~ E           ",
"          ` I h 2 5 d d d d 5 d d d d d d d f f 4 W { R           ",
"          ` I B d H I P P I I I P P Y I P P Q Q h L ~ ~           ",
"          ) U z F eXo.o.o.o.o.o.o.eXo.o.o.eXwXo.F K ^ ~           ",
"          T M x h ~ ~ I ~ ~ I I ~ ~ I Y ! ~ ~ U V n } U           ",
"          }.B.c f ~ ~ I I ~ I ^ ^ ^ U I ~ ~ ~ I j v V.|           ",
"          8Xm.9.j ~ ! Y ^ o.X.^ P ^ ..' ^ ~ ~ I y 5.L.].          ",
"          5Xj.,.k ~ ! .._ V 4 4 a a 4 V _ ' ~ I u $.G.P.          ",
"          5Xh.>.y U ..Y 4 d L ~ ! I G 5 a .._ R k *.H.+X          ",
"          3Xi.,.y ^  .a C ! o.iXpXtX' I h s ../ s 2.Y.).          ",
"          1Xv.,.k ..C d ~ tXgXlXlXlXfXo.I a K _ f 6.K.).          ",
"          <Xj.,.k ..d G ] lXlXgXlXlXgXpX' C a X.j 1.J._.          ",
"          :Xh.4.l ! d I uXlXaXgXlXgXgXjX0XQ i ..k $.F./.          ",
"          -Xg.4.x ! 2 I sXjXjXlXjXjXgXjXtXI d +.y 2.J./.          ",
"          <XM.7.k C C iXpXjXlXjXjXlXjXlXeXL 5 ..k 2.J.).          ",
"          <Xi.8.0 ^ fX..' kXlXlXlXlXlXpX_ h d X.y $.J.).          ",
"          2Xr.: #.lX^ d L ' fXfXlXlXpX' L 2 P _ y 3.J.).          ",
"          S.C.N @.' ' a 2 ' rXX.eXo.^ G d h o.U y 2.J./.          ",
"          uXxX| h ~ ~ C X.iXY F I F g 5 C ..^ I y 1.J.+X          ",
"          xX[.M d J G rXfX^ g d 5 d C ~ ..^ I I k 1.K.(.          ",
"          .Xn.; a ~ rXO._ _ _ _ ^ ....^ ^ U ~ ~ k 1.K.).          ",
"          8Xm.; @.lXo.I I ~ I ^ ! U U ~ I I ~ ~ s 5.L.].          ",
"          }.V.M yXtX^ I I ~ ~ ! ! ! U I U U ~ ~ f v Z.|.          ",
"          _ U C C U Y Y P P P P P P Y I Y P Q R f P #.^           ",
"          ) Y C 3 2 2 2 2 2 2 2 2 2 2 4 2 2 2 1 2 P U I           ",
"          ) Y h C _ _ _ _ _ _ _ _ _  ._ _ _ _ _ C L ^ ~           ",
"          ` ~ C K o.o.eXeXo.o.o.o.o.wXeXeXo.o.X.Z L ^ E           ",
"          ~ I h f I ~ ~ ~ ~ I ~ I I ! ~ R ~ I U B n } ~           ",
"          S.C.b j U ~ ~ ~ I ^ _ _ _ ! ~ ~ I I U f b C.|           ",
"          .Xn.; k U ~ ~ ^ ..^ ~ ~ ! ' _ ~ ~ I U f 9.D.`.          ",
"          4Xi.8.y Y ~ ' _ h 2 d 5 5 2 h _ ' I I k 1.J.$X          ",
"          3Xi.,.u Y X.~ 4 f K Q Q I G a a ^ _ I k *.G.$X          ",
"          <Xj.,.k ^ ^ 5 C U o.iXsXsX_ P B d ..U y $.G.@X          ",
"          3Xj.,.k X.C g ~ tXlXaXjXjXaXeXQ d K ..r 2.Y.#X          ",
"          3Xj.,.l ..a G ' fXjXjXlXlXgXpX' C a ' j 2.J.).          ",
"          <Xj.,.l ^ a I pXlXlXjXlXlXgXjXeXK d 0Xj $.Y.).          ",
"          <Xj.,.x ! a I pXlXjXjXjXlXgXjXuX^ 5 0Xs *.Y.#X          ",
"          -Xj.,.l ^ a I tXlXjXjXjXjXlXlXO.dX_ ' k $.H.P.          ",
"          3Xj.,.l ..a F ' fXlXjXjXjXlXpXY h iXfXn 5.K./.          ",
"          3Xj.,.k X.K d ~ o.fXlXlXlXpX' Y 3 d ..hXC.^.`.          ",
"          3Xj.,.l ^ _ d d P ^ eXeXwXuXuXC V ' h h | }.{.          ",
"          3Xi.,.r ~ ^ _ V 5 C K L D g [ iXtX( P 2 b {.            ",
"          4Xi.6.w Q ~ _ ' G f i d d d h _ fXtXU w >.t.            ",
"          7Xk.-.o j L U ! ' X._ ' ' ' #.F F X.' +.e.U.!.          ",
"            R.u.<.O h L I ~ ~ ~ T T H ~ I h q O.xX~.$X            ",
"            :Xl.u.&.O 4 g F L P K K G C A q . - B.r.'.            ",
"              *Xd.u.=.& o # + w e e e $ = * 0.a.c.@X              ",
"                =Xk.d.u.y.0.1.5.5.6.6.q.y.u.d.G.=X                ",
"                  6X%XE.M.l.h.h.h.h.f.f.k.Y.W.>X                  ",
"                      cXXX;X$X$X$X%X,X;XoX                        ",
"                                                                  ",
"                                                                  "
};

