/* XPM */
static char *small_boat_4p_b_V_xpm[] = {
/* columns rows colors chars-per-pixel */
"33 132 227 2 ",
"   c #fffffa",
".  c #5F452F",
"X  c #4B453B",
"o  c #49473B",
"O  c #524434",
"+  c #584538",
"@  c #674B2E",
"#  c #6A4A2E",
"$  c #684528",
"%  c #764B28",
"&  c #644632",
"*  c #664B33",
"=  c #6A4A32",
"-  c #644C3A",
";  c #714B31",
":  c #7A5129",
">  c #3C4846",
",  c #3C4B4D",
"<  c #3A484B",
"1  c #3D514E",
"2  c #3C4C52",
"3  c #3B4C59",
"4  c #344F57",
"5  c #3D5155",
"6  c #3E5359",
"7  c #3B555B",
"8  c #2D474C",
"9  c #2C566B",
"0  c #2B5A6C",
"q  c #24556B",
"w  c #215970",
"e  c #284C62",
"r  c #22607C",
"t  c #434644",
"y  c #4E4C43",
"u  c #434B4B",
"i  c #474844",
"p  c #544C48",
"a  c #4C534C",
"s  c #5A5143",
"d  c #52524C",
"f  c #5A534C",
"g  c #535549",
"h  c #414D53",
"j  c #444F59",
"k  c #484D52",
"l  c #435356",
"z  c #4A5355",
"x  c #44555A",
"c  c #4A565B",
"v  c #46595E",
"b  c #495A5D",
"n  c #495956",
"m  c #535452",
"M  c #555A5B",
"N  c #775C45",
"B  c #5F635B",
"V  c #4C615B",
"C  c #676E5B",
"Z  c #7A6B57",
"A  c #787255",
"S  c #78654F",
"D  c #4C5562",
"F  c #455B61",
"G  c #4B5D63",
"H  c #4C5E6A",
"J  c #485765",
"K  c #515D65",
"L  c #505D68",
"P  c #476063",
"I  c #4D6165",
"U  c #4E6269",
"Y  c #4E6A68",
"T  c #526265",
"R  c #5A6564",
"E  c #596B64",
"W  c #53656B",
"Q  c #59666B",
"!  c #556A6E",
"~  c #596A6D",
"^  c #576C67",
"/  c #4E6B74",
"(  c #4B6D79",
")  c #4E6670",
"_  c #566670",
"`  c #596672",
"'  c #556B71",
"]  c #5A6C73",
"[  c #536B79",
"{  c #5A6C79",
"}  c #4C7977",
"|  c #5C7276",
" . c #5D737A",
".. c #5D787C",
"X. c #567476",
"o. c #4D7A6A",
"O. c #636D6D",
"+. c #746C64",
"@. c #6B7469",
"#. c #616D72",
"$. c #617275",
"%. c #61757B",
"&. c #64797E",
"*. c #6C7C7F",
"=. c #607872",
"-. c #757069",
";. c #BD5C0F",
":. c #A65A1E",
">. c #BC671D",
",. c #81502A",
"<. c #8B5426",
"1. c #9D5D25",
"2. c #9E5A2A",
"3. c #965526",
"4. c #815A3A",
"5. c #965D32",
"6. c #9C5C32",
"7. c #864B28",
"8. c #A15B26",
"9. c #A05B2A",
"0. c #A05723",
"q. c #B85F23",
"w. c #A45931",
"e. c #9F6225",
"r. c #896838",
"t. c #9D6D3B",
"y. c #9E7B3C",
"u. c #AB6427",
"i. c #B46224",
"p. c #BF7431",
"a. c #AA6F3C",
"s. c #D86E0F",
"d. c #C3671D",
"f. c #CF691A",
"g. c #CA6718",
"h. c #D56A17",
"j. c #CF721E",
"k. c #CF7315",
"l. c #D1721D",
"z. c #D8771A",
"x. c #E9740E",
"c. c #EB7407",
"v. c #F27008",
"b. c #E36D14",
"n. c #EB741B",
"m. c #E57B1C",
"M. c #E87816",
"N. c #F06C08",
"B. c #CC6C21",
"V. c #D06921",
"C. c #CC7322",
"Z. c #C7732C",
"A. c #D07221",
"S. c #DD7E25",
"D. c #DE7F29",
"F. c #E17F26",
"G. c #E07F2B",
"H. c #885C42",
"J. c #936A45",
"K. c #8F704E",
"L. c #A87549",
"P. c #8F7864",
"I. c #E4831A",
"U. c #E9881F",
"Y. c #DD8125",
"T. c #DD802A",
"R. c #D8872C",
"E. c #DC952D",
"W. c #C88539",
"Q. c #DA8233",
"!. c #D3823A",
"~. c #DF8B30",
"^. c #C89439",
"/. c #DB9635",
"(. c #D99834",
"). c #D5953C",
"_. c #DA973A",
"`. c #DA993A",
"'. c #D69838",
"]. c #E68827",
"[. c #E28D35",
"{. c #E39839",
"}. c #E3922C",
"|. c #B4824B",
" X c #B79148",
".X c #A0825E",
"XX c #A08B5C",
"oX c #B68C56",
"OX c #BB9951",
"+X c #AB894D",
"@X c #828F6B",
"#X c #92937F",
"$X c #8A8A79",
"%X c #B9AA6F",
"&X c #BEB072",
"*X c #CA9544",
"=X c #DA9641",
"-X c #D49842",
";X c #D09F4E",
":X c #C89B51",
">X c #D29B53",
",X c #E69B42",
"<X c #DAA84C",
"1X c #C8A85A",
"2X c #D6A853",
"3X c #C5AB63",
"4X c #C8AD65",
"5X c #C7B168",
"6X c #CBAE6A",
"7X c #487588",
"8X c #537183",
"9X c #657C83",
"0X c #697C83",
"qX c #687986",
"wX c #6B8186",
"eX c #6D848A",
"rX c #6E8A8E",
"tX c #668384",
"yX c #72858B",
"uX c #73898E",
"iX c #728083",
"pX c #71908F",
"aX c #6F8C92",
"sX c #728B91",
"dX c #788E94",
"fX c #B4BC8C",
"gX c #C0BC83",
/* pixels */
"                                                                  ",
"                                                                  ",
"                                                                  ",
"                              5X3X                                ",
"                            6XU.M.>X                              ",
"                          4X}.v.v.m.2X                            ",
"                          {.c.h.;.b.].3X                          ",
"                        2Xn.f.% $ :.x.{.                          ",
"                      5X].s.,.t > & q.b.<X                        ",
"                      /.x.3.X , 2 t ; f.I.1X                      ",
"                    1Xm.i.. > l G , X <.s.{.                      ",
"                    E.V.= t j ` ! b , O q.m.:X                    ",
"                  1Xz.3.o 2 W ` ' W x t = h.}.                    ",
"                  _.d.& > G ! ! ! ! W h X :.m.:X                  ",
"                4XS.3.X l ! W U ' ! T c u # B._.                  ",
"                {.g.& , T &.wXF ! &.%.G l t 2.I.^.                ",
"              2XI.0.i c ! 0XdXF ' wXdXT G , # k./.                ",
"              <Xk.% u T ' &.wXP ' &.0XW ! l O i.~.                ",
"              ).>.+ x W ' ] &.F ' %.| G ' G t <.Y.*X              ",
"            1XT.3.u G ^ !  .wXG ] 0X&.G ' ! h $ C.).              ",
"            <Xk.% h W ! | 0X0Xv W &.0XU ' ! c + u.~.              ",
"            ,X>.$ z !  .' W 0X, l ] | G  .~ K t 3.]. X            ",
"            [.u.X M $.! 5 ! wXP ' &.%.2 b  .! k ,.S.^.            ",
"            Q.9.X Q ~ 5 T | wXeXrXwX&.W l U  .z % l.^.            ",
"            T.1.y $.x G ] eXsXsXsXsXeX%.I 5 | G $ j.^.            ",
"            T.8.d ~ l W 9XsXaXsXaXaXsXwX' l W _ = j.'.            ",
"            D.8.m W l ! rXaXaXaXaXaXsXsX| c G ` = j.(.            ",
"            D.8.m W l ' rXsXaXaXaXaXsXuX] c b { = j./.            ",
"            D.8.m ] l ! 0XsXaXaXsXaXsXeX] x T ] = l.(.            ",
"            F.2.m  .l G | yXsXsXsXsXuX&.T 3 #.Q = j.'.            ",
"            Y.2.m ] Q j W  .wXuXsXeX&.! x G $.W # l.'.            ",
"            G.1.d ' &.K l T ] ] ] ] Q l x %.] W = l.(.            ",
"            Y.1.d ! ' %.T 5 l v b l 5 G $.] ! Y = l.(.            ",
"            !.5.d Q ^ ! %.%.! G v W ]  .] Q ~ W * Z.-X            ",
"          #X.XS z W ! ! ] ' | %.%.| ] ! ! ~ ~ Q f L.XX            ",
"           .~ T l ! [ ! ' ' ' ' ' ' ' ' ' ! ' W c O.E             ",
"          8X[ L k D D D b v v v v v v v v v F v F { / (           ",
"          } ^ K j G G G G G G G G G G G G G H D c O.~ (           ",
"          } E V P 9X9X&.0X0X0X0X0X0X0X0X0X0X9X .n O.' (           ",
"          X.Q b x ` ' ! ' ' ' ' ' ' ' ' ' ' ' Q c ~ [             ",
"            J.N z ' [ ~ ' ' ! ' ! ' ' ! ' ' ' W g J.K.            ",
"            !.5.a / ' ! ! ! ! ] ' ' ' ' ' ! ' ) - Z.*X            ",
"            Q.2.a ! ' ! ! ' ' ' ! ' ! ! ! ! ] W * C.).            ",
"            D.8.g W ! ! ! ! U I G I ! ' ' ! ! Q # j.`.            ",
"            T.8.g W ' ! ! W c F v l G ' ' ' ' Q # l.(.            ",
"            D.8.g ! [ ' ' ! v U T D G ! ' ' [ W # l.(.            ",
"            T.8.d ' [ ! ' ! l b b x G ' ' ' [ W # l._.            ",
"            T.8.d ' [ ! ! ! v Q T D G ' ' ' ' W # l._.            ",
"            Y.8.d ! ] ^ ! ! x x c x G ' ' ! ' W # j._.            ",
"            Y.8.d ! ! ^ ! ! F ! ! G G ! ! ! ' W # j.`.            ",
"            D.8.d ! ! ' ' ! x D c x G ! ' ! ' W @ j._.            ",
"            D.8.d W ! ! ! ! v T W D G ] ' ! ' W @ j._.            ",
"            D.8.d W ! ' ! ! x b b x G ! ! ~ ~ W @ j._.            ",
"            D.8.d W ! W T I x W W b b I W ! ~ W @ j._.            ",
"            D.8.d W G 3 2 2 , 2 2 2 2 2 2 x Q W # j._.            ",
"            D.2.d G 2 2 c G I G G G G b 2 , x Q @ l._.            ",
"            T.2.d b , c Q T I ! ! W G T T , h W # j._.            ",
"            D.8.d b 2 G G %. .G U ! &.T T 2 2 T = j._.            ",
"            D.8.d b 2 G T yXyXI G %.uX] T u u T # j._.            ",
"            D.8.g c 2 G G ] ] G W ! ] U T , u T # j._.            ",
"            !.6.d b 2 U ! T I ! ! U I W ! 3 3 T # C._.            ",
"          @XL.4.a c , U ' ' ! W ! ! ! ! ! 3 2 b + t.+X            ",
"        7XY O y , 2 2 K ' U F F F F v ! ! h u u u y C ..          ",
"      r ( pXT Q Q W ! Q ! F  .uXuXeXU W ' ! R R ! [ tXW 8         ",
"      q F  . .W ! ] ' ] ' v &.uXdXyXW W ' [ ] Q ] qXX.v 4         ",
"      0 F ] wXT x l U [ ' v &.uXuXuXW W ' ! v 7 W 0XW W 4         ",
"      0 F ] I *.| ' x W ] G W &.&. .D W ] l I ..qXQ G ' 2         ",
"      0 D U F yXuXrX] z ] W G D G G G ! T D wXsXdX#.l _ h         ",
"      0 G H H eXuXuX .j ] T v D G D b W I G yXrXsXqX6 ] 3         ",
"      9 G W x %.eXwXU G ] v ] wXwX0XI ! Q x &.eXwXW x ~ 3         ",
"      9 G ' b l G F 6 ~ ' v 0XsXsXrX! W ] D x P x z R Q 2         ",
"      9 G ! ] T H U ! ] ' F 9XsXsXuXU W ' | ! b I ] ] W 2         ",
"      0 D ' ' ] ` ' ^ ] ' v ' &. . .G W ] ! ] ~ ] [ ' T 1         ",
"      w 3 I W W ! W T ` ~ T v v v F G ! W W ! W Q / U l           ",
"        e , y i h , 5 T Q l l 5 l 5 l I Q x 2 h u i o >           ",
"          A r.= u h 2 I G l  .&.&.%.I l Q 2 , z X 4.r.            ",
"            W.5.d c h P G W uXsXsXsX0Xv ! h u T - p.*X            ",
"            T.8.d b 2 I G W sXsXsXsX9Xv Q h u T = C.`.            ",
"            D.8.d c 2 K G W uXsXsXsX9Xv Q 2 h T # j.`.            ",
"            D.8.d c 2 K G W uXsXsXaX9Xv Q 2 h T # j.`.            ",
"            D.8.d c 2 K G W sXsXsXsX9XF ! 2 h T # j.`.            ",
"            D.8.d c 2 K G W sXsXsXsX9XF ! 2 h T # j.`.            ",
"            D.8.d x 2 G G W dXsXsXsX9XG W 2 h T = j.`.            ",
"            D.8.d b 2 G G U uXuXuXdX&.v W 2 h T = j._.            ",
"            D.2.d b 2 G G l ] | | | I x Q 2 h T # j._.            ",
"            D.8.d c , c ! v l l l l l T T , h T # j._.            ",
"            T.2.d G 2 , x G G G G G G b 2 < c Q = l._.            ",
"            T.9.d Q b 2 2 2 2 h h 2 2 2 2 l W Q # j._.            ",
"            T.2.d W ! Q W I b W W G b T W ! ] W # l._.            ",
"            T.2.d W ! ! ~ Q l c x l G ! ~ ! ' W # j.`.            ",
"            T.2.d ! ' ! ! W v I T b G ! ! ! ! W # j._.            ",
"            D.2.d ! ' ' ! ! l x v l G ! ! ! ' W # j._.            ",
"            D.8.d ! ' ' ! W v I T D G ! ' ! ' W @ j.`.            ",
"            D.8.d ! ' ' ' ! 5 x x 3 G ' ! ! ' W # j.`.            ",
"            D.8.d ! ' ! ' W D ! ! G G ' ] ! ' W # j._.            ",
"            T.2.d ! ! ! ' ! c G G c G ' ' ! ] W * C._.            ",
"            T.1.d ~ ~ ~ ! ! c T W D G ! ' ' ! ! - C.`.            ",
"            Y.8.d ! ' ' ' W v D G c G ' ' ' ! Y @ k.E.            ",
"            T.2.d ~ ' [ ' ' W U T T W ' ! ! W T = C.`.            ",
"            |.H.z ! ! ! ! ' ' ! ] ' ' ' ' ! Q Q s L.oX            ",
"            +.B l ! ! ~ ! ' ] ' ] ] ! ! ! ! Q W c -.@.            ",
"          8X` G l Q ! Q ! ! ! ! ! ! ! ! ! W Q T F ] [             ",
"          8X[ U > 2 5 3 3 3 3 3 3 3 3 3 2 4 5 , x ] / (           ",
"          } ! G G  .X...&.%.%.%.%.%.%.%.%.....| x ~ ' (           ",
"          o.E K J | |  . .| | | | | | | | $. .[ c O.]             ",
"          =.C M l ! [ ! ' ' ' ' ' ' ' ' ' ! ' W c +.@.            ",
"            |.H.d W ' ' ' ' ' ' ' ' ' ' ' ! ' T - a.oX            ",
"            Y.w.f E Q ' ' ] ] %.%.| ] ! ! ! ' ! $ j._.            ",
"            S.w.m W E ] %.$.Q G G W | %.] ~ ' W # j._.            ",
"            Q.6.a ! ] %.G 5 l v v l 5 G $.] ! W * C.-X            ",
"            D.2.a !  .H 5 T ] | | ' T l c  .] T @ k.`.            ",
"            F.8.d | W l W  .wXrXuXeX&.! x G $.W # l._.            ",
"            Y.8.d $.l T  .rXsXrXrXsXrX&.U h %._ = A.=X            ",
"            T.8.f ~ l ! wXsXaXaXaXaXsXeX' x ! ~ # C.=X            ",
"            D.2.m ! x ` rXsXaXrXaXaXsXrX| x W ] @ C._.            ",
"            D.9.f I 6 %.yXrXaXrXrXsXrXuX] l T | # C._.            ",
"            Y.8.y T tXwX0XsXsXsXsXrXsX0X' l W Q # A.=X            ",
"            R.<.m yX| T | eXuXsXsXuXeX .U 5 $.R # j._.            ",
"            t.S yXqX[ 1 v | eXeXeX0X .W 5 U %.W = j._.            ",
"            $X@.T { { 6 ! yX| ' ' W U 3 G &.[ H = l._.            ",
"            $XA i G H qXdXW 5 l l 5 l ! %.] ' x : z.).            ",
"            oXa.O n &.iX%.%.] ! ! ]  . .] Q T O :.m.*X            ",
"            >Xe.Z iX] ! ' ! ] | | ] ] ! ! G u % g.]. X            ",
"            %Xy..XP.s u x G W T T T T b l o % d.x._.              ",
"              %XW.Z.i.7.& . O X o X O . ; 2.f.c.}.OX              ",
"                1X[.M.b.f.>.i.8.9.u.i.B.h.b.m.{.OX                ",
"                    2X{.Y.z.m.n.n.n.m.m.].,X;X                    ",
"                        fXgX&X3X3X3X5XgX                          ",
"                                                                  ",
"                                                                  ",
"                                                                  ",
"                                                                  "
};

