/* XPM */
static char *small_boat_5p_b_xpm[] = {
/* columns rows colors chars-per-pixel */
"165 33 235 2 ",
"   c #fffffa",
".  c #533F33",
"X  c #3F4E3F",
"o  c #5E4328",
"O  c #4D4535",
"+  c #4C443C",
"@  c #47443D",
"#  c #534434",
"$  c #55433A",
"%  c #5A4736",
"&  c #6C4829",
"*  c #7A4C2B",
"=  c #644533",
"-  c #724932",
";  c #7C553A",
":  c #785639",
">  c #6E522F",
",  c #3B474D",
"<  c #3C4A4D",
"1  c #3B4746",
"2  c #334D54",
"3  c #3C4D53",
"4  c #3B4A54",
"5  c #3E5155",
"6  c #3E5359",
"7  c #2C5058",
"8  c #2A5666",
"9  c #28586A",
"0  c #2B627B",
"q  c #444544",
"w  c #414B4D",
"e  c #494947",
"r  c #524847",
"t  c #4E534D",
"y  c #49564B",
"u  c #53544E",
"i  c #56554C",
"p  c #424D53",
"a  c #434C59",
"s  c #435356",
"d  c #4C5454",
"f  c #44555A",
"g  c #4A555B",
"h  c #45595D",
"j  c #4B5A5D",
"k  c #4A5A56",
"l  c #535551",
"z  c #565955",
"x  c #535D5C",
"c  c #5B5A56",
"v  c #6A5948",
"b  c #7A5D46",
"n  c #655F53",
"m  c #5B615B",
"M  c #45605E",
"N  c #68665A",
"B  c #716555",
"V  c #4A5663",
"C  c #455B62",
"Z  c #4C5D63",
"A  c #4C5F68",
"S  c #455661",
"D  c #515D64",
"F  c #565E68",
"G  c #4D6165",
"H  c #4E636A",
"J  c #4E6A6D",
"K  c #47606A",
"L  c #526266",
"P  c #54656B",
"I  c #59666B",
"U  c #556A6D",
"Y  c #596A6D",
"T  c #596866",
"R  c #55726B",
"E  c #4E6C72",
"W  c #4E6D7A",
"Q  c #4D6570",
"!  c #546571",
"~  c #596772",
"^  c #556B72",
"/  c #5A6C72",
"(  c #546D79",
")  c #5C6E79",
"_  c #557075",
"`  c #5D7175",
"'  c #54727A",
"]  c #5D747B",
"[  c #5E7A7C",
"{  c #5F7975",
"}  c #4D706F",
"|  c #656C69",
" . c #757767",
".. c #616E75",
"X. c #627375",
"o. c #62747A",
"O. c #64797D",
"+. c #687779",
"@. c #727D7E",
"#. c #65706D",
"$. c #9C541E",
"%. c #97561F",
"&. c #8E4D1C",
"*. c #A1521C",
"=. c #AA5B1D",
"-. c #BC621E",
";. c #A9621F",
":. c #854E2A",
">. c #8D562C",
",. c #8C582C",
"<. c #8E5122",
"1. c #955624",
"2. c #9A5522",
"3. c #9A5A23",
"4. c #92552D",
"5. c #93592C",
"6. c #995828",
"7. c #8C5731",
"8. c #8A5934",
"9. c #855A38",
"0. c #AA5D21",
"q. c #A76125",
"w. c #BA6724",
"e. c #B86D35",
"r. c #B7722F",
"t. c #906336",
"y. c #C9681C",
"u. c #D76A17",
"i. c #DD731C",
"p. c #DB7718",
"a. c #CA7218",
"s. c #ED6D0E",
"d. c #EB730D",
"f. c #E6780F",
"g. c #E66F1A",
"h. c #E57214",
"j. c #E2721C",
"k. c #E47C1B",
"l. c #E87817",
"z. c #F2710E",
"x. c #C96923",
"c. c #C67227",
"v. c #DC7421",
"b. c #DA7D24",
"n. c #C57738",
"m. c #D27730",
"M. c #E27322",
"N. c #E46F20",
"B. c #986B47",
"V. c #987954",
"C. c #887150",
"Z. c #A47849",
"A. c #B07B44",
"S. c #807F62",
"D. c #6F8373",
"F. c #BF8D3E",
"G. c #DD861F",
"H. c #E5831D",
"J. c #E9821E",
"K. c #DD8524",
"L. c #DA8728",
"P. c #D78935",
"I. c #C5933D",
"U. c #D89337",
"Y. c #D28D31",
"T. c #E28423",
"R. c #E48829",
"E. c #E2912C",
"W. c #E28A32",
"Q. c #E5993A",
"!. c #948455",
"~. c #AF8243",
"^. c #BC8D4B",
"/. c #BD9345",
"(. c #BC9946",
"). c #BC9349",
"_. c #B59449",
"`. c #A89559",
"'. c #B79657",
"]. c #AA8E56",
"[. c #9B8863",
"{. c #84897A",
"}. c #938F74",
"|. c #8C8E6E",
" X c #A99964",
".X c #BAA773",
"XX c #B8B475",
"oX c #BEAF68",
"OX c #C28B43",
"+X c #C29344",
"@X c #CA9344",
"#X c #C39449",
"$X c #C89947",
"%X c #D79944",
"&X c #D99E53",
"*X c #E29C42",
"=X c #D6A34D",
"-X c #CCAB5E",
";X c #C8A858",
":X c #D3AA5D",
">X c #D6A555",
",X c #CCA14A",
"<X c #CDAC63",
"1X c #CCAC6B",
"2X c #C4AB65",
"3X c #D2AC63",
"4X c #D1AC6A",
"5X c #D7AA63",
"6X c #C6B164",
"7X c #C9B775",
"8X c #CCB06F",
"9X c #E6A94B",
"0X c #5B7885",
"qX c #4B6D82",
"wX c #637581",
"eX c #647B82",
"rX c #6B7D84",
"tX c #677C87",
"yX c #727E83",
"uX c #658283",
"iX c #6C8285",
"pX c #6D858A",
"aX c #6E8A8D",
"sX c #66868A",
"dX c #728387",
"fX c #72858B",
"gX c #728A8E",
"hX c #798785",
"jX c #6E8B92",
"kX c #6D8590",
"lX c #728B92",
"zX c #78929C",
"xX c #859287",
"cX c #B1BA91",
"vX c #D1BE8A",
/* pixels */
"                                                                                                                                                                                                                                                                                                                                          ",
"                                                                                                                                                                                                                                                                                                                                          ",
"                                                                                                                                                                                                                                                                                                                                          ",
"                                                                                                                                                          9 8 8 8 8 8 8 8 9 9 9 0                                                                                                                                                         ",
"                                                                                                                                                        7 2 h G G L H G H H G H 0XqX                                                                                                                                                      ",
"                7X4X3X3X3X3X-X<X<X3X3X<X3X4X.XD.^ ' _ _ ` }.8X.XxXuX|.2X<X1X-X:X<X1X3X5X5X8X}.R ' ' ' qX0X.X5X3X3X3X:X3X3X<X<X3X:X6X2X<X<X<X:X3X1X4X3X XX f ~ ~ ) I C h C ^ X.O.rXx }.1X:X3X3X<X<X<X<X<X<X6X<X<X1X<X<X<X<X<X<X<X<X<X<X<X<X3X1X<X4X5X1X}./ _ ' ( ' D..X1X4X1X1X1X<X<X<X<X8XvX                                              ",
"            :XW.k.p.i.i.i.j.j.j.j.j.j.j.i.i.n.C.U ^ T T Y V.m.n.[.xXC.r.i.M.g.h.j.v.i.h.h.m.B.N Y Y U ^ #.n.j.i.j.j.j.j.j.i.i.h.h.i.v.j.i.i.h.h.i.p.h.e.@ j U Y L s Z U Z U fXU g % e.p.h.i.v.j.j.j.j.j.j.i.j.j.j.j.j.j.j.j.j.j.i.i.i.M.N.g.h.i.i.h.v.Z.N T U ^ T C.n.v.v.i.p.i.i.M.j.j.j.k.R.Q.9X:X                                      ",
"          *Xl.u.-.6.,.>.>.>.>.>.>.>.>.>.,.8.; n j Z Z Z Z B ; : B  .B > 8.7.4.4.>.>.>.>.>.9.v c x Z j j c b 8.7.7.>.>.>.>.>.,.>.>.,.>.,.,.>.>.>.,.>.>.; @ j ^ ~ C H iXaXgXO.C T D r : 7.>.>.>.>.>.>.>.>.>.>.>.>.>.4.>.>.>.>.>.>.>.>.>.7.7.4.>.,.>.4.8.v z Z C Z x n b 8.7.7.>.>.>.7.7.>.1.3.q.w.a.b.P.*X:X                                ",
"        =Xd.y.<.o r t z l z z z z z l l i u l k g L Z 4 Z yX@.s s j @.#.q l c z l l u u l k g k G h 3 k k l l i i i u l l l u u l u u l l l u u l l d d 1 h ^ ~ h / gXaXlXP f ^ L w t u i i u u u u u u l l l l l u u u l u u u u u u i i u u i u l d d j P 4 f g k l u i i i l z x z l e + # % - <.;.a.p.W.>X1X                          ",
"      6Xk.u.&.O k ! ~ / X.X.) ~ / X.o./ T T Y Y U O.` 3 Y rXlX^ K ^ ] lX) Z ~ ~ X.X./ Y ^ ^ ^ ^ eXJ 6 U U U U T T T U U U U ^ U L C C g g g g g g j C f 2 C ^ ~ h U pXgXiXI C ^ G 3 s h h h h h Z I U U ^ ^ ^ ^ ^ ^ U U U U U ~ ~ ~ ^ ~ Y U U Y Y Y ^ ^ _ iX2 G Y Y U U U Y X.X./ U / ] X.T x g a e # & 2.y.j.W.>X                        ",
"      %Xd.=.# j L ^ ) X.L s s s s s G / o.^ ! ! ^ O.` 3 T / O.eXH ! ] / fXZ 3 f f Z ..X.~ ~ ^ ^ O.U f U ! ^ ^ ^ ^ ^ U U U U U Z 3 < 3 < < < < < w < < < < h U ~ P h Y ] I s P / H 5 < < 3 3 3 4 3 g I ^ ^ ^ ^ ^ ^ ^ ^ ^ ^ ^ ~ ~ P P P P P G H L L L U ^ _ iX3 H ^ U ^ ^ ] ] G k s s s f Z X.` U L Z s w e = 4.w.p.R.&X                    ",
"    cXW.u.& 5 L Y ` ` f f G U U U H h 6 ^ ] ^ ^ ^ eX` 3 T U Y rXrXZ s f X.iXU U H h s T X.T U Y O.I f U ^ ^ ^ ^ ^ ^ U U U U L 5 < f Z Z Z Z Z Z Z D Z Z Z L U U / G f 5 h P Y Y U G j Z Z D D g p < L U Y Y Y Y U U U Y Y Y U L s < 3 3 3 < < < w w k U / yX3 L ~ ^ ~ / ] f f Z T T T G f 6 ) ] T U U L g < q % >.x.l.E.-X                ",
"    XXM.y.o h U / ] C f ! ] eXpXpX] ^ Z 5 ` / ^ ^ O.` 3 I Y U ` fXO.3 L ] pXsXuX[ ^ Z 5 ` / U ^ O.I s ~ ~ ~ ~ ^ U U ^ ^ ^ ^ L 3 f P G Z A A A A Z G Z G L U Y Y U Y / / / Y Y U U Y U U j L D I j < G U U Y ^ U U ^ ^ ^ U ^ U h 3 Z L L P L H P L s 4 L / dX3 L ~ ~ / o.s h ! ] eXiXeX] ^ C 6 ] / Y U ^ U G s 1 @ & 0.i.k.*X8X            ",
"    ;Xl.0.# G ^ ] H 6 I O.fXlXlXlXfXrXY g j X.U ^ O.` 3 I ^ ^ ` ) iX] ] kXjXjXlXlXrX~ h C o.^ ^ O.U f U U I U U U U T T T T L 3 j j p Z G H H H H G L j 3 P G C C h Z I P C C C C P ^ G ^ pX] Z D p Z T I I I I I I I I I U Y s s I / / ) ( ) / ~ D 3 Z / iX3 G ~ Y X.L s U O.jXlXgXgXfXO.Y Z Y wX] ` ] eXO.T j w q $ >.y.d.E.-X          ",
"    $Xh.6.+ P ^ o.k Z ) fXlXjXjXlXjXlXo.L p / / U O.` 3 P ^ U ` h T rXfXlXlXjXaXlXgXO.L 5 o.Y Y O.U 6 U G h f f s s f f h f f 3 Z f T gXlXlXlXlXlXlXlXiXf C h _ ] ] G Z f ^ X.o.! C ~ Z ] lXeXA Z < s s f f f f f f f f h Y I s f / iXpXpXpXpXpXrXT 3 Z ` pX2 G ^ ^ ` f G ` aXjXjXlXlXgXfXiXdXfXgXlXiXtXzXpXZ / P f , @ - x.d.J.:X        ",
"    $Xh.5.e I ^ ` p L eXlXjXjXjXjXjXaXiX! f ^ ` ^ O.` 3 I ~ ~ ` f G o.fXlXjXlXgXgXlXiX^ 5 / / Y O.U f U Z Z Z Z Z C P h I f P f Z f / gXlXlXlXlXjXlXlXpXf C C pXgXlXX.C C pXgXgXeXZ U U h U Z H Z 3 L j G Z Z Z j Z Z Z f U I f h / pXgXlXlXgXgXfXT 3 Z / iX3 G ^ / ] 5 H eXlXlXjXjXjXjXlXeXf 1 f h h h G Z Z / ! U f < q & -.s.k.:X      ",
"    $Xh.5.r T R ] s P eXlXjXjXjXlXlXjXsX! 6 ^ ` Y O.` 3 I ~ ~ ) 6 P eXlXlXjXjXlXlXlXiX~ f I / ^ O.I f U Z D Z C Z j L h T h L 5 Z f / gXgXlXlXlXlXjXjXpXf C Z pXlXgXo.C Z pXaXaXD.G U U L Z G U G 3 L j G G Z L h D C P h ^ U f f ` pXlXjXjXjXjXpX! 3 Z ` dX3 L ~ / ` f U eXlXgXlXlXjXjXjXeXP f / / P U T L ! ^ U Y G p q # &.s.z.U.XX    ",
"    %Xh.6.r T R ] f F wXlXjXjXlXlXlXjXsXP 6 ~ / Y O.` 3 I ~ Y X.f G o.gXlXlXjXgXlXlXtX^ s / / ^ eXI s U C Z Z h h h j f L f G 5 Z s Y lXlXlXlXlXlXjXjXpXg Z Z pXlXgX` C h iXgXgXO.G P L G / L G G 3 Z h Z j j j f j f Z f U U 5 f ` iXgXlXlXlXlXkX! 3 Z / iX3 H ^ ^ ` s L [ gXgXlXjXjXlXlXeX` G o.] ] ) O.o.J ^ U P f q O * y.z.T.2X      ",
"    ,Xf.6.r H U ] f h uXpXlXlXgXgXgXaX{ H 3 ] / ~ wX..3 T Y Y X.Z h / pXlXjXgXgXgXfX] H 5 X.Y U O.T f ^ G h f f h h g g j g g p j g D dXaXsXsXaXpXaXaXeXp Z C ^ ] ] Z Z f L ` X.P C ^ A ] lXrXC D < s g g g g g g g f h h U P 5 f U { o.eX[ { { ` L < x Y iX3 L ^ ^ ] f Z _ pXaXaXjXjXjXaXeXrXiXpXdXrXtXzXaXM U G p q # :.u.z.P.6X        ",
"    ;Xp.q.$ Z ^ #.j { uX] iXlXjXjXaXeXI s j ` ^ ^ eX` 5 P U ^ / ^ 6 H ] aXlXjXjXaXO.U 6 C ] U T O.U f U U T T T T I ^ ^ ^ ^ H 5 C Z f Z L G G G L L D Z a I P G G G Z I T Z G G H P ^ P P rX/ Z Z 3 Z U ! U ! ! ^ I I ^ I ~ ^ f 6 P ^ ^ ! U U U T j < Z / pX3 L Y U ` I p T eXpXlXlXlXfXO.~ f Z H Z D P H C k g w q = 3.u.l.%X.X          ",
"    oXk.y.= S ! G ` iXZ T T O.uXeX] ! V s { ^ ^ E eX` 3 T Y U / X.Z f L ` O.tX0X] U k s ` / ^ ~ O.I f U U Y ~ ^ ^ ^ ^ Y U Y H 3 6 L L P P P H P F F P P H ^ ^ ^ ^ / / Y ~ / U U Y U I ~ Z G G J f 4 G U U U U U U U U Y U U Y Z 3 3 s f f f s k s < 5 P ' pX3 L Y ^ ( wXV h P ] eXeXO.X.T f s ` U U T T L f w q $ :.-.p.T.-X              ",
"      T.u.* w j G pXtXS 4 j dX/ L Z s s ) ] ^ ! ^ O.` 3 I Y U Y / X.j 3 j P P ! Z s d X.] ^ ^ ^ eXI f P U ^ ( ( E ^ U U U U T s < p g g g g V V g g h h h H ^ U / G 5 f f Z ) Y T j g g g h h 6 < 3 L U U U Y Y U Y Y Y Y Y Y U G h f s s g g g s h H ^ ) pX3 D Y E W ' wXC 6 C H U L G 5 f ] ` Y Y U Z p w + & 0.u.f.Q.2X                ",
"      Q.d.0.. w +.rX) ] h iX` 6 f s L X.` U U U U +.` 3 ! ^ ^ ^ U / O.I f 6 f p s L X.` ^ ^ ^ ^ wX! g T U ^ ^ ^ U T U ^ ^ ^ ~ D p , , 1 1 < 4 4 2 1 1 1 < j ^ ~ P h / O.~ s P / L < < 1 < < , < p Z Y U ^ ^ ^ ^ ^ ^ ^ ^ ^ ^ ^ ^ ^ U U U U ~ ~ ^ ^ U U Y ) iX3 D U ^ ^ U ` X.L h 6 3 5 6 H ] ` ^ P h 5 1 $ - 6.c.p.E.=X                    ",
"      >XH.a.- +.] Y I j X.fX] 0X0X] X.U U U Y Y Y O.` 2 Q ! ! ^ U U Y ` o.X.o.X.o.] ( Q U U U Y O.! g I ~ ~ ^ U U I Y U U U ^ U P C C k k j S C h h g g , j U ~ j U fXgXfXI S / H 3 f h j j Z D P I U ^ ^ U U U U U U U U U U U U U U U ^ ^ ^ ! U U U T ..rX3 A ! ^ U I T Y X.o.X...) X.) I j d e + % * q.a.k.E.%X`.                      ",
"        =Xc.B.xX+.e 3 j hXm l d d d t u l l g g V A Z 3 g g d l l u u u u l u l d g d l i i d C G j 5 S h d i u u l l u u u u l l l l u u u u t t i u d 4 h U Y h ` gXgXgX] f ^ G w y u u u l l l l t l t t t u u u u u u u u u u u l l l d d u i i t g C L 3 S C h l i i l l u l l d e r O # % * 3.w.v.T.E.$X`.                          ",
"          @Xr.~.e.>.n  .C.5.$.*.$.2.2.$.*.1.9.n m L P I I b 5.1.1.1.2.3.%.2.2.%.6.6.2.*.$.5.b m T L Q H N 9.6.$.2.1.2.2.2.2.2.2.2.2.2.6.6.2.2.%.$.*.4.; O k Y Y C G uXpXiXeX] _ x % ; 4.2.$.%.%.%.2.2.2.2.2.2.2.2.2.2.2.2.2.2.2.2.2.2.2.2.1.1.$.*.2.7.b m L ! ! L B 9.2.2.1.2.2.6.6.1.2.*.=.-.x.v.K.U.U.).                                ",
"            '.$XY.t.{.}.^.L.J.T.T.K.T.H.H.K.F.C.| / / Y #.Z.P.L.L.K.K.K.K.K.K.G.K.L.T.J.H.Y.V.| / Y _ ^  .^.K.T.T.L.K.T.T.K.K.T.T.K.L.K.T.T.K.T.T.J.K.~.O k Y Y T f Z H h h eXeX| > A.P.T.H.T.K.T.T.K.L.T.K.T.T.T.T.T.T.T.K.K.K.K.K.K.T.K.K.L.K.J.H.Y.V.N R ( ) | C.OXL.G.T.T.T.T.T.K.K.K.L.U.%X#X^.                                      ",
"                !.    {.`./.I.#X).).+X@X$X$X]. .^ W ^ U / |.'.).(.+X/.).)._._./._._./.I.I.'. .Y ^ ! E W O.[./.OX^._././.).).).+X+X(././.+X+X/.).#X@X/.!.< f I Y ~ I Z f D ~ H ^ hX .!.'.@X@X@X#X#X@X#X(.#X#X#X+X#X#X#X#X#X/.).)./././.)././.).).+XI._.S.Y } W qX^  .]._.(./.^.)._./.#X+XF.                                                ",
"                                                                                                                                                          4 f Z Z Z G P A Z Z s C                                                                                                                                                         ",
"                                                                                                                                                              2 2 2 2 2 2 2 2 2                                                                                                                                                           ",
"                                                                                                                                                                                                                                                                                                                                          ",
"                                                                                                                                                                                                                                                                                                                                          ",
"                                                                                                                                                                                                                                                                                                                                          "
};

