/* XPM */
static char *eight_xpm[] = {
/* columns rows colors chars-per-pixel */
"70 70 46 1 ",
"  c #FFFFFA",
". c #E5E7E8",
"X c #EDEDEE",
"o c #EEEEEF",
"O c #EEEEF0",
"+ c #F0F0F1",
"@ c #F1F1F2",
"# c #F2F2F2",
"$ c #F2F2F3",
"% c #F3F3F4",
"& c #F3F4F5",
"* c #F4F5F5",
"= c #F5F6F6",
"- c #F6F6F6",
"; c #F6F6F7",
": c #F7F7F7",
"> c #F6F7F8",
", c #F7F7F8",
"< c #F7F8F8",
"1 c #F7F8F9",
"2 c #F8F8F8",
"3 c #F8F8F9",
"4 c #F8F9F9",
"5 c #F9F9F9",
"6 c #F8F9FA",
"7 c #F9F9FA",
"8 c #F9FAFA",
"9 c #FAFAFA",
"0 c #FAFBFA",
"q c #FAFAFB",
"w c #FAFBFB",
"e c #FBFBFB",
"r c #FAFBFC",
"t c #FBFBFC",
"y c #FBFCFC",
"u c #FCFCFC",
"i c #FCFCFD",
"p c #FCFDFD",
"a c #FDFDFD",
"s c #FCFDFE",
"d c #FDFDFE",
"f c #FDFEFE",
"g c #FEFEFE",
"h c #FEFEFF",
"j c #FEFFFF",
"k c #FFFFFF",
/* pixels */
"                                                                      ",
"                                                                      ",
"                            -eggggggggggg-                            ",
"                        ggggggggggggggggggggge                        ",
"                      gggggggggggggggggggggggggg                      ",
"                    ggggggggggggggggggggggggggggggg                   ",
"                  gggggggggggggggggggggggggggggggggg                  ",
"                 rggggggggggggggggggggggggggggggggggg                 ",
"                gggggggggggggggggggggggggggggggggggggg                ",
"               gggggggggggggggggggeeggggggggggggggggggg               ",
"              eggggggggggggge            egggggggggggggg              ",
"              gggggggggggg-                 gggggggggggge             ",
"             gggggggggggr                    eggggggggggg             ",
"             gggggggggge                      #ggggggggggr            ",
"            ggggggggggg                         gggggggggg            ",
"            gggggggggg                           ggggggggg            ",
"            ggggggggge                           ggggggggge           ",
"           oggggggggg                            ggggggggge           ",
"           oggggggggg                            eggggggggg           ",
"           oggggggggg                             ggggggggg           ",
"           oggggggggg                             ggggggggg           ",
"            ggggggggg#                            gggggggge           ",
"            ggggggggg                            ggggggggge           ",
"            gggggggggg                           ggggggggg            ",
"            gggggggggg                          gggggggggg            ",
"             gggggggggg                         ggggggggge            ",
"             ygggggggggg                       gggggggggg             ",
"             .ggggggggggg                     gggggggggg              ",
"              >gggggggggggg<              eggggggggggggg              ",
"               rgggggggggggggggre    -eggyggggggggggggg               ",
"                eggggggggggggggggggggggggggggggggggggg                ",
"                 eggggggggggggggggggggggggggggggggggg                 ",
"                   gggggggggggggggggggggggggggggggg-                  ",
"                   eggggggggggggggggggggggggggggggg                   ",
"                 &ggggggggggggggggggggggggggggggggggg                 ",
"                gggggggggggggggggggggggggggggggggggggg                ",
"               gggggggggggggggggggggggggggggggggggggggg<              ",
"              ggggggggggggggggggee>ee>gggrgggggggggggggg<             ",
"             gggggggggggggge              %eegggggggggggge            ",
"            ggggggggggggy                    rgggggggggggg            ",
"           gggggggggggg                        gggggggggggg           ",
"           ggggggggggg                          ggggggggggg<          ",
"          ggggggggggg                            ggggggggggg          ",
"          gggggggggg                              gggggggggg          ",
"          gggggggggg                              eggggggggge         ",
"         eggggggggg                                gggggggggg         ",
"         rggggggggg                                gggggggggg         ",
"         gggggggggg                                gggggggggg         ",
"         gggggggggg                                gggggggggg         ",
"         gggggggggg                                gggggggggg         ",
"         gggggggggg                                gggggggggg         ",
"         rggggggggg                                gggggggggg         ",
"          ggggggggge                               gggggggggg         ",
"          gggggggggg                              gggggggggge         ",
"          ggggggggggr                            #gggggggggg          ",
"          egggggggggg-                           ggggggggggg          ",
"           ggggggggggge                        #ggggggggggg           ",
"           <gggggggggggg                      egggggggggggg           ",
"            gggggggggggggg                  gggggggggggggg            ",
"             gggggggggggggggeO           eggggggggggggggg             ",
"              gggggggggggggggggggggggggggggggggggggggggg              ",
"               gggggggggggggggggggggggggggggggggggggggg               ",
"                gggggggggggggggggggggggggggggggggggggg                ",
"                 ggggggggggggggggggggggggggggggggggge                 ",
"                   egggggggggggggggggggggggggggggggg                  ",
"                      gggggggggggggggggggggggggg                      ",
"                        gggggggggggggggggggggg                        ",
"                              >gggggggge-                             ",
"                                                                      ",
"                                                                      "
};
