/* XPM */
static char *five_xpm[] = {
/* columns rows colors chars-per-pixel */
"70 70 18 1",
"  c #E7E7E8",
". c #EAEAEA",
"X c #F5F5F6",
"o c #f7f7f7",
"O c #F8F8F8",
"+ c #F9F9F9",
"@ c #fafafa",
"# c #FAFAFB",
"$ c #FBFBFB",
"% c #FBFBFC",
"& c #fcfcfc",
"* c #FCFCFD",
"= c #FCFDFD",
"- c #FDFDFD",
"; c #FEFEFE",
": c #FEFEFF",
"> c #FFFFFF",
", c #FFFFFA",
/* pixels */
",,,,,,,,,,,,,,,,,,,,,,,,,,,,,,,,,,,,,,,,,,,,,,,,,,,,,,,,,,,,,,,,,,,,,,",
",,,,,,,,,,,,,,,,,,,,,,,,,,,,,,,,,,,,,,,,,,,,,,,,,,,,,,,,,,,,,,,,,,,,,,",
",,,,,,,,,,,,,,,,,,,,,;>>>>>>>>>>>>>>>>>>>>>>>>>>>>>>>>>;,,,,,,,,,,,,,,",
",,,,,,,,,,,,,,,,,,,>>>>>>>>>>>>>>>>>>>>>>>>>>>>>>>>>>>>>,,,,,,,,,,,,,,",
",,,,,,,,,,,,,,,,,,>>>>>>>>>>>>>>>>>>>>>>>>>>>>>>>>>>>>>>,,,,,,,,,,,,,,",
",,,,,,,,,,,,,,,,,,>>>>>>>>>>>>>>>>>>>>>>>>>>>>>>>>>>>>>>,,,,,,,,,,,,,,",
",,,,,,,,,,,,,,,,,,>>>>>>>>>>>>>>>>>>>>>>>>>>>>>>>>>>>>>>,,,,,,,,,,,,,,",
",,,,,,,,,,,,,,,,,,>>>>>>>>>>>>>>>>>>>>>>>>>>>>>>>>>>>>>>,,,,,,,,,,,,,,",
",,,,,,,,,,,,,,,,, >>>>>>>>>>>>>>>>>>>>>>>>>>>>>>>>>>>>>>,,,,,,,,,,,,,,",
",,,,,,,,,,,,,,,,,.>>>>>>>>>>>>>>>>>>>>>>>>>>>>>>>>>>>>>>,,,,,,,,,,,,,,",
",,,,,,,,,,,,,,,,,,>>>>>>>>>>>>>>>>>>>>>>>>>>>>>>>>>>>>>;,,,,,,,,,,,,,,",
",,,,,,,,,,,,,,,,,$>>>>>>>>>;;;>;;;;;;;;;;;;;;;;;;;;;;;&,,,,,,,,,,,,,,,",
",,,,,,,,,,,,,,,,,>>>>>>>>>>,,,,,,,,,,,,,,,,,,,,,,,,,,,,,,,,,,,,,,,,,,,",
",,,,,,,,,,,,,,,,,>>>>>>>>>>,,,,,,,,,,,,,,,,,,,,,,,,,,,,,,,,,,,,,,,,,,,",
",,,,,,,,,,,,,,,,,>>>>>>>>>>,,,,,,,,,,,,,,,,,,,,,,,,,,,,,,,,,,,,,,,,,,,",
",,,,,,,,,,,,,,,,,>>>>>>>>>>,,,,,,,,,,,,,,,,,,,,,,,,,,,,,,,,,,,,,,,,,,,",
",,,,,,,,,,,,,,,,,>>>>>>>>>>,,,,,,,,,,,,,,,,,,,,,,,,,,,,,,,,,,,,,,,,,,,",
",,,,,,,,,,,,,,,,,>>>>>>>>>>,,,,,,,,,,,,,,,,,,,,,,,,,,,,,,,,,,,,,,,,,,,",
",,,,,,,,,,,,,,,,,>>>>>>>>>@,,,,,,,,,,,,,,,,,,,,,,,,,,,,,,,,,,,,,,,,,,,",
",,,,,,,,,,,,,,,,,>>>>>>>>>,,,,,,,,,,,,,,,,,,,,,,,,,,,,,,,,,,,,,,,,,,,,",
",,,,,,,,,,,,,,,,,>>>>>>>>>,,,,,,,,,,,,,,,,,,,,,,,,,,,,,,,,,,,,,,,,,,,,",
",,,,,,,,,,,,,,,,;>>>>>>>>>,,,,,,,,,,,,,,,,,,,,,,,,,,,,,,,,,,,,,,,,,,,,",
",,,,,,,,,,,,,,,,>>>>>>>>>>,,,,,,,,,,,,,,,,,,,,,,,,,,,,,,,,,,,,,,,,,,,,",
",,,,,,,,,,,,,,,,>>>>>>>>>>,,,,,,,,,,,,,,,,,,,,,,,,,,,,,,,,,,,,,,,,,,,,",
",,,,,,,,,,,,,,,,>>>>>>>>>>,,,,,,,,,,,,,,,,,,,,,,,,,,,,,,,,,,,,,,,,,,,,",
",,,,,,,,,,,,,,,,>>>>>>>>>>,,,,,,,,,,,,,,,,,,,,,,,,,,,,,,,,,,,,,,,,,,,,",
",,,,,,,,,,,,,,,,>>>>>>>>>>,,,,,,,,,,,,,,,,,,,,,,,,,,,,,,,,,,,,,,,,,,,,",
",,,,,,,,,,,,,,,,>>>>>>>>>>XO;>>>>>>,,,,,,,,,,,,,,,,,,,,,,,,,,,,,,,,,,,",
",,,,,,,,,,,,,,,,>>>>>>>>>>>>>>>>>>>>>>>;>>>&,,,,,,,,,,,,,,,,,,,,,,,,,,",
",,,,,,,,,,,,,,,,>>>>>>>>>>>>>>>>>>>>>>>>>>>>->>,,,,,,,,,,,,,,,,,,,,,,,",
",,,,,,,,,,,,,,,->>>>>>>>>>>>>>>>>>>>>>>>>>>>>>>;;,,,,,,,,,,,,,,,,,,,,,",
",,,,,,,,,,,,,,,>>>>>>>>>>>>>>>>>>>>>>>>>>>>>>>>>>;>,,,,,,,,,,,,,,,,,,,",
",,,,,,,,,,,,,,,>>>>>>>>>>>>>>>>>>>>>>>>>>>>>>>>>>>>;&,,,,,,,,,,,,,,,,,",
",,,,,,,,,,,,,,,>>>>>>>>>>>>>>>>>>>>>>>>>>>>>>>>>>>>>>>,,,,,,,,,,,,,,,,",
",,,,,,,,,,,,,,,>>>>>>>>>>>>>>>>>>>>>>>>>>>>>>>>>>>>>>>>,,,,,,,,,,,,,,,",
",,,,,,,,,,,,,,,>>>>>>>>>>>>>>>>>>>>>>>>>>>>>>>>>>>>>>>>>,,,,,,,,,,,,,,",
",,,,,,,,,,,,,,,>>>>>>>>>>>>>>>>>>>>>>>>>>>>>>>>>>>>>>>>>&,,,,,,,,,,,,,",
",,,,,,,,,,,,,,,,,,,,,,,,,,,,,,,,,,,@;>>>;>>>>>>>>>>>>>>>>,,,,,,,,,,,,,",
",,,,,,,,,,,,,,,,,,,,,,,,,,,,,,,,,,,,,,,,,;>>>>>>>>>>>>>>>>,,,,,,,,,,,,",
",,,,,,,,,,,,,,,,,,,,,,,,,,,,,,,,,,,,,,,,,,,,;>>>>>>>>>>>>>,,,,,,,,,,,,",
",,,,,,,,,,,,,,,,,,,,,,,,,,,,,,,,,,,,,,,,,,,,,%=>>>>>>>>>>>;,,,,,,,,,,,",
",,,,,,,,,,,,,,,,,,,,,,,,,,,,,,,,,,,,,,,,,,,,,,,>>>>>>>>>>>>,,,,,,,,,,,",
",,,,,,,,,,,,,,,,,,,,,,,,,,,,,,,,,,,,,,,,,,,,,,,,>>>>>>>>>>>,,,,,,,,,,,",
",,,,,,,,,,,,,,,,,,,,,,,,,,,,,,,,,,,,,,,,,,,,,,,,=>>>>>>>>>>,,,,,,,,,,,",
",,,,,,,,,,,,,,,,,,,,,,,,,,,,,,,,,,,,,,,,,,,,,,,,,>>>>>>>>>>;,,,,,,,,,,",
",,,,,,,,,,,,,,,,,,,,,,,,,,,,,,,,,,,,,,,,,,,,,,,,,>>>>>>>>>>>,,,,,,,,,,",
",,,,,,,,,,,,,,,,,,,,,,,,,,,,,,,,,,,,,,,,,,,,,,,,,>>>>>>>>>>>,,,,,,,,,,",
",,,,,,,,,,,,,,,,,,,,,,,,,,,,,,,,,,,,,,,,,,,,,,,,,&>>>>>>>>>>,,,,,,,,,,",
",,,,,,,,,,,,,,,,,,,,,,,,,,,,,,,,,,,,,,,,,,,,,,,,,;>>>>>>>>>>,,,,,,,,,,",
",,,,,,,,,,,,,,,,,,,,,,,,,,,,,,,,,,,,,,,,,,,,,,,,,>>>>>>>>>>>,,,,,,,,,,",
",,,,,,,,,,,,,,,,,,,,,,,,,,,,,,,,,,,,,,,,,,,,,,,,,>>>>>>>>>>>,,,,,,,,,,",
",,,,,,,,,,,,,,,,,,,,,,,,,,,,,,,,,,,,,,,,,,,,,,,,,>>>>>>>>>>;,,,,,,,,,,",
",,,,,,,,,,,,,,>>,,,,,,,,,,,,,,,,,,,,,,,,,,,,,,,,>>>>>>>>>>>,,,,,,,,,,,",
",,,,,,,,,,,,,,>>>,,,,,,,,,,,,,,,,,,,,,,,,,,,,,,,>>>>>>>>>>>,,,,,,,,,,,",
",,,,,,,,,,,,,->>>>$,,,,,,,,,,,,,,,,,,,,,,,,,,,,;>>>>>>>>>>>,,,,,,,,,,,",
",,,,,,,,,,,,,>>>>>>>#,,,,,,,,,,,,,,,,,,,,,,,,,>>>>>>>>>>>>O,,,,,,,,,,,",
",,,,,,,,,,,,>>>>>>>>>>-,,,,,,,,,,,,,,,,,,,,,*>>>>>>>>>>>>;,,,,,,,,,,,,",
",,,,,,,,,,,>>>>>>>>>>>>>>+,,,,,,,,,,,,,,,,->>>>>>>>>>>>>>+,,,,,,,,,,,,",
",,,,,,,,,,,>>>>>>>>>>>>>>>>;>;,,,,,,,,o;>>>>>>>>>>>>>>>>;,,,,,,,,,,,,,",
",,,,,,,,,,:>>>>>>>>>>>>>>>>>>>>>>>>>>>>>>>>>>>>>>>>>>>>>,,,,,,,,,,,,,,",
",,,,,,,,,,,>>>>>>>>>>>>>>>>>>>>>>>>>>>>>>>>>>>>>>>>>>>>;,,,,,,,,,,,,,,",
",,,,,,,,,,,>>>>>>>>>>>>>>>>>>>>>>>>>>>>>>>>>>>>>>>>>>>>,,,,,,,,,,,,,,,",
",,,,,,,,,,,,,->>>>>>>>>>>>>>>>>>>>>>>>>>>>>>>>>>>>>>>>,,,,,,,,,,,,,,,,",
",,,,,,,,,,,,,,;>>>>>>>>>>>>>>>>>>>>>>>>>>>>>>>>>>>>;;,,,,,,,,,,,,,,,,,",
",,,,,,,,,,,,,,,,-;>>>>>>>>>>>>>>>>>>>>>>>>>>>>>>>>>,,,,,,,,,,,,,,,,,,,",
",,,,,,,,,,,,,,,,,,,>>>>>>>>>>>>>>>>>>>>>>>>>>>>>>,,,,,,,,,,,,,,,,,,,,,",
",,,,,,,,,,,,,,,,,,,,,>>>>>>>>>>>>>>>>>>>>>>>>>>>,,,,,,,,,,,,,,,,,,,,,,",
",,,,,,,,,,,,,,,,,,,,,,,,,,->>>>>>>>>>>>>>>-,,,,,,,,,,,,,,,,,,,,,,,,,,,",
",,,,,,,,,,,,,,,,,,,,,,,,,,,,,,,,,,,,,,,,,,,,,,,,,,,,,,,,,,,,,,,,,,,,,,",
",,,,,,,,,,,,,,,,,,,,,,,,,,,,,,,,,,,,,,,,,,,,,,,,,,,,,,,,,,,,,,,,,,,,,,"
};

