/* XPM */
static char *four_xpm[] = {
/* columns rows colors chars-per-pixel */
"70 70 35 1 ",
"  c #FFFFFA",
". c #FAFAFA",
"X c #E9E9EA",
"o c #E9EAEA",
"O c #EFEFF0",
"+ c #F0F0F0",
"@ c #F1F1F1",
"# c #F2F2F3",
"$ c #F3F4F4",
"% c #F4F4F4",
"& c #F4F4F5",
"* c #F5F5F5",
"= c #F5F6F6",
"- c #F6F6F6",
"; c #F6F6F7",
": c #F7F7F7",
"> c #F7F7F8",
", c #F7F9F9",
"< c #F8F8F8",
"1 c #F8F8F9",
"2 c #F8F9F9",
"3 c #F9F9F9",
"4 c #F9F9FA",
"5 c #F9FAFA",
"6 c #FAFAFA",
"7 c #FAFAFB",
"8 c #FAFBFB",
"9 c #FBFBFB",
"0 c #FBFBFC",
"q c #FCFCFC",
"w c #FCFDFD",
"e c #FDFDFD",
"r c #FDFEFE",
"t c #FEFEFE",
"y c #FFFFFF",
/* pixels */
"                                                                      ",
"                                                                      ",
"                                       o:90999999y                    ",
"                                       9yyyyyyyyyy                    ",
"                                      yyyyyyyyyyy                     ",
"                                     yyyyyyyyyy9                      ",
"                                    yyyyyyyyyyy                       ",
"                                   :yyyyyyyyyy:                       ",
"                                   :yyyyyyyyyy                        ",
"                                  yyyyyyyyyy:                         ",
"                                 yyyyyyyyyy9                          ",
"                                :yyyyyyyyyy                           ",
"                                9yyyyyyyyyy                           ",
"                               :yyyyyyyyyy                            ",
"                              yyyyyyyyyy:                             ",
"                             :yyyyyyyyy9                              ",
"                             yyyyyyyyyy                               ",
"                            9yyyyyyyyy                                ",
"                           yyyyyyyyyy@                                ",
"                          yyyyyyyyyy9                                 ",
"                         :yyyyyyyyyy                                  ",
"                         yyyyyyyyyyy                                  ",
"                        yyyyyyyyyy@                                   ",
"                       yyyyyyyyyy:                                    ",
"                      9yyyyyyyyyyy                                    ",
"                      yyyyyyyyyyy                                     ",
"                     yyyyyyyyyyy                                      ",
"                    yyyyyyyyyy:                                       ",
"                   yyyyyyyyyyy                                        ",
"                  $yyyyyyyyyyy            y99999999:                  ",
"                  9yyyyyyyyy9             ,yyyyyyyyy                  ",
"                 yyyyyyyyyy:              9yyyyyyyyy                  ",
"                yyyyyyyyyyy               9yyyyyyyyy                  ",
"               9yyyyyyyyyy                9yyyyyyyyy                  ",
"              O9yyyyyyyyy                 9yyyyyyyyy                  ",
"              yyyyyyyyyy@                 9yyyyyyyyy                  ",
"             yyyyyyyyyy>                  9yyyyyyyyy                  ",
"            9yyyyyyyyyy                   9yyyyyyyyy                  ",
"           @yyyyyyyyyy                    9yyyyyyyyy                  ",
"           yyyyyyyyyyo                    9yyyyyyyyy                  ",
"          yyyyyyyyyy:                     9yyyyyyyyy                  ",
"         yyyyyyyyyyy                      9yyyyyyyyy                  ",
"        :yyyyyyyyyy.                      9yyyyyyyyy                  ",
"        yyyyyyyyyyyyyyyyyyyyyyyyyyyyyyyyyyyyyyyyyyyyyyyyyyyyyyyy      ",
"       yyyyyyyyyyyyyyyyyyyyyyyyyyyyyyyyyyyyyyyyyyyyyyyyyyyyyyyyy      ",
"       yyyyyyyyyyyyyyyyyyyyyyyyyyyyyyyyyyyyyyyyyyyyyyyyyyyyyyyyy      ",
"       yyyyyyyyyyyyyyyyyyyyyyyyyyyyyyyyyyyyyyyyyyyyyyyyyyyyyyyyy      ",
"       yyyyyyyyyyyyyyyyyyyyyyyyyyyyyyyyyyyyyyyyyyyyyyyyyyyyyyyyy      ",
"       yyyyyyyyyyyyyyyyyyyyyyyyyyyyyyyyyyyyyyyyyyyyyyyyyyyyyyyyy      ",
"       yyyyyyyyyyyyyyyyyyyyyyyyyyyyyyyyyyyyyyyyyyyyyyyyyyyyyyyyy      ",
"       yyyyyyyyyyyyyyyyyyyyyyyyyyyyyyyyyyyyyyyyyyyyyyyyyyyyyyyyy      ",
"       yyyyyyyyyyyyyyyyyyyyyyyyyyyyyyyyyy9yyyyyyyyyy9yyyyyyyyyyy      ",
"                                          9yyyyyyyy9                  ",
"                                          yyyyyyyyy9                  ",
"                                          yyyyyyyyyy                  ",
"                                          yyyyyyyyyy                  ",
"                                          yyyyyyyyyy                  ",
"                                          yyyyyyyyyy                  ",
"                                          yyyyyyyyyy                  ",
"                                          yyyyyyyyyy                  ",
"                                          yyyyyyyyyy                  ",
"                                          yyyyyyyyyy                  ",
"                                          yyyyyyyyyy                  ",
"                                          yyyyyyyyyy                  ",
"                                          yyyyyyyyyy                  ",
"                                          yyyyyyyyyy                  ",
"                                          yyyyyyyyyy                  ",
"                                                                      ",
"                                                                      ",
"                                                                      "
};

