/* XPM */
static char *nine_xpm[] = {
/* columns rows colors chars-per-pixel */
"70 70 63 1 ",
"  c #E7E8E9",
". c #E7E9E9",
"X c #E9EBEB",
"o c #ECEDED",
"O c #EDEDEF",
"+ c #EDEEEF",
"@ c #EDEFF0",
"# c #EEEFF0",
"$ c #EFEFF0",
"% c #EFF0F0",
"& c #EFF0F1",
"* c #F0F1F1",
"= c #F1F1F1",
"- c #F0F1F2",
"; c #F1F1F2",
": c #F1F1F3",
"> c #F1F2F2",
", c #F0F2F3",
"< c #F1F2F3",
"1 c #F2F2F3",
"2 c #F3F3F3",
"3 c #F3F3F4",
"4 c #F2F3F5",
"5 c #F3F4F4",
"6 c #F4F4F5",
"7 c #F4F5F5",
"8 c #f5f5f5",
"9 c #F4F5F6",
"0 c #F5F5F6",
"q c #F5F6F6",
"w c #F5F6F7",
"e c #F6F7F7",
"r c #F7F7F7",
"t c #F6F7F8",
"y c #F7F8F8",
"u c #F8F8F8",
"i c #F8F8F9",
"p c #F8F9F9",
"a c #F9F9F9",
"s c #F8F9FA",
"d c #F9FAFA",
"f c #F9FAFB",
"g c #FAFAFA",
"h c #FAFAFB",
"j c #FAFBFB",
"k c #FBFBFB",
"l c #FAFBFC",
"z c #FBFBFC",
"x c #FBFCFC",
"c c #FBFCFD",
"v c #FCFCFC",
"b c #FCFCFD",
"n c #FCFDFD",
"m c #FDFDFD",
"M c #FCFDFE",
"N c #FDFDFE",
"B c #FDFEFE",
"V c #FDFEFF",
"C c #FEFEFE",
"Z c #FEFEFF",
"A c #FEFFFF",
"S c #FFFFFF",
"D c #FFFFFA",
/* pixels */
"DDDDDDDDDDDDDDDDDDDDDDDDDDDDDDDDDDDDDDDDDDDDDDDDDDDDDDDDDDDDDDDDDDDDDD",
"DDDDDDDDDDDDDDDDDDDDDDDDDDDDDDDDDDDDDDDDDDDDDDDDDDDDDDDDDDDDDDDDDDDDDD",
"DDDDDDDDDDDDDDDDDDDDDDDDDDDDDDDDDDDDDDDDDDDDDDDDDDDDDDDDDDDDDDDDDDDDDD",
"DDDDDDDDDDDDDDDDDDDDDDDDjZgSSSSSSSSSSvap,DDDDDDDDDDDDDDDDDDDDDDDDDDDDD",
"DDDDDDDDDDDDDDDDDDDDDsACSSSSSSSSSSSSSSSSSMADDDDDDDDDDDDDDDDDDDDDDDDDDD",
"DDDDDDDDDDDDDDDDDDDyvSSSSSSSSSSSSSSSSSSSSSSSlDDDDDDDDDDDDDDDDDDDDDDDDD",
"DDDDDDDDDDDDDDDDDDkSSSSSSSSSSSSSSSSSSSSSSSSSSCSDDDDDDDDDDDDDDDDDDDDDDD",
"DDDDDDDDDDDDDDDD;ASSSSSSSSSSSSSSSSSSSSSSSSSSSSSkDDDDDDDDDDDDDDDDDDDDDD",
"DDDDDDDDDDDDDDD0SSSSSSSSSSSSSSSSSSSSSSSSSSSSSSSSCDDDDDDDDDDDDDDDDDDDDD",
"DDDDDDDDDDDDDD<SSSSSSSSSSSSSSSSSSSSSSSSSSSSSSSSSSZDDDDDDDDDDDDDDDDDDDD",
"DDDDDDDDDDDDDDSSSSSSSSSSSSSkSSC113jnNxSSSSSSSSSSSSSDDDDDDDDDDDDDDDDDDD",
"DDDDDDDDDDDDDZSSSSSSSSSSSjDDDDDDDDDDDDDDSSSSSSSSSSSCDDDDDDDDDDDDDDDDDD",
"DDDDDDDDDDDDvSSSSSSSSSSkDDDDDDDDDDDDDDDDDDSSSSSSSSSSyDDDDDDDDDDDDDDDDD",
"DDDDDDDDDDDDSSSSSSSSSSrDDDDDDDDDDDDDDDDDDDDSSSSSSSSSSDDDDDDDDDDDDDDDDD",
"DDDDDDDDDDDCSSSSSSSSSiDDDDDDDDDDDDDDDDDDDDDDCSSSSSSSSSDDDDDDDDDDDDDDDD",
"DDDDDDDDDDDSSSSSSSSSxDDDDDDDDDDDDDDDDDDDDDDDDSSSSSSSSSfDDDDDDDDDDDDDDD",
"DDDDDDDDDDiSSSSSSSSSDDDDDDDDDDDDDDDDDDDDDDDDDnSSSSSSSSSDDDDDDDDDDDDDDD",
"DDDDDDDDDDCSSSSSSSShDDDDDDDDDDDDDDDDDDDDDDDDDDmSSSSSSSSwDDDDDDDDDDDDDD",
"DDDDDDDDDDSSSSSSSSSDDDDDDDDDDDDDDDDDDDDDDDDDDDBSSSSSSSSSDDDDDDDDDDDDDD",
"DDDDDDDDDDSSSSSSSSSDDDDDDDDDDDDDDDDDDDDDDDDDDDiSSSSSSSSSDDDDDDDDDDDDDD",
"DDDDDDDDDDSSSSSSSSBDDDDDDDDDDDDDDDDDDDDDDDDDDD$SSSSSSSSS4DDDDDDDDDDDDD",
"DDDDDDDDD&SSSSSSSSzDDDDDDDDDDDDDDDDDDDDDDDDDDDXSSSSSSSSSSDDDDDDDDDDDDD",
"DDDDDDDDD%SSSSSSSSvDDDDDDDDDDDDDDDDDDDDDDDDDDDDSSSSSSSSSSDDDDDDDDDDDDD",
"DDDDDDDDD-SSSSSSSSmDDDDDDDDDDDDDDDDDDDDDDDDDDDDSSSSSSSSSSDDDDDDDDDDDDD",
"DDDDDDDDD+SSSSSSSSZDDDDDDDDDDDDDDDDDDDDDDDDDDD9SSSSSSSSSS-DDDDDDDDDDDD",
"DDDDDDDDDDSSSSSSSSSDDDDDDDDDDDDDDDDDDDDDDDDDDDaSSSSSSSSSSmDDDDDDDDDDDD",
"DDDDDDDDDDSSSSSSSSS>DDDDDDDDDDDDDDDDDDDDDDDDDDySSSSSSSSSSSDDDDDDDDDDDD",
"DDDDDDDDDDCSSSSSSSSnDDDDDDDDDDDDDDDDDDDDDDDDDvSSSSSSSSSSSSDDDDDDDDDDDD",
"DDDDDDDDDDdSSSSSSSSS$DDDDDDDDDDDDDDDDDDDDDDDDzSSSSSSSSSSSSDDDDDDDDDDDD",
"DDDDDDDDDDDSSSSSSSSSCDDDDDDDDDDDDDDDDDDDDDDDASSSSSSSSSSSSSDDDDDDDDDDDD",
"DDDDDDDDDDDNSSSSSSSSSBDDDDDDDDDDDDDDDDDDDDDZSSSSSSSSSSSSSSDDDDDDDDDDDD",
"DDDDDDDDDDDoSSSSSSSSSSZDDDDDDDDDDDDDDDDDD6CSSSSSSSSSSSSSSSDDDDDDDDDDDD",
"DDDDDDDDDDDDNSSSSSSSSSSSz-DDDDDDDDDDDDDDBSSSSSSSSSSSSSSSSSDDDDDDDDDDDD",
"DDDDDDDDDDDDDSSSSSSSSSSSSSnl*DDDDDDDDlVCSSSSSSSSSSSSSSSSSSDDDDDDDDDDDD",
"DDDDDDDDDDDDD:SSSSSSSSSSSSSSSASSSSASCSSSSSSSSSSSvCSSSSSSSSDDDDDDDDDDDD",
"DDDDDDDDDDDDDD0SSSSSSSSSSSSSSSSSSSSSSSSSSSSSSSSvDSSSSSSSSSDDDDDDDDDDDD",
"DDDDDDDDDDDDDDD0SSSSSSSSSSSSSSSSSSSSSSSSSSSSSSkDDSSSSSSSSSDDDDDDDDDDDD",
"DDDDDDDDDDDDDDDD6CSSSSSSSSSSSSSSSSSSSSSSSSSSSADDDSSSSSSSSSDDDDDDDDDDDD",
"DDDDDDDDDDDDDDDDDDiSSSSSSSSSSSSSSSSSSSSSSSSjcDDDDASSSSSSSSDDDDDDDDDDDD",
"DDDDDDDDDDDDDDDDDDDDrSSSSSSSSSSSSSSSSSSSShDDDDDDDSSSSSSSSSDDDDDDDDDDDD",
"DDDDDDDDDDDDDDDDDDDDDDDiSSSSSSSSSSSSSSvuDDDDDDDDOSSSSSSSSSDDDDDDDDDDDD",
"DDDDDDDDDDDDDDDDDDDDDDDDDDDD7qee8=DDDDDDDDDDDDDDtSSSSSSSSSDDDDDDDDDDDD",
"DDDDDDDDDDDDDDDDDDDDDDDDDDDDDDDDDDDDDDDDDDDDDDDDzSSSSSSSSmDDDDDDDDDDDD",
"DDDDDDDDDDDDDDDDDDDDDDDDDDDDDDDDDDDDDDDDDDDDDDDDZSSSSSSSS1DDDDDDDDDDDD",
"DDDDDDDDDDDDDDDDDDDDDDDDDDDDDDDDDDDDDDDDDDDDDDDDCSSSSSSSSDDDDDDDDDDDDD",
"DDDDDDDDDDDDDDDDDDDDDDDDDDDDDDDDDDDDDDDDDDDDDDD1SSSSSSSSSDDDDDDDDDDDDD",
"DDDDDDDDDDDDDDDDDDDDDDDDDDDDDDDDDDDDDDDDDDDDDDDNSSSSSSSSmDDDDDDDDDDDDD",
"DDDDDDDDDDDDDDDDDDDDDDDDDDDDDDDDDDDDDDDDDDDDDDDmSSSSSSSS.DDDDDDDDDDDDD",
"DDDDDDDDDDDDDDDDDDDDDDDDDDDDDDDDDDDDDDDDDDDDDD0SSSSSSSSSDDDDDDDDDDDDDD",
"DDDDDDDDDDDDDDDDDDDDDDDDDDDDDDDDDDDDDDDDDDDDDDvSSSSSSSSvDDDDDDDDDDDDDD",
"DDDDDDDDDDDDDDDDDDDDDDDDDDDDDDDDDDDDDDDDDDDDDnSSSSSSSSSDDDDDDDDDDDDDDD",
"DDDDDDDDDDDDDDDDDDDDDDDDDDDDDDDDDDDDDDDDDDDDDASSSSSSSSmDDDDDDDDDDDDDDD",
"DDDDDDDDDDDDDDDDDDDDDDDDDDDDDDDDDDDDDDDDDDDDnSSSSSSSSS7DDDDDDDDDDDDDDD",
"DDDDDDDDDDDDDDDDDDDDDDDDDDDDDDDDDDDDDDDDDDDkSSSSSSSSSCDDDDDDDDDDDDDDDD",
"DDDDDDDDDDDDDDDDDDDDDDDDDDDDDDDDDDDDDDDDDDvSSSSSSSSSSDDDDDDDDDDDDDDDDD",
"DDDDDDDDDDDDDDDDDDDDDDDDDDDDDDDDDDDDDDDDDSSSSSSSSSSSZDDDDDDDDDDDDDDDDD",
"DDDDDDDDDDDDDDDDDDDDDDDDDDDDDDDDDDDDDDD5SSSSSSSSSSSNDDDDDDDDDDDDDDDDDD",
"DDDDDDDDDDDDDDDDSSgDDDDDDDDDDDDDDDDDD5SSSSSSSSSSSSNDDDDDDDDDDDDDDDDDDD",
"DDDDDDDDDDDDDDDvSSSSCDDDDDDDDDDDDDDDSSSSSSSSSSSSSSDDDDDDDDDDDDDDDDDDDD",
"DDDDDDDDDDDDDD@SSSSSSSSSSnAvmmNSSSSSSSSSSSSSSSSSSDDDDDDDDDDDDDDDDDDDDD",
"DDDDDDDDDDDDDDmSSSSSSSSSSSSSSSSSSSSSSSSSSSSSSSSCDDDDDDDDDDDDDDDDDDDDDD",
"DDDDDDDDDDDDD SSSSSSSSSSSSSSSSSSSSSSSSSSSSSSSSNDDDDDDDDDDDDDDDDDDDDDDD",
"DDDDDDDDDDDDDvSSSSSSSSSSSSSSSSSSSSSSSSSSSSSSCbDDDDDDDDDDDDDDDDDDDDDDDD",
"DDDDDDDDDDDDDBSSSSSSSSSSSSSSSSSSSSSSSSSSSSSCDDDDDDDDDDDDDDDDDDDDDDDDDD",
"DDDDDDDDDDDDDDpmSSSSSSSSSSSSSSSSSSSSSSSSmC#DDDDDDDDDDDDDDDDDDDDDDDDDDD",
"DDDDDDDDDDDDDDDD2mkSSSSSSSSSSSSSSSSSSmkkDDDDDDDDDDDDDDDDDDDDDDDDDDDDDD",
"DDDDDDDDDDDDDDDDDDDDvSSgkSSSSSSSgSSSkDDDDDDDDDDDDDDDDDDDDDDDDDDDDDDDDD",
"DDDDDDDDDDDDDDDDDDDDDDDDDDDDDDDDDDDDDDDDDDDDDDDDDDDDDDDDDDDDDDDDDDDDDD",
"DDDDDDDDDDDDDDDDDDDDDDDDDDDDDDDDDDDDDDDDDDDDDDDDDDDDDDDDDDDDDDDDDDDDDD",
"DDDDDDDDDDDDDDDDDDDDDDDDDDDDDDDDDDDDDDDDDDDDDDDDDDDDDDDDDDDDDDDDDDDDDD"
};

