/* XPM */
static char *one_xpm[] = {
/* columns rows colors chars-per-pixel */
"70 70 28 1 ",
"  c #fffffa",
". c #B1B3B4",
"X c #d6d6d6",
"o c #E1E3E3",
"O c #EAEAEB",
"+ c #EBECEC",
"@ c #EDEDEE",
"# c #EFEFEF",
"$ c #f0f0f0",
"% c #F1F1F1",
"& c #F1F1F2",
"* c #F1F2F2",
"= c #f2f2f2",
"- c #F2F2F3",
"; c #F3F3F4",
": c #F4F4F4",
"> c #F5F5F6",
", c #F6F6F6",
"< c #f7f7f7",
"1 c #F8F8F8",
"2 c #F9F9F9",
"3 c #fafafa",
"4 c #FAFAFB",
"5 c #FBFBFB",
"6 c #FDFDFD",
"7 c #FEFEFE",
"8 c #FEFEFF",
"9 c #ffffff",
/* pixels */
"                                                                      ",
"                                                                      ",
"                                                                      ",
"                     O                                                ",
"                   .99999999999999999999999,                          ",
"                   $999999999999999999999999                          ",
"                   @999999999999999999999999                          ",
"                   4999999999999999999999999                          ",
"                   9999999999999999999999999                          ",
"                   9999999999999999999999999                          ",
"                   4999999999999999999999999                          ",
"                   ,999999999999999999999999                          ",
"                    ,99999999999999999999999                          ",
"                                 ;9999999999                          ",
"                                 X9999999999                          ",
"                                 o9999999999                          ",
"                                  9999999999                          ",
"                                  9999999999                          ",
"                                  9999999999                          ",
"                                  9999999999                          ",
"                                  9999999999                          ",
"                                  9999999999                          ",
"                                  9999999999                          ",
"                                  9999999999                          ",
"                                  9999999999                          ",
"                                  9999999999                          ",
"                                  9999999999                          ",
"                                  9999999999                          ",
"                                  9999999999@                         ",
"                                  9999999999,                         ",
"                                  99999999994                         ",
"                                  99999999994                         ",
"                                  99999999994                         ",
"                                  99999999994                         ",
"                                  99999999994                         ",
"                                  99999999994                         ",
"                                  99999999994                         ",
"                                  99999999994                         ",
"                                  99999999994                         ",
"                                  99999999994                         ",
"                                  99999999994                         ",
"                                  99999999994                         ",
"                                  99999999994                         ",
"                                  9999999999,                         ",
"                                  9999999999$                         ",
"                                  9999999999$                         ",
"                                  9999999999$                         ",
"                                  9999999999$                         ",
"                                  9999999999$                         ",
"                                  9999999999$                         ",
"                                  9999999999$                         ",
"                                  9999999999$                         ",
"                                  9999999999$                         ",
"                                  9999999999$                         ",
"                                  9999999999$                         ",
"                                  9999999999$                         ",
"                                  9999999999$                         ",
"                                  9999999999$                         ",
"                                  9999999999$                         ",
"                                  9999999999$                         ",
"                                  9999999999$                         ",
"                                  9999999999$                         ",
"                                  9999999999$                         ",
"                                  9999999999$                         ",
"                                  9999999999$                         ",
"                                  9999999999+                         ",
"                                  9999999999$                         ",
"                                  9999999999$                         ",
"                                   999999994                          ",
"                                                                      "
};
