/* XPM */
static char *seven_xpm[] = {
/* columns rows colors chars-per-pixel */
"70 70 20 1 ",
"  c #fffffa",
". c #EFEFF0",
"X c #F2F2F3",
"o c #F2F3F3",
"O c #F3F3F4",
"+ c #F4F5F5",
"@ c #f5f5f5",
"# c #F5F5F6",
"$ c #F6F6F6",
"% c #F6F7F7",
"& c #F8F8F9",
"* c #FAFBFB",
"= c #fcfcfc",
"- c #FCFCFD",
"; c #FDFDFD",
": c #FDFDFE",
"> c #FEFEFE",
", c #FEFEFF",
"< c #FEFFFF",
"1 c #FFFFFF",
/* pixels */
"                                                                      ",
"                                                                      ",
"          111111111111111111111111111111111111111111111111111         ",
"          111111111111111111111111111111111111111111111111111         ",
"          111111111111111111111111111111111111111111111111111         ",
"          111111111111111111111111111111111111111111111111111         ",
"          111111111111111111111111111111111111111111111111111         ",
"          111111111111111111111111111111111111111111111111111         ",
"          111111111111111111111111111111111111111111111111111         ",
"          11111111111111111111111111111111111111111111111111&         ",
"          1111111111                              1111111111          ",
"          1111111111                              1111111111          ",
"          1111111111                             1111111111           ",
"          1111111111                             1111111111           ",
"          1111111111                            1111111111            ",
"          1111111111                            1111111111            ",
"          1111111111                           1111111111             ",
"          1111111111                           1111111111             ",
"          1111111111                           111111111#             ",
"          1111111111                          1111111111              ",
"          111111111#                          111111111&              ",
"          111111111#                         1111111111               ",
"           1111111                           1111111111               ",
"                                            1111111111                ",
"                                            1111111111                ",
"                                           1111111111                 ",
"                                           1111111111                 ",
"                                          #111111111#                 ",
"                                          1111111111                  ",
"                                         X111111111                   ",
"                                         1111111111                   ",
"                                         1111111111                   ",
"                                        1111111111                    ",
"                                        1111111111                    ",
"                                       1111111111                     ",
"                                       1111111111                     ",
"                                      1111111111.                     ",
"                                      1111111111                      ",
"                                      111111111                       ",
"                                     1111111111                       ",
"                                     1111111111                       ",
"                                    1111111111                        ",
"                                    1111111111                        ",
"                                   1111111111                         ",
"                                   1111111111                         ",
"                                  1111111111                          ",
"                                  1111111111                          ",
"                                 1111111111X                          ",
"                                 1111111111                           ",
"                                #111111111&                           ",
"                                1111111111                            ",
"                                1111111111                            ",
"                               1111111111                             ",
"                               1111111111                             ",
"                              1111111111                              ",
"                              1111111111                              ",
"                              111111111#                              ",
"                             1111111111                               ",
"                             1111111111                               ",
"                            1111111111                                ",
"                            1111111111                                ",
"                           1111111111                                 ",
"                           1111111111                                 ",
"                          1111111111                                  ",
"                          1111111111                                  ",
"                         1111111111O                                  ",
"                         1111111111                                   ",
"                         1111111111                                   ",
"                        1111111111                                    ",
"                                                                      "
};

