/* XPM */
static char *six_xpm[] = {
/* columns rows colors chars-per-pixel */
"70 70 41 1 ",
"  c #FFFFFA",
". c #E0E0E1",
"X c #E1E1E2",
"o c #E5E6E6",
"O c #E9E9E9",
"+ c #E8EAEA",
"@ c #E9EAEA",
"# c #EAEAEA",
"$ c #EBEBEB",
"% c #EBEBEC",
"& c #ECECEC",
"* c #EEEEEE",
"= c #EEEFEF",
"- c #EFF1F1",
"; c #F0F0F0",
": c #F1F1F1",
"> c #F3F3F3",
", c #F3F3F4",
"< c #F4F4F4",
"1 c #F4F5F5",
"2 c #F5F5F5",
"3 c #F5F5F6",
"4 c #F6F6F6",
"5 c #F6F6F7",
"6 c #F7F7F7",
"7 c #F7F7F8",
"8 c #F8F8F8",
"9 c #F9F9F9",
"0 c #F9F9FA",
"q c #F9FAFA",
"w c #fafafa",
"e c #FAFAFB",
"r c #FBFBFB",
"t c #FAFAFA",
"y c #FCFDFD",
"u c #FDFDFD",
"i c #FDFDFE",
"p c #FDFEFE",
"a c #FEFEFE",
"s c #FEFFFF",
"d c #FFFFFF",
/* pixels */
"                                                                      ",
"                                                                      ",
"                                #ddddddddddddddd#                     ",
"                             6ddddddddddddddddddddd8X                 ",
"                           ddddddddddddddddddddddddddd6               ",
"                         dddddddddddddddddddddddddddddd6              ",
"                       ddddddddddddddddddddddddddddddddd              ",
"                     >dddddddddddddddddddddddddddddddddd              ",
"                    ddddddddddddddddddddddddddddddddddd               ",
"                   dddddddddddddddddddddddddddddddddddd               ",
"                  ddddddddddddddd88dddd888dddd86dddddd                ",
"                 dddddddddddddd6                 d6dd8                ",
"                8ddddddddddd86                     88                 ",
"               8dddddddddddd                                          ",
"               ddddddddddd>                                           ",
"              8dddddddddd                                             ",
"              dddddddddd                                              ",
"             8ddddddddd8                                              ",
"            8dddddddddd                                               ",
"            8ddddddddd                                                ",
"            dddddddddd                                                ",
"           dddddddddd                                                 ",
"           6ddddddddd                                                 ",
"           ddddddddd8                                                 ",
"           ddddddddd                                                  ",
"           ddddddddd                                                  ",
"          dddddddddd                                                  ",
"          8dddddddd8                                                  ",
"          ddddddddd#           >8dddddddddd6                          ",
"          ddddddddd         ddddddddddddddddddd                       ",
"          ddddddddd      &ddddddddddddddddddddddd-                    ",
"          ddddddddd     ddddddddddddddddddddddddddd%                  ",
"          ddddddddd   #ddddddddddddddddddddddddddddd8                 ",
"          ddddddddd  8dddddddddddddddddddddddddddddddd                ",
"          ddddddddd#8dddddddddddddddddddddddddddddddddd               ",
"          ddddddddd6ddddddddddddd8dddd8ddddddddddddddddd              ",
"          ddddddddddddddddddd8            >ddddddddddddd6             ",
"          ddddddddddddddddd8                >dddddddddddd             ",
"          dddddddddddddddd                    ddddddddddd6            ",
"          ddddddddddddddd                      6dddddddddd            ",
"          dddddddddddddd                        dddddddddd6           ",
"          dddddddddddddo                         dddddddddd           ",
"          dddddddddddd8                          8ddddddddd           ",
"          dddddddddddd                            ddddddddd           ",
"          8ddddddddddd                            ddddddddd           ",
"          ddddddddddd8                            ddddddddd           ",
"           dddddddddd                             7dddddddd           ",
"           dddddddddd                             7dddddddd8          ",
"           dddddddddd                             8dddddddd6          ",
"           ddddddddddX                            8dddddddd           ",
"            ddddddddd8                            ddddddddd           ",
"            dddddddddd                            ddddddddd           ",
"            dddddddddd                            ddddddddd           ",
"             dddddddddd                          dddddddddd           ",
"             8ddddddddd#                         ddddddddd8           ",
"              dddddddddd                        dddddddddd            ",
"              8dddddddddd                      ddddddddddd            ",
"               ddddddddddd&                   ddddddddddd8            ",
"                dddddddddddd6               6dddddddddddd             ",
"                ,dddddddddddddddd      8dd6ddddddddddddd              ",
"                 6ddddddddddddddd86ddd8dddddddddddddddd               ",
"                  6ddddddddddddddddddddddddddddddddddd                ",
"                    ddddddddddddddddddddddddddddddddd                 ",
"                     ddddddddddddddddddddddddddddddd                  ",
"                       ddddddddddddddddddddddddddd                    ",
"                        &ddddddddddddddddddddddd#                     ",
"                           ddddddddddddddddddd                        ",
"                              &ddddddddddd6                           ",
"                                                                      ",
"                                                                      "
};
