/* XPM */
static char *ten_xpm[] = {
/* columns rows colors chars-per-pixel */
"70 70 78 1 ",
"  c #fffffa",
". c #BCBCBE",
"X c #BCBDBE",
"o c #CCCECE",
"O c #D1D2D3",
"+ c #D8D8D8",
"@ c #D8D9DA",
"# c #D8DADA",
"$ c #D9DADB",
"% c #DADADB",
"& c #DADBDC",
"* c #DBDCDD",
"= c #DCDCDD",
"- c #DCDDDE",
"; c #DDDEDF",
": c #DEDEDF",
"> c #DEDFDF",
", c #DEDFE0",
"< c #DFDFE0",
"1 c #DEE0E0",
"2 c #DFE0E1",
"3 c #E0E0E1",
"4 c #E1E2E2",
"5 c #E1E2E3",
"6 c #E2E3E4",
"7 c #E3E4E5",
"8 c #E4E5E5",
"9 c #E6E6E6",
"0 c #E7E7E7",
"q c #E8E9E9",
"w c #E9E9EA",
"e c #EAEAEA",
"r c #EBEBEC",
"t c #EBECEC",
"y c #ECECEC",
"u c #ededed",
"i c #EEEEEE",
"p c #EFEFEF",
"a c #EEF0F0",
"s c #f0f0f0",
"d c #F0F0F1",
"f c #F0F1F1",
"g c #F1F1F1",
"h c #F0F0F2",
"j c #F1F1F2",
"k c #F1F2F2",
"l c #f2f2f2",
"z c #F2F2F3",
"x c #F2F3F3",
"c c #F3F3F3",
"v c #F3F3F4",
"b c #F4F4F4",
"n c #F4F4F5",
"m c #F4F5F5",
"M c #f5f5f5",
"N c #F4F4F6",
"B c #F5F5F6",
"V c #F5F6F6",
"C c #F6F6F6",
"Z c #F6F7F7",
"A c #f7f7f7",
"S c #F7F8F8",
"D c #F8F8F8",
"F c #F8F8F9",
"G c #F9F9F9",
"H c #F9F9FA",
"J c #F9FAFA",
"K c #fafafa",
"L c #FAFAFB",
"P c #FAFBFB",
"I c #FBFBFB",
"U c #FBFBFC",
"Y c #fcfcfc",
"T c #FCFDFD",
"R c #FDFDFD",
"E c #FEFEFE",
"W c #FEFFFF",
"Q c #ffffff",
/* pixels */
"                                                                      ",
"                                                                      ",
"                                                                      ",
"                                                                      ",
"                                                                      ",
"                                                                      ",
"                                                                      ",
"                                                                      ",
"                                                                      ",
"                                                                      ",
"                                                                      ",
"   QQQQQQQQQQQQQQQQQ                       QQQQQQQQQ                  ",
"   QQQQQQQQQQQQQQQQQ                    FQQQQQQQQQQQQQQ               ",
"   QQQQQQQQQQQQQQQQQ                  lQQQQQQQQQQQQQQQQQQ             ",
"   QQQQQQQQQQQQQQQQQS                QQQQQQQQQQQQQQQQQQQQQ            ",
"   QQQQQQQQQQQQQQQQQ                QQQQQQQQQQQQQQQQQQQQQQQU          ",
"   QQQQQQQQQQQQQQQQFl              QQQQQQQQQQQQQQQQQQQQQQQQQQ         ",
"   QQQQQQQQQQQQQQQQF              QQQQQQQQQFlQQQQQQQQQQQQQQQQF        ",
"             QQQQQQA              QQQQQQQQrFX       FFQQQQQQQQ        ",
"             QQQQQQA             FQQQQQQQQX           QQQQQQQQQ       ",
"             QQQQQQA            QQQQQQQQQ              iQQQQQQQl      ",
"             QQQQQQA            QQQQQQQ0                FQQQQQQA      ",
"             QQQQQQS           QQQQQQQi                  QQQQQQQ      ",
"             QQQQQQF           QQQQQQQ                   rQQQQQQQ     ",
"             QQQQQQF           QQQQQQA                    QQQQQQQ     ",
"             QQQQQQFt         QQQQQQQ                     QQQQQQQ     ",
"             QQQQQQFl         QQQQQQQ                      QQQQQQa    ",
"             QQQQQQl2         QQQQQQA                      QQQQQQQ    ",
"             QQQQQQv2         QQQQQQ                       QQQQQQQ    ",
"             QQQQQQA4         QQQQQQ                       QQQQQQQ    ",
"             QQQQQQA6        AQQQQQQ                       QQQQQQQ    ",
"             QQQQQQA6        FQQQQQQ                        QQQQQQ    ",
"             QQQQQQA4        QQQQQQQ                        QQQQQQ    ",
"             QQQQQQl;        QQQQQQQ                        QQQQQQ    ",
"             QQQQQQl&        QQQQQQQ                        QQQQQQ    ",
"             QQQQQQl*        QQQQQQQ                        QQQQQQ    ",
"             QQQQQQl;        FQQQQQQ                        QQQQQQ    ",
"             QQQQQQl*         QQQQQQ                       0QQQQQQ    ",
"             QQQQQQl&         QQQQQQ                       AQQQQQQ    ",
"             QQQQQQl*         QQQQQQ                       QQQQQQQ    ",
"             QQQQQQl#         QQQQQQ                       QQQQQQQ    ",
"             QQQQQQl#         QQQQQQQ                      QQQQQQQ    ",
"             QQQQQQl#         QQQQQQQ                     oQQQQQQ,    ",
"             QQQQQQl,          QQQQQQe                    QQQQQQQ     ",
"             QQQQQQl2          QQQQQQQ                    QQQQQQU     ",
"             QQQQQQl2          QQQQQQQ                   FQQQQQQA     ",
"             QQQQQQl;           QQQQQQQ                  QQQQQQQ      ",
"             QQQQQQl;           QQQQQQQ4                QQQQQQQF      ",
"             QQQQQQl;            QQQQQQQQ              QQQQQQQQ       ",
"             QQQQQQA4             QQQQQQQeQ          iQQQQQQQQQ       ",
"             QQQQQQA7             QQQQQQQQQQAO     l0FQQQQQQQF        ",
"             QQQQQQA0              QQQQQQQQQQllQQQAFQQQQQQQQFi        ",
"             QQQQQQl;               QQQQQQQQQQQQQQQQQQQQQQQQA         ",
"             QQQQQQl                 QQQQQQQQQQQQQQQQQQQQQFr          ",
"             QQQQQQl                  QQQQQQQQQQQQQQQQQQQQ            ",
"             QQQQQQl                   QQQQQQQQQQQQQQQQQl             ",
"             QQQQQQl                     QQQQQQQQQQQQQe               ",
"              2eie##                        QQQQQQQA                  ",
"                                                                      ",
"                                                                      ",
"                                                                      ",
"                                                                      ",
"                                                                      ",
"                                                                      ",
"                                                                      ",
"                                                                      ",
"                                                                      ",
"                                                                      ",
"                                                                      ",
"                                                                      "
};

