/* XPM */
static char *three_xpm[] = {
/* columns rows colors chars-per-pixel */
"70 70 44 1 ",
"  c #fffffa",
". c #CFD0D0",
"X c #e3e3e3",
"o c #e5e5e5",
"O c #E7E7E7",
"+ c #E6E6E8",
"@ c #E7E7E8",
"# c #E9E9E9",
"$ c #EAEAEA",
"% c #ebebeb",
"& c #EBECEC",
"* c #ECECEC",
"= c #ECECED",
"- c #ECEDED",
"; c #EDEDEE",
": c #EEEEEF",
"> c #EFF0F0",
", c #F0F1F1",
"< c #F2F1F1",
"1 c #F1F1F2",
"2 c #f2f2f2",
"3 c #F3F2F2",
"4 c #F4F2F2",
"5 c #F4F3F3",
"6 c #F5F4F4",
"7 c #f5f5f5",
"8 c #F6F5F5",
"9 c #F7F5F5",
"0 c #F6F6F6",
"q c #F7F6F6",
"w c #f7f7f7",
"e c #F8F7F7",
"r c #F8F8F8",
"t c #F9F8F8",
"y c #F8F9F9",
"u c #F9F9F9",
"i c #fafafa",
"p c #FBFBFB",
"a c #fcfcfc",
"s c #FDFCFC",
"d c #FDFDFD",
"f c #FEFEFE",
"g c #FFFEFE",
"h c #ffffff",
/* pixels */
"                                                                      ",
"                                                                      ",
"                                                                      ",
"             555qqudddddddddddddddddddddddddddddddddd                 ",
"            <qqeuddddddddddddddddddddddddddddddddddddd                ",
"            5ddddddddddddddddddddddddddddddddddddddddd                ",
"            5ddddddddddddddddddddddddddddddddddddddddd                ",
"            qddddddddddddddddddddddddddddddddddddddddd                ",
"            qddddddddddddddddddddddddddddddddddddddddd                ",
"            qddddddddddddddddddddddddddddddddddddddddd                ",
"            qdddddddddddddddddddddddddddddddddddddddd                 ",
"            <dddddddddddddddddddddddddddddddddddddddu                 ",
"                                         ddddddddddd                  ",
"                                        ddddddddddd                   ",
"                                       udddddddddd                    ",
"                                      udddddddddd                     ",
"                                      ddddddddddu                     ",
"                                     ddddddddddd                      ",
"                                    ddddddddddd                       ",
"                                   ddddddddddd                        ",
"                                   dddddddddd                         ",
"                                  dddddddddd                          ",
"                                 ddddddddddd                          ",
"                                ddddddddddd                           ",
"                                dddddddddd                            ",
"                               dddddddddd                             ",
"                              ddddddddddu                             ",
"                             ddddddddddd                              ",
"                            ddddddddddd                               ",
"                            dddddddddd<@                              ",
"                           dddddddddddddddd                           ",
"                          dddddddddddddddddddd                        ",
"                          dddddddddddddddddddddd                      ",
"                          dddddddddddddddddddddddd                    ",
"                           dddddddddddddddddddddddd                   ",
"                            dddddddddddddddddddddddd                  ",
"                              ddddddddddddddddddddddd                 ",
"                                     ddddddddddddddddd                ",
"                                         ddddddddddddd                ",
"                                          udddddddddddd               ",
"                                            ddddddddddd               ",
"                                             ddddddddddd              ",
"                                             #dddddddddd              ",
"                                              dddddddddd              ",
"                                              >ddddddddd;             ",
"                                               dddddddddd             ",
"                                               dddddddddd             ",
"                                               dddddddddd             ",
"                                               dddddddddd             ",
"                                               dddddddddd             ",
"                                               dddddddddu             ",
"                                              uddddddddd              ",
"             dd                               dddddddddd              ",
"            dddu                             udddddddddd              ",
"            ddddd<                          udddddddddd               ",
"           dddddddd;                       uddddddddddd               ",
"           ddddddddddq                   #dddddddddddd                ",
"          dddddddddddddd<.             Xdddddddddddddd                ",
"          dddddddddddddddddd#o:;;;#;udddddddddddddddd                 ",
"          ddddddddddddddddddddddddddddddddddddddddddd                 ",
"           ddddddddddddddddddddddddddddddddddddddddd                  ",
"            ddddddddddddddddddddddddddddddddddddddd                   ",
"             ddddddddddddddddddddddddddddddddddddd                    ",
"                dddddddddddddddddddddddddddddddd                      ",
"                  dddddddddddddddddddddddddddd                        ",
"                     ddddddddddddddddddddddd                          ",
"                        &ddddddddddddddd<                             ",
"                                                                      ",
"                                                                      ",
"                                                                      "
};

