/* XPM */
static char *zero_xpm[] = {
/* columns rows colors chars-per-pixel */
"70 70 51 1 ",
"  c #fffffa",
". c #e8e8e8",
"X c #EAEBEB",
"o c #EEEEEE",
"O c #EEEFF0",
"+ c #EFF0F1",
"@ c #F0F0F1",
"# c #F0F1F2",
"$ c #F2F2F3",
"% c #F3F4F4",
"& c #F3F4F5",
"* c #F4F4F4",
"= c #F4F4F5",
"- c #F4F5F5",
"; c #f5f5f5",
": c #F5F5F6",
"> c #F4F5F7",
", c #F5F6F6",
"< c #F5F6F7",
"1 c #F6F6F6",
"2 c #f7f7f7",
"3 c #F6F7F8",
"4 c #F7F7F8",
"5 c #F7F8F8",
"6 c #F8F8F8",
"7 c #F8F8F9",
"8 c #F8F9F9",
"9 c #F9F9F9",
"0 c #F9F9FA",
"q c #F9F9FB",
"w c #F9FAFA",
"e c #fafafa",
"r c #FAFAFB",
"t c #FAFBFB",
"y c #FBFBFB",
"u c #FBFBFC",
"i c #FBFCFC",
"p c #FBFCFD",
"a c #fcfcfc",
"s c #FCFCFD",
"d c #FCFDFD",
"f c #FDFDFD",
"g c #FCFDFE",
"h c #FDFDFE",
"j c #FDFEFE",
"k c #FDFEFF",
"l c #FEFEFE",
"z c #FEFFFE",
"x c #FEFEFF",
"c c #FEFFFF",
"v c #ffffff",
/* pixels */
"                                                                      ",
"                                                                      ",
"                             rvvvvvvvvv4                              ",
"                         vvvvvvvvvvvvvvvvvvr                          ",
"                       rvvvvvvvvvvvvvvvvvvvvvv                        ",
"                     rvvvvvvvvvvvvvvvvvvvvvvvvvv                      ",
"                   vvvvvvvvvvvvvvvvvvvvvvvvvvvvvv,                    ",
"                  vvvvvvvvvvvvvvvvvvvvvvvvvvvvvvvv                    ",
"                  vvvvvvvvvvvvvvvvvvvvvvvvvvvvvvvvvv                  ",
"                 vvvvvvvvvvvvvvvvvvvvvvvvvvvvvvvvvvvr                 ",
"                vvvvvvvvvvvvvvvv    rvvvvvvvvvvvvvvvv5                ",
"               vvvvvvvvvvvvvr          .vvvvvvvvvvvvvv                ",
"              vvvvvvvvvvvvr               vvvvvvvvvvvvv               ",
"             vvvvvvvvvvvv                  rvvvvvvvvvvvu              ",
"             vvvvvvvvvvv                    #vvvvvvvvvvv              ",
"            vvvvvvvvvvv                      #vvvvvvvvvvr             ",
"            vvvvvvvvvv                        rvvvvvvvvvv             ",
"           vvvvvvvvvv,                         rvvvvvvvvvr            ",
"           vvvvvvvvvv                           vvvvvvvvvv            ",
"          vvvvvvvvvv                            rvvvvvvvvv&           ",
"          vvvvvvvvvv                             vvvvvvvvvv           ",
"         ivvvvvvvvv                              vvvvvvvvvv           ",
"         vvvvvvvvvv                               vvvvvvvvv+          ",
"         vvvvvvvvvv                               vvvvvvvvvv          ",
"        #vvvvvvvvvv                               vvvvvvvvvv          ",
"        ivvvvvvvvvu                                vvvvvvvvv          ",
"        vvvvvvvvvv,                                vvvvvvvvv.         ",
"        vvvvvvvvvr                                 vvvvvvvvv,         ",
"        vvvvvvvvvv                                 vvvvvvvvvr         ",
"        vvvvvvvvvv                                 vvvvvvvvvv         ",
"        vvvvvvvvvv                                 vvvvvvvvvv         ",
"        vvvvvvvvvr                                 ivvvvvvvvv         ",
"        vvvvvvvvv,                                 rvvvvvvvvv         ",
"        vvvvvvvvv,                                 rvvvvvvvvv         ",
"       ,vvvvvvvvv,                                 rvvvvvvvvv         ",
"       ,vvvvvvvvv,                                 rvvvvvvvvv         ",
"        vvvvvvvvv,                                 rvvvvvvvvv         ",
"        vvvvvvvvv,                                 rvvvvvvvvv         ",
"        vvvvvvvvv,                                 ivvvvvvvvv         ",
"        vvvvvvvvvr                                 vvvvvvvvvv         ",
"        vvvvvvvvvv                                 vvvvvvvvvv         ",
"        vvvvvvvvvv                                 vvvvvvvvvr         ",
"        vvvvvvvvvv                                 vvvvvvvvv,         ",
"        vvvvvvvvvv                                 vvvvvvvvv          ",
"        4vvvvvvvvv,                                vvvvvvvvv          ",
"         vvvvvvvvvv                               vvvvvvvvvv          ",
"         vvvvvvvvvr                               vvvvvvvvvr          ",
"         vvvvvvvvvv                               vvvvvvvvv#          ",
"         rvvvvvvvvvr                             vvvvvvvvvv           ",
"          vvvvvvvvvv                             vvvvvvvvvv           ",
"          vvvvvvvvvv,                           uvvvvvvvvv            ",
"           vvvvvvvvvv                          ovvvvvvvvvv            ",
"           vvvvvvvvvvr                         vvvvvvvvvvv            ",
"            vvvvvvvvvvO                       vvvvvvvvvvv             ",
"            vvvvvvvvvvv                      rvvvvvvvvvv              ",
"             vvvvvvvvvvv                    rvvvvvvvvvvv              ",
"             rvvvvvvvvvvv,                 vvvvvvvvvvvv               ",
"              vvvvvvvvvvvvv               vvvvvvvvvvvvv               ",
"              rvvvvvvvvvvvvvv          4vvvvvvvvvvvvvv                ",
"               vvvvvvvvvvvvvvvvvvrrvvvvvvvvvvvvvvvvvv                 ",
"                vvvvvvvvvvvvvvvvvvvvvvvvvvvvvvvvvvvv                  ",
"                 vvvvvvvvvvvvvvvvvvvvvvvvvvvvvvvvvv                   ",
"                   vvvvvvvvvvvvvvvvvvvvvvvvvvvvvvv                    ",
"                    vvvvvvvvvvvvvvvvvvvvvvvvvvvvv                     ",
"                      vvvvvvvvvvvvvvvvvvvvvvvvrr                      ",
"                        vvvvvvvvvvvvvvvvvvvvvv                        ",
"                          vvvvvvvvvvvvvvvvr                           ",
"                             &rvvvvvvv,                               ",
"                                                                      ",
"                                                                      "
};
